<?xml version="1.0" standalone="no"?>
<!DOCTYPE svg PUBLIC "-//W3C//DTD SVG 20010904//EN"
 "http://www.w3.org/TR/2001/REC-SVG-20010904/DTD/svg10.dtd">
<svg version="1.0" xmlns="http://www.w3.org/2000/svg"
 width="1280.000000pt" height="1004.000000pt" fill-opacity="20%" viewBox="0 0 1280.000000 1004.000000"
 preserveAspectRatio="xMidYMid meet">
<metadata>
Created by potrace 1.15, written by Peter Selinger 2001-2017
</metadata>
<g transform="translate(0.000000,1004.000000) scale(0.100000,-0.100000)"
fill="#000000" stroke="none">
<path d="M12135 10015 c-27 -14 -64 -25 -82 -25 -30 0 -33 -3 -47 -52 -8 -29
-18 -69 -21 -90 -5 -24 -13 -38 -27 -41 -18 -5 -19 -10 -12 -59 10 -65 8 -97
-7 -171 -11 -52 -18 -63 -79 -120 -36 -34 -97 -89 -136 -122 -38 -33 -89 -90
-114 -128 -74 -114 -128 -160 -212 -186 -40 -11 -93 -21 -118 -21 -43 0 -47
-3 -94 -59 -26 -33 -113 -121 -192 -196 -119 -112 -145 -143 -155 -177 -6 -22
-8 -50 -5 -62 5 -20 -3 -24 -86 -45 -88 -23 -91 -24 -104 -6 -8 11 -14 31 -14
46 0 15 -3 34 -6 43 -3 9 -2 16 4 16 5 0 13 -12 17 -27 7 -31 23 -53 37 -53 5
0 7 28 6 62 l-3 62 44 25 c40 22 44 23 36 5 -38 -91 -1 -82 79 19 34 43 80 91
104 109 24 17 41 32 39 34 -2 2 -47 -16 -99 -41 -52 -25 -105 -45 -118 -45
-12 0 -35 -11 -52 -25 -16 -14 -38 -25 -48 -25 -35 0 -140 -161 -140 -214 0
-47 -22 -81 -104 -166 -46 -47 -87 -96 -91 -110 -9 -30 -125 -156 -139 -152
-41 13 -99 -49 -111 -121 -4 -20 -11 -40 -16 -43 -5 -3 -32 2 -59 11 -34 11
-55 26 -67 45 -13 22 -20 27 -30 18 -21 -17 -15 -52 12 -78 17 -16 25 -33 23
-50 -3 -21 -8 -25 -38 -25 -54 0 -87 -26 -95 -77 -16 -94 -47 -159 -145 -304
-79 -116 -130 -179 -233 -283 -131 -133 -254 -234 -331 -273 -23 -11 -67 -45
-100 -75 -38 -35 -97 -73 -170 -110 -77 -39 -133 -75 -184 -121 -67 -60 -77
-66 -127 -70 -54 -4 -54 -5 -122 -86 -37 -44 -104 -119 -149 -166 -45 -47 -84
-96 -88 -108 -8 -26 5 -48 35 -57 27 -9 26 -66 -1 -90 -17 -16 -20 -26 -14
-62 10 -65 0 -88 -52 -118 l-46 -27 23 -25 c14 -14 31 -22 41 -20 28 8 23 -34
-12 -102 -24 -48 -40 -66 -87 -95 -60 -38 -108 -52 -141 -42 -11 4 -47 32 -81
64 -50 47 -61 63 -61 89 0 57 -6 62 -54 49 -39 -10 -83 -51 -142 -134 -1 -2
-12 1 -24 8 -33 18 -59 3 -155 -90 -49 -49 -112 -101 -140 -117 -41 -24 -51
-35 -53 -60 -3 -25 1 -33 20 -38 13 -4 67 -32 121 -62 67 -37 128 -62 189 -78
105 -27 128 -45 135 -106 l4 -44 -109 -108 -108 -108 -48 12 c-45 11 -48 11
-75 -15 -26 -25 -37 -27 -133 -33 -96 -5 -110 -4 -152 16 -45 22 -116 93 -116
117 0 6 7 15 16 18 17 6 27 1 74 -39 28 -24 170 -85 197 -85 26 1 73 46 73 70
0 11 -7 36 -14 55 l-15 35 43 29 c68 47 71 53 56 116 -27 113 -76 147 -121 86
-15 -21 -36 -33 -71 -41 -27 -7 -51 -10 -54 -8 -2 3 3 19 12 36 20 40 30 102
17 102 -19 0 -160 -98 -167 -115 -8 -23 17 -51 60 -67 19 -7 34 -15 34 -18 0
-3 -29 -16 -65 -29 -57 -20 -68 -28 -87 -64 l-20 -41 -15 27 c-7 15 -20 27
-29 27 -27 0 -80 -27 -116 -59 -20 -17 -40 -31 -46 -31 -27 0 -19 -23 23 -63
25 -24 45 -51 45 -61 0 -19 -50 -66 -128 -118 -42 -28 -62 -35 -83 -31 -14 3
-30 0 -33 -6 -11 -17 22 -69 54 -86 35 -18 36 -20 11 -62 -17 -28 -141 -112
-167 -113 -5 -1 -22 -24 -39 -53 -41 -72 -68 -75 -96 -12 -25 57 -20 85 27
142 37 45 84 141 84 172 0 33 -29 45 -125 51 -113 7 -140 24 -131 78 6 39 -7
80 -28 88 -8 3 -41 -10 -73 -30 -57 -35 -140 -56 -222 -56 -25 0 -57 -15 -111
-50 -42 -27 -104 -61 -139 -75 -111 -43 -117 -64 -37 -120 55 -37 95 -42 82
-10 -3 9 0 15 10 15 24 0 157 -67 198 -100 49 -38 80 -26 182 72 35 34 61 50
87 55 41 6 51 -9 17 -27 -28 -15 -25 -28 12 -43 47 -20 87 -64 115 -125 27
-59 25 -79 -9 -86 -139 -26 -205 -42 -273 -63 -107 -34 -136 -33 -222 10 l-72
37 -63 -30 c-35 -17 -72 -30 -83 -30 -11 0 -61 11 -111 24 -96 24 -237 101
-317 172 -34 31 -43 34 -100 34 -34 0 -91 -8 -127 -17 -36 -9 -90 -17 -120
-17 -41 -1 -65 -8 -95 -28 -48 -32 -93 -42 -144 -33 -36 6 -41 11 -71 72 -18
36 -51 85 -74 109 -36 37 -49 44 -81 44 -53 0 -209 -80 -256 -131 -20 -21 -46
-39 -57 -39 -11 0 -76 17 -144 37 -123 36 -124 36 -292 34 -180 -2 -334 11
-430 35 l-59 15 -24 -25 c-13 -14 -31 -26 -40 -26 -21 0 -144 115 -165 155
-32 60 -41 62 -118 24 -38 -19 -70 -38 -70 -42 0 -4 9 -25 20 -47 11 -22 20
-44 20 -49 0 -30 -113 -100 -240 -151 -135 -53 -254 -126 -395 -244 -114 -96
-167 -119 -281 -124 -50 -2 -129 1 -175 7 -86 11 -150 3 -165 -21 -4 -7 -3 -8
4 -4 8 5 12 0 12 -13 0 -12 -6 -21 -14 -21 -15 0 -117 53 -161 83 -23 17 -46
22 -109 23 -63 1 -82 4 -92 19 -24 33 -98 -4 -87 -45 5 -19 1 -20 -59 -20 -52
0 -68 4 -83 20 -12 13 -31 20 -57 20 -33 0 -47 8 -90 47 -77 72 -111 168 -74
206 13 13 11 27 -14 111 -52 174 -55 204 -26 306 23 79 25 94 15 138 -11 44
-16 52 -55 71 l-44 21 -40 -79 c-39 -78 -39 -79 -19 -96 18 -17 18 -19 3 -37
-41 -45 -75 1 -108 150 -14 61 -33 124 -43 139 l-18 27 -9 -33 c-8 -27 -4 -43
24 -100 l33 -68 -18 -58 c-10 -32 -30 -71 -43 -87 -22 -26 -27 -28 -40 -14
-18 17 -19 41 -7 181 8 99 7 101 -25 180 -38 92 -93 165 -123 165 -20 0 -19
-2 6 -28 24 -25 25 -29 11 -44 -14 -14 -13 -23 11 -101 l27 -85 -9 -253 -8
-253 1311 -1715 1311 -1716 1179 -157 c648 -86 2165 -288 3369 -448 1205 -160
2204 -293 2221 -296 29 -5 36 0 120 100 49 57 96 107 105 111 13 4 19 25 24
88 4 45 13 97 20 117 14 42 11 145 -5 182 -11 23 -10 31 9 61 25 40 27 74 6
104 -23 33 -45 141 -34 170 5 13 9 45 10 71 0 26 4 56 8 67 5 12 3 32 -5 50
-12 28 -10 32 14 58 24 25 25 30 14 59 -7 20 -8 37 -2 49 6 10 10 33 10 53 0
51 15 83 81 168 44 56 97 155 209 383 l150 307 25 -16 c13 -9 26 -16 28 -16
17 0 56 87 66 145 7 39 24 90 38 115 41 72 123 193 149 220 12 14 35 48 50 75
14 28 46 76 70 108 l44 59 0 108 c0 127 -7 151 -63 208 l-42 43 -5 162 c-5
143 -8 168 -29 210 -13 27 -30 51 -37 54 -8 3 -14 14 -14 25 0 11 -10 37 -21
58 -12 21 -19 45 -16 52 3 8 52 35 110 61 58 25 134 67 169 93 77 56 96 66
178 94 35 12 85 32 111 46 38 19 64 24 122 24 77 0 92 -6 120 -51 18 -31 96
-72 111 -60 6 5 25 11 41 15 17 4 39 16 50 26 30 29 141 67 215 74 109 12 170
26 170 41 0 35 -56 165 -91 210 l-38 50 6 77 c5 70 4 78 -13 85 -10 3 -22 11
-25 16 -9 13 -209 -9 -255 -28 -57 -23 -84 -19 -185 33 -80 40 -94 51 -97 74
-3 22 4 30 46 54 40 22 54 37 70 76 14 32 31 54 55 68 42 25 45 35 53 167 6
90 5 103 -9 109 -11 4 -17 17 -17 36 0 20 -16 53 -46 96 -75 104 -116 197
-121 272 l-5 65 55 43 c31 24 63 53 73 63 17 19 16 21 -5 50 l-23 31 52 53
c49 49 52 56 45 87 -10 46 -11 130 -3 210 7 62 5 70 -17 96 -21 25 -25 44 -36
185 l-13 157 35 72 c57 119 56 118 161 118 l90 0 60 54 59 54 65 -18 c72 -21
144 -80 144 -118 0 -12 9 -23 21 -27 15 -5 19 -13 16 -28 -21 -84 -27 -148
-17 -167 6 -11 7 -20 3 -20 -7 0 -113 29 -162 45 -18 5 -21 2 -21 -24 0 -23
18 -53 69 -119 56 -70 132 -184 188 -280 5 -7 27 -17 51 -23 42 -9 47 -8 162
58 l118 67 6 60 c3 32 6 76 6 97 0 41 -3 39 90 59 68 15 98 33 102 62 2 19 9
23 40 23 40 0 77 28 124 96 l26 38 -41 57 c-22 31 -38 61 -35 66 4 6 21 8 39
5 28 -5 38 0 65 28 l33 34 -14 108 c-18 142 -17 374 3 603 9 102 19 225 22
274 6 95 7 93 -46 71 -25 -10 -27 31 -5 84 20 47 21 55 17 226 -2 61 1 137 5
170 6 52 4 65 -14 95 -11 19 -24 57 -27 83 -5 35 -13 53 -30 64 -32 20 -114
44 -114 33 0 -22 -31 -8 -45 20 -11 21 -23 30 -40 30 -25 0 -29 -7 -25 -47 2
-27 -22 -30 -60 -8 -14 8 -51 14 -82 15 -69 0 -74 6 -112 128 l-26 83 21 41
c14 28 19 52 16 77 -22 169 -32 218 -48 240 -22 28 -17 58 17 111 12 19 26 52
29 72 4 20 16 44 26 54 25 22 24 65 -1 114 -25 49 -25 53 2 65 13 6 28 28 36
54 13 39 13 47 -2 71 -9 16 -16 41 -16 57 0 30 -64 173 -77 173 -4 0 -30 -12
-58 -25z"/>
</g>
</svg>
