<?xml version="1.0" standalone="no"?>
<!DOCTYPE svg PUBLIC "-//W3C//DTD SVG 20010904//EN"
 "http://www.w3.org/TR/2001/REC-SVG-20010904/DTD/svg10.dtd">
<svg version="1.0" xmlns="http://www.w3.org/2000/svg"
 width="1280.000000pt" height="991.000000pt" fill-opacity="40%" viewBox="0 0 1280.000000 991.000000"
 preserveAspectRatio="xMidYMid meet">
<metadata>
Created by potrace 1.15, written by Peter Selinger 2001-2017
</metadata>
<g transform="translate(0.000000,991.000000) scale(0.100000,-0.100000)"
fill="#000000" stroke="none">
<path d="M6028 9883 c-26 -17 -38 -34 -42 -59 -9 -45 -30 -46 -23 -1 8 50 -3
60 -41 37 -24 -15 -38 -18 -51 -10 -26 14 -34 1 -15 -27 23 -36 11 -51 -16
-20 -27 31 -45 34 -54 11 -7 -18 18 -64 34 -64 6 0 10 -4 10 -10 0 -18 -26
-10 -60 20 -39 33 -81 38 -101 14 -12 -14 -8 -21 26 -50 22 -19 43 -34 46 -34
4 0 9 -7 13 -15 9 -23 -19 -18 -52 10 -20 17 -42 25 -67 25 -34 0 -37 -2 -31
-24 5 -19 1 -25 -17 -30 -22 -6 -22 -7 8 -31 31 -25 29 -29 -15 -25 -22 2 -23
0 -10 -16 12 -13 12 -18 3 -21 -7 -3 -13 -9 -13 -14 0 -14 60 -48 75 -43 15 6
40 -22 27 -30 -6 -3 -24 -1 -41 5 -18 6 -35 8 -39 5 -3 -4 4 -9 16 -13 30 -7
28 -23 -3 -23 -18 0 -29 8 -37 26 -7 14 -24 32 -39 40 -47 24 -76 15 -47 -14
9 -9 7 -16 -7 -32 -21 -24 -22 -23 33 -39 23 -6 42 -16 42 -20 0 -12 -49 -20
-56 -9 -3 5 -12 4 -20 -3 -11 -9 -18 -9 -26 -1 -19 19 -60 15 -57 -5 3 -34 -1
-41 -31 -47 -19 -3 -34 -15 -42 -31 -15 -34 1 -52 30 -34 27 17 37 7 21 -20
-23 -36 -1 -35 41 3 40 36 60 42 67 20 2 -6 -15 -18 -37 -27 -43 -17 -49 -27
-25 -47 20 -16 10 -30 -16 -23 -25 7 -23 -14 4 -31 26 -17 107 22 136 66 26
41 45 41 35 1 l-7 -26 48 27 c62 34 85 19 27 -17 -53 -34 -82 -73 -82 -112 0
-31 1 -32 48 -31 l47 1 1 40 c1 56 3 62 14 45 7 -12 12 -11 30 5 16 14 23 16
32 7 9 -9 7 -16 -10 -28 -23 -16 -30 -44 -10 -44 6 0 27 17 46 38 34 35 35 40
37 119 1 57 7 89 19 107 32 49 49 24 21 -30 -16 -31 -19 -53 -9 -77 5 -13 9
-13 34 1 22 13 32 14 41 5 8 -8 4 -16 -17 -29 -31 -19 -54 -43 -54 -55 0 -4
12 -9 28 -11 l27 -3 -31 -20 c-17 -11 -54 -37 -83 -58 l-51 -39 57 -69 c31
-38 62 -69 68 -69 6 0 20 7 31 15 37 28 50 15 16 -15 -18 -17 -39 -30 -47 -30
-8 0 -39 24 -69 54 -69 69 -103 87 -150 79 -43 -7 -50 -15 -42 -49 4 -15 14
-24 26 -24 26 0 37 -21 16 -32 -24 -14 -19 -28 14 -39 17 -6 44 -31 64 -59 19
-26 48 -56 65 -66 42 -25 39 -38 -6 -29 -33 6 -35 5 -24 -9 18 -21 79 -12 103
15 9 10 21 19 28 19 20 0 6 -44 -18 -56 -22 -11 -23 -12 -3 -17 13 -3 21 -13
21 -26 0 -26 -2 -26 -42 -1 -21 12 -51 20 -80 20 -39 0 -50 -4 -72 -31 -16
-19 -25 -41 -24 -57 1 -15 -4 -37 -10 -48 -9 -17 -9 -24 3 -34 7 -6 15 -21 17
-33 3 -18 8 -13 28 26 13 26 28 47 32 47 10 0 10 2 -1 -37 -7 -22 -6 -35 1
-39 19 -12 38 29 38 83 0 29 4 53 9 53 11 0 21 -25 21 -55 0 -15 8 -25 23 -29
20 -6 20 -8 4 -14 -10 -4 -24 -20 -32 -35 -13 -26 -13 -28 4 -22 11 3 23 0 27
-7 4 -6 2 -14 -4 -16 -7 -2 -12 -13 -12 -24 0 -15 4 -18 21 -13 18 6 20 4 15
-13 -4 -11 -2 -23 4 -27 19 -12 37 14 44 63 8 59 21 81 37 65 8 -8 7 -25 -5
-68 -10 -31 -14 -65 -11 -76 5 -14 2 -19 -12 -19 -10 0 -28 -7 -40 -15 -30
-21 -48 -11 -83 46 -34 56 -67 74 -105 57 -47 -21 -38 -78 13 -78 9 0 12 -9
10 -27 -2 -22 1 -27 14 -25 9 1 22 -7 29 -19 10 -19 9 -25 -7 -36 -10 -7 -26
-13 -36 -13 -21 0 -53 -47 -69 -101 -10 -32 -9 -41 7 -63 22 -29 34 -33 34
-10 0 11 5 14 16 10 15 -6 14 4 -3 50 -2 7 0 15 6 18 6 4 16 -13 24 -41 17
-57 37 -69 37 -21 l0 33 18 -23 c20 -26 32 -20 32 14 0 30 10 54 22 54 5 0 8
-15 7 -33 -4 -45 6 -57 51 -57 43 0 64 18 31 27 -19 5 -22 9 -21 31 1 4 10 6
20 4 15 -2 20 3 20 17 0 25 8 26 32 4 20 -18 25 -4 8 28 -8 15 -7 19 4 19 8 0
20 -13 28 -30 7 -17 21 -30 30 -30 27 0 22 37 -7 56 -14 9 -25 20 -25 25 0 17
31 9 53 -15 17 -18 26 -21 39 -13 27 17 51 -10 45 -50 -3 -18 -1 -35 4 -39 13
-8 78 65 79 88 0 32 12 48 37 48 22 0 24 3 18 33 -14 66 -55 117 -55 68 0 -12
-5 -21 -11 -21 -23 0 -49 22 -49 41 0 18 -5 19 -52 13 -29 -3 -63 -13 -76 -21
-27 -17 -49 -8 -31 13 9 11 9 21 0 40 -6 14 -11 29 -11 34 0 18 26 10 50 -15
29 -31 57 -32 101 -2 33 22 34 25 34 90 1 66 0 68 -22 62 -16 -4 -23 -1 -23 9
0 8 14 18 32 21 35 8 94 60 79 69 -5 4 -16 3 -25 0 -8 -3 -20 -3 -26 1 -15 9
7 35 31 35 10 0 21 5 25 12 10 16 -24 38 -59 38 -37 0 -31 23 8 30 38 7 40 20
10 53 -21 22 -30 25 -45 17 -14 -8 -21 -6 -28 5 -14 27 -42 6 -54 -41 -14 -50
-28 -58 -28 -14 0 17 -7 33 -17 38 -15 9 -14 10 3 20 18 10 26 12 41 12 4 0
-2 6 -13 14 -18 14 -18 15 9 21 16 4 39 3 54 -4 47 -22 84 9 47 40 -12 10 -20
10 -35 1 -10 -7 -26 -12 -35 -12 -9 0 -28 -7 -44 -16 -16 -10 -35 -14 -45 -10
-17 6 -17 8 3 26 12 11 31 21 44 21 20 1 21 2 3 6 -44 11 -37 23 13 23 40 0
52 4 52 15 0 8 8 15 18 15 9 0 23 12 29 27 16 33 5 43 -49 43 -27 0 -38 4 -38
15 0 29 42 29 111 1 22 -10 61 61 40 73 -8 5 -12 18 -8 30 7 28 -13 39 -29 17
-16 -22 -48 -17 -52 8 -3 15 1 18 16 14 12 -4 31 4 48 18 21 17 24 23 13 24
-9 0 -28 9 -43 21 -32 25 -24 47 10 25 40 -27 47 -21 38 37 -4 28 -7 61 -6 72
1 11 2 49 2 84 0 35 5 72 11 83 5 10 7 23 4 29 -10 16 -35 -10 -55 -56 -20
-47 -46 -73 -60 -59 -6 6 -4 20 5 38 20 38 19 43 -5 21 -19 -17 -20 -17 -30 9
-13 36 -13 36 13 36 29 0 63 35 59 60 -2 13 4 19 20 22 15 2 22 9 20 20 -1 10
5 32 13 49 14 26 15 38 5 80 -7 29 -21 55 -33 64 -29 20 -32 19 -46 -11 l-12
-26 -24 26 c-13 14 -25 32 -27 39 -2 11 -11 9 -40 -10z"/>
<path d="M5220 9186 c0 -8 10 -16 22 -18 28 -4 36 -28 9 -28 -12 0 -21 -6 -21
-15 0 -9 -8 -14 -21 -12 -12 1 -26 -6 -33 -16 -9 -15 -7 -22 12 -35 49 -35 87
-71 81 -76 -3 -3 -20 -1 -38 5 -17 6 -39 8 -47 5 -15 -6 -15 -8 0 -24 22 -25
20 -32 -10 -32 -41 0 -23 -24 27 -35 34 -8 44 -14 41 -27 -4 -20 -28 -23 -68
-8 -35 14 -53 -7 -25 -30 10 -8 21 -27 25 -42 7 -30 24 -35 58 -17 34 19 34
-2 0 -31 -36 -30 -39 -55 -10 -74 14 -9 21 -6 33 12 21 29 38 29 30 0 -5 -19
-2 -17 20 10 26 31 55 43 55 22 0 -6 11 -8 25 -4 34 8 32 -9 -2 -24 -25 -10
-22 -10 22 -6 l50 5 -28 -25 c-20 -18 -39 -26 -66 -26 -26 0 -44 -7 -59 -23
-22 -23 -22 -24 -4 -40 10 -9 24 -17 32 -17 10 0 10 -3 0 -15 -20 -24 -2 -37
41 -30 31 5 39 4 39 -8 0 -8 -9 -17 -20 -20 -29 -8 -25 -21 18 -51 55 -37 103
-35 81 5 -11 22 9 27 29 7 16 -16 15 1 -3 32 -8 14 -14 31 -15 38 0 24 16 11
40 -33 36 -66 54 -57 29 14 -13 38 -6 49 18 30 14 -12 16 -12 11 1 -32 88 -39
123 -29 133 7 7 12 5 17 -9 3 -10 9 -28 14 -39 7 -17 9 -16 10 10 0 19 11 41
31 59 50 50 52 106 4 106 -17 0 -25 6 -25 17 0 15 -1 15 -18 0 -28 -25 -35
-21 -29 19 4 24 2 37 -7 40 -8 3 -11 15 -8 30 3 20 0 24 -18 24 -18 0 -21 4
-17 21 7 25 -11 69 -29 69 -22 0 -24 -31 -4 -57 22 -28 25 -43 10 -43 -22 0
-50 41 -50 75 0 33 -2 34 -28 29 -27 -5 -32 -1 -70 63 -23 38 -42 74 -42 80 0
5 -8 17 -18 26 -23 21 -72 23 -72 3z"/>
<path d="M5516 9154 c-11 -8 -31 -14 -45 -14 -50 0 -57 -15 -23 -49 41 -42 57
-39 77 13 21 53 17 70 -9 50z"/>
<path d="M4997 8863 c-14 -14 -6 -42 14 -48 11 -4 24 -18 29 -31 12 -31 30
-31 30 0 0 46 -21 86 -44 86 -13 0 -26 -3 -29 -7z"/>
<path d="M4774 8655 c-3 -14 -3 -42 1 -62 6 -31 8 -34 16 -20 14 24 29 21 29
-6 0 -13 6 -29 12 -35 10 -10 10 -15 -2 -23 -11 -8 -12 -12 -2 -16 6 -2 12
-12 12 -20 0 -10 -5 -13 -17 -8 -58 24 -79 6 -48 -41 15 -24 18 -24 34 -10 22
20 57 21 65 1 3 -8 17 -15 31 -15 31 0 65 -33 65 -63 0 -33 33 -61 63 -53 37
9 41 59 10 105 -18 26 -23 44 -19 65 7 32 -25 86 -50 86 -8 0 -19 11 -24 25
-12 32 -39 44 -52 22 -16 -29 -28 -19 -28 22 0 30 -6 44 -22 55 -35 25 -67 20
-74 -9z"/>
<path d="M4421 8539 c-52 -18 -75 -35 -66 -50 3 -3 15 -4 28 -2 14 3 29 -2 36
-11 11 -13 17 -14 28 -4 10 8 17 8 21 1 11 -16 71 -21 83 -7 18 22 -30 95 -60
93 -9 -1 -40 -10 -70 -20z"/>
<path d="M5096 8531 c-9 -14 0 -84 13 -109 7 -13 23 -27 37 -32 26 -10 33 -30
9 -30 -18 0 -19 -8 -2 -43 13 -28 22 -33 32 -17 3 5 12 7 20 4 8 -4 24 6 37
21 19 21 22 35 19 76 -3 44 -7 52 -31 62 -15 7 -39 27 -54 45 -27 31 -68 43
-80 23z"/>
<path d="M4224 8415 c-8 -21 10 -70 27 -72 8 -2 21 1 29 6 12 9 12 14 -3 45
-17 37 -43 47 -53 21z"/>
<path d="M4360 8378 c-55 -30 -43 -159 13 -144 12 3 39 6 60 6 30 0 40 5 49
25 10 22 8 28 -11 46 -27 25 -18 42 19 34 29 -6 50 9 34 25 -16 16 -137 22
-164 8z"/>
<path d="M4088 8345 c-14 -30 -21 -31 -58 -4 -36 27 -60 21 -125 -30 -27 -22
-63 -46 -80 -54 -16 -8 -36 -21 -43 -30 -9 -10 -24 -14 -45 -11 -24 4 -39 -1
-62 -20 -25 -22 -28 -27 -15 -36 13 -8 13 -11 1 -19 -21 -14 -3 -32 25 -25 20
5 26 2 31 -15 7 -29 21 -26 35 7 12 26 13 26 16 -20 3 -43 6 -48 28 -48 22 0
28 9 25 37 -2 18 20 27 29 12 12 -18 36 4 50 46 8 26 15 32 30 28 13 -4 20
-14 20 -30 0 -28 17 -63 30 -63 5 0 16 13 24 29 10 18 26 30 46 34 27 6 30 10
30 42 0 25 4 35 16 35 12 0 15 6 10 25 -5 21 -2 27 19 35 35 13 40 33 19 69
-22 38 -41 39 -56 6z"/>
<path d="M4888 8298 c-9 -25 4 -38 39 -38 34 0 35 1 21 23 -17 25 -53 34 -60
15z"/>
<path d="M4706 8282 c-4 -6 -2 -20 4 -31 5 -11 10 -35 10 -54 0 -36 30 -74 49
-62 14 8 14 42 1 50 -5 3 -10 17 -10 30 0 29 -44 83 -54 67z"/>
<path d="M5273 8283 c-53 -5 -75 -34 -47 -64 28 -31 134 -22 134 12 0 10 5 21
10 24 6 3 10 13 10 21 0 14 -13 15 -107 7z"/>
<path d="M5486 8274 c-11 -27 -7 -42 20 -73 21 -25 29 -29 45 -21 27 15 24 56
-6 85 -28 29 -50 32 -59 9z"/>
<path d="M4193 8154 c-17 -13 -17 -15 6 -34 28 -24 57 -26 65 -4 13 34 -40 62
-71 38z"/>
<path d="M4795 8110 c4 -6 11 -8 16 -5 14 9 11 15 -7 15 -8 0 -12 -5 -9 -10z"/>
<path d="M5211 8081 c-17 -13 -20 -20 -11 -26 6 -4 10 -16 7 -26 -6 -23 93
-129 120 -129 10 0 33 9 52 21 18 11 37 17 41 12 4 -4 23 -37 41 -73 31 -59
34 -72 31 -137 -2 -64 0 -73 18 -83 13 -7 20 -21 20 -39 0 -28 39 -81 60 -81
5 0 10 14 10 30 0 17 5 30 10 30 6 0 10 -7 10 -15 0 -19 55 -47 83 -43 14 2
23 11 25 27 8 51 52 69 52 22 0 -58 23 -79 50 -46 8 10 21 13 33 9 11 -3 23
-1 27 6 4 7 22 13 38 14 24 1 32 7 37 26 6 24 7 24 21 6 12 -17 14 -18 14 -3
0 19 16 23 22 5 6 -18 56 -1 69 23 8 16 8 28 0 47 -16 34 -3 42 20 12 36 -47
40 -50 69 -50 17 0 34 8 42 18 7 10 27 25 43 33 22 11 29 21 27 38 -1 13 5 35
14 49 19 30 5 53 -21 32 -23 -19 -28 -6 -11 29 9 16 16 39 16 49 0 22 -22 44
-38 40 -6 -2 -17 6 -26 17 -13 17 -17 18 -36 7 -19 -12 -24 -11 -37 7 -20 29
-50 26 -90 -9 -20 -18 -41 -29 -51 -26 -21 7 -36 -2 -50 -30 -6 -12 -30 -31
-52 -42 -34 -17 -38 -21 -25 -32 8 -7 15 -19 15 -26 0 -22 -54 -17 -76 7 -15
16 -20 18 -29 7 -18 -23 -61 -21 -74 4 -11 21 -11 21 -6 -9 5 -37 1 -39 -38
-20 -31 14 -33 20 -12 37 23 19 18 40 -10 40 -16 0 -25 6 -25 15 0 21 -24 19
-45 -5 -18 -20 -45 -27 -45 -12 0 5 7 17 15 28 20 26 19 31 -11 38 -14 4 -23
12 -21 19 2 7 11 10 18 8 44 -11 97 -12 104 -1 12 20 -13 35 -72 40 -63 6 -88
30 -31 30 31 1 32 1 14 15 -31 24 -70 18 -125 -19 l-50 -34 6 29 c8 42 -4 81
-25 77 -9 -1 -28 5 -42 15 -32 22 -79 21 -109 -2z"/>
<path d="M4476 8072 c-3 -3 -6 -18 -6 -33 0 -17 -12 -42 -29 -61 l-29 -34 24
-39 c25 -42 31 -102 14 -136 -13 -23 -38 -25 -46 -4 -4 9 -19 15 -38 15 -30 0
-56 15 -56 32 0 4 9 8 20 8 16 0 20 7 20 30 0 34 -6 36 -38 14 -22 -15 -22
-15 -22 31 0 25 -7 60 -16 76 -12 25 -20 30 -39 25 -19 -5 -25 -1 -34 24 -10
31 -25 38 -36 19 -5 -7 -14 -4 -26 7 -15 14 -22 15 -31 6 -10 -10 -10 -17 0
-32 16 -25 15 -31 -2 -24 -7 3 -33 -5 -56 -17 l-43 -23 29 -23 29 -23 -28 0
c-58 0 -91 -40 -44 -55 20 -7 19 -8 -10 -14 -38 -7 -73 -34 -73 -56 0 -21 45
-48 68 -41 12 4 25 -1 37 -14 24 -26 43 -25 87 5 42 28 49 30 66 13 9 -9 6
-17 -15 -33 -18 -15 -24 -27 -20 -39 6 -15 10 -15 34 -3 61 31 133 32 133 2 0
-19 -22 -24 -132 -27 -54 -2 -98 -7 -98 -11 0 -5 5 -17 10 -28 9 -16 7 -21
-15 -29 -35 -13 -27 -32 21 -48 21 -7 45 -19 53 -26 11 -12 17 -12 40 0 14 7
47 16 74 19 42 6 47 9 47 31 0 24 23 34 35 14 11 -18 38 -11 67 17 23 22 30
24 43 13 8 -7 21 -10 30 -7 8 4 19 -1 24 -11 9 -15 11 -15 29 1 17 16 23 17
42 5 19 -11 23 -11 28 2 3 8 19 28 36 45 19 19 29 38 27 53 -1 13 5 34 13 47
20 30 21 69 1 85 -19 16 -95 26 -95 12 0 -6 5 -14 10 -17 18 -11 11 -45 -8
-45 -18 0 -82 50 -82 64 0 3 11 11 25 16 29 11 31 22 10 40 -18 15 -19 52 -3
96 9 24 9 39 1 57 -11 23 -46 41 -57 29z"/>
<path d="M4940 8035 c-14 -16 -10 -18 14 -9 9 3 16 10 16 15 0 14 -16 11 -30
-6z"/>
<path d="M3904 8000 c-77 -41 -79 -43 -64 -79 19 -48 37 -41 104 42 53 64 38
78 -40 37z"/>
<path d="M4754 7995 c-8 -20 13 -45 37 -45 29 0 34 22 9 42 -27 22 -39 23 -46
3z"/>
<path d="M5086 7992 c-3 -3 -6 -13 -6 -23 0 -28 -20 -33 -37 -10 -20 29 -67
25 -71 -5 -2 -14 5 -24 25 -33 26 -12 26 -14 10 -26 -16 -12 -16 -13 2 -18 14
-3 18 -11 14 -26 -3 -12 0 -28 7 -36 7 -9 10 -18 7 -21 -14 -14 -45 20 -75 80
-34 69 -40 74 -60 54 -17 -17 -15 -38 4 -38 12 0 15 -6 10 -26 -5 -17 -2 -32
8 -43 17 -19 25 -57 11 -54 -5 1 -18 5 -27 8 -12 5 -18 2 -18 -7 0 -8 -11 -20
-25 -26 -14 -6 -25 -18 -25 -27 0 -8 2 -15 4 -15 8 0 151 30 169 36 26 8 21
-19 -8 -44 -16 -14 -23 -27 -18 -35 4 -7 8 -30 8 -51 l0 -40 67 -1 c62 -2 68
0 87 25 19 27 19 28 2 44 -16 14 -17 21 -7 41 6 14 17 25 24 25 17 0 15 20 -4
41 -14 15 -14 23 -4 55 10 31 10 46 -6 97 -17 56 -56 112 -68 99z"/>
<path d="M4777 7889 c-14 -8 -15 -14 -7 -24 14 -17 70 0 70 21 0 16 -37 18
-63 3z"/>
<path d="M3344 7828 c-4 -12 -7 -52 -6 -88 l1 -65 -61 -57 c-52 -48 -60 -60
-54 -82 6 -26 0 -31 -31 -27 -7 1 -13 -2 -13 -6 0 -14 -121 -158 -138 -165
-13 -5 -10 -9 15 -18 18 -7 31 -16 28 -21 -3 -4 7 -27 22 -50 25 -37 28 -54
31 -133 2 -50 7 -95 11 -99 12 -13 101 14 122 36 l19 21 0 -22 c0 -19 6 -22
40 -22 44 0 80 27 80 60 0 11 10 40 22 64 19 40 25 44 48 40 22 -5 30 0 51 30
13 20 40 43 59 51 19 9 42 20 50 24 8 4 61 22 118 40 57 18 105 38 108 45 7
18 -74 226 -99 254 -11 12 -30 22 -41 22 -11 0 -31 -10 -44 -22 l-24 -23 6 22
c13 43 -14 34 -34 -11 -10 -25 -24 -46 -30 -46 -14 0 -13 5 10 50 l20 39 -29
54 c-15 30 -30 59 -32 65 -2 6 -40 21 -84 33 -128 34 -132 34 -141 7z"/>
<path d="M4804 7825 c-26 -19 1 -20 36 0 23 13 23 14 4 15 -11 0 -29 -7 -40
-15z"/>
<path d="M5324 7829 c-10 -17 23 -46 37 -32 7 7 9 19 6 27 -7 18 -33 21 -43 5z"/>
<path d="M4823 7785 c-10 -27 6 -30 30 -7 l21 22 -22 0 c-12 0 -25 -7 -29 -15z"/>
<path d="M5306 7711 c-10 -11 -15 -24 -12 -29 3 -5 -9 -31 -26 -57 l-32 -48
35 -28 c19 -16 46 -32 62 -35 15 -4 27 -13 27 -21 0 -24 27 -25 70 -3 38 19
41 24 35 48 -5 15 -11 46 -15 68 -9 57 -63 124 -99 124 -15 0 -36 -9 -45 -19z"/>
<path d="M4737 7630 c-18 -30 -18 -30 7 -41 37 -17 60 -5 51 28 -6 25 -21 42
-35 43 -3 0 -14 -13 -23 -30z"/>
<path d="M6450 7605 c-25 -17 -50 -24 -84 -24 -45 -1 -48 -2 -41 -23 4 -13 9
-35 12 -51 4 -20 13 -29 35 -35 19 -5 36 -20 51 -47 13 -22 34 -44 49 -49 23
-8 30 -4 64 31 32 33 48 41 89 47 28 3 61 13 73 22 l22 15 -47 45 c-52 48
-135 94 -167 93 -12 0 -37 -11 -56 -24z"/>
<path d="M6165 7505 l-49 -45 22 -16 c31 -21 28 -31 -8 -26 -31 4 -38 -6 -18
-26 19 -19 0 -27 -20 -9 -19 17 -32 14 -32 -9 0 -14 51 -34 87 -34 15 0 22 -4
17 -11 -4 -7 -21 -9 -44 -5 -42 7 -73 -1 -64 -15 3 -5 15 -9 27 -9 12 -1 38
-9 57 -20 l35 -19 -28 -1 c-15 0 -42 7 -59 16 -17 9 -34 12 -39 7 -11 -11 23
-121 39 -128 7 -3 22 0 32 5 25 13 49 3 43 -18 -2 -11 7 -26 26 -40 17 -12 31
-27 31 -32 0 -17 -25 -11 -60 15 -42 31 -50 31 -50 2 0 -13 -5 -28 -11 -34
-14 -14 54 -73 87 -73 27 0 39 -22 50 -90 6 -37 5 -38 -27 -45 -21 -5 -49 -23
-71 -47 -44 -48 -72 -43 -32 5 15 18 42 43 60 56 19 13 34 28 34 33 0 5 -15
15 -32 23 -41 17 -113 90 -127 128 -6 16 -11 43 -11 62 0 24 -8 40 -29 58 -29
24 -29 24 -24 113 5 74 11 99 36 147 35 67 30 77 -38 77 -100 0 -193 -138
-195 -290 0 -30 -7 -66 -15 -80 -20 -35 -18 -63 6 -94 18 -23 19 -30 8 -61
-12 -31 -11 -36 6 -49 14 -10 19 -24 17 -48 -2 -18 1 -46 7 -60 9 -24 14 -26
68 -26 32 0 68 5 80 10 16 8 27 6 44 -6 13 -9 31 -16 41 -16 10 0 18 -7 18
-15 0 -20 -74 -41 -103 -29 -12 5 -35 8 -50 6 -23 -3 -27 -7 -21 -25 3 -12 14
-31 24 -42 10 -11 22 -30 29 -41 6 -13 26 -26 48 -31 28 -7 37 -14 35 -26 -4
-23 15 -21 28 3 6 11 17 20 25 20 8 0 15 7 15 16 0 11 6 14 20 9 13 -4 22 -1
26 9 9 24 22 19 17 -7 -6 -32 40 -87 73 -87 13 0 24 5 24 10 0 6 -4 10 -10 10
-18 0 -11 29 10 40 15 8 26 7 43 -2 31 -18 99 -18 119 0 17 15 70 13 126 -4
18 -5 22 -2 22 15 0 23 -18 33 -87 51 -47 12 -58 30 -18 30 31 0 150 -47 166
-66 13 -16 39 -19 39 -3 0 5 -20 19 -45 30 -77 34 -48 55 63 45 71 -7 114 6
120 35 5 24 -37 69 -64 69 -13 0 -24 3 -24 8 1 14 27 42 34 35 14 -14 76 -30
99 -26 21 4 27 -1 42 -41 19 -50 23 -53 39 -31 14 19 56 9 56 -15 0 -12 16
-22 51 -33 28 -10 59 -17 69 -17 23 0 52 -34 44 -53 -3 -9 -21 -21 -40 -27
-19 -7 -33 -15 -31 -18 2 -4 10 -22 17 -39 8 -18 18 -33 23 -33 4 0 19 25 33
55 24 51 28 55 60 55 19 0 34 -3 34 -7 0 -5 16 -19 35 -31 38 -27 61 -22 45 8
-7 13 -7 21 1 26 16 10 39 -24 39 -58 0 -27 2 -28 53 -28 48 0 54 -3 70 -30
10 -16 22 -30 28 -30 9 0 100 -87 127 -122 11 -14 11 -22 -2 -47 -20 -38 -20
-55 -1 -75 12 -11 22 -13 40 -6 14 5 25 6 25 1 0 -5 -18 -16 -40 -25 -30 -12
-41 -23 -45 -43 -3 -16 -14 -54 -25 -87 -11 -32 -17 -62 -14 -67 2 -4 32 -20
65 -35 53 -24 89 -54 89 -75 0 -4 -13 -9 -28 -12 -17 -3 -33 -16 -39 -31 -7
-13 -21 -27 -32 -31 -12 -3 -24 -17 -27 -31 -4 -16 -15 -26 -33 -30 -14 -3
-34 -9 -43 -15 -10 -5 -32 -9 -50 -9 -44 0 -108 -19 -108 -31 0 -6 5 -19 11
-30 8 -16 7 -25 -5 -37 -42 -48 -38 -112 11 -164 48 -50 146 -32 211 40 28 30
32 40 23 54 -10 17 -6 18 53 18 77 0 91 14 50 47 -16 13 -35 28 -42 34 -15 12
-12 31 7 37 7 2 15 -5 18 -17 5 -22 37 -29 48 -11 11 18 23 11 34 -20 13 -39
23 -38 19 2 -2 24 1 33 15 36 12 3 17 -3 17 -21 0 -19 5 -25 23 -25 52 0 133
-16 140 -29 11 -18 27 -7 27 18 0 10 2 19 5 19 10 0 61 -25 67 -34 4 -6 12 -5
21 2 19 16 26 6 18 -26 -4 -15 -17 -31 -29 -37 -23 -10 -30 -25 -12 -25 6 0
19 -9 30 -20 15 -15 39 -21 112 -26 112 -8 119 -8 137 -3 8 2 20 -7 27 -20 7
-14 23 -26 36 -29 48 -8 133 -10 143 -3 20 15 122 41 185 46 92 9 110 13 110
30 0 8 -5 15 -10 15 -6 0 -15 11 -20 25 -8 20 -14 24 -37 19 -22 -4 -34 0 -52
20 -17 18 -35 26 -57 26 -19 0 -49 9 -69 20 -28 16 -40 18 -56 9 -17 -9 -25
-7 -44 11 -13 12 -28 19 -34 16 -5 -4 -26 5 -47 19 -21 14 -49 28 -63 32 -27
7 -70 34 -71 44 0 13 56 29 87 24 18 -2 45 -11 62 -19 46 -24 50 -19 11 13
-19 16 -32 32 -29 36 4 3 35 -8 70 -25 73 -35 69 -34 69 -15 0 18 16 20 26 3
5 -7 10 -4 16 11 8 23 8 23 33 -7 14 -17 25 -35 25 -42 0 -6 6 -10 13 -7 6 2
11 10 10 18 -4 21 69 20 84 0 13 -18 29 -8 35 24 3 17 10 19 43 17 l39 -3 -39
35 c-21 20 -43 36 -48 36 -4 0 -6 8 -2 19 3 12 0 21 -10 25 -18 7 -20 56 -2
56 6 0 25 -14 40 -32 17 -19 26 -25 23 -15 -3 10 -6 24 -6 30 -1 26 -40 59
-72 60 -31 2 -33 4 -33 40 0 20 -2 37 -3 37 -2 0 -16 -7 -32 -16 -34 -21 -82
-12 -79 14 5 54 -1 59 -52 38 -11 -5 -18 -1 -21 12 -3 11 -15 25 -28 32 -19
10 -22 9 -27 -9 -4 -16 -9 -19 -23 -11 -10 6 -36 10 -58 10 -48 0 -103 26
-110 52 -3 13 -10 17 -23 13 -13 -4 -19 -1 -19 9 0 23 -31 20 -37 -4 -3 -11
-9 -20 -13 -20 -5 0 -12 9 -15 20 -3 11 -15 20 -25 20 -21 0 -63 48 -54 62 3
5 13 3 23 -6 22 -20 45 -20 61 -1 17 21 6 43 -27 51 -15 4 -46 16 -68 28 l-40
21 49 5 c47 5 49 6 33 22 -11 11 -13 19 -7 23 8 5 7 11 -1 21 -9 11 -7 14 9
14 12 0 24 -4 27 -10 3 -5 14 -10 23 -10 10 0 23 -9 30 -20 27 -43 72 -14 72
46 0 47 19 13 22 -40 2 -27 8 -51 15 -53 17 -6 43 62 43 113 0 24 4 44 9 44
14 0 22 -89 10 -112 -18 -33 -3 -61 43 -83 24 -11 48 -18 54 -17 6 1 17 -5 24
-13 19 -23 43 -19 35 5 -5 16 -3 19 12 13 10 -3 22 -8 27 -11 12 -6 86 -11 86
-6 0 10 -70 114 -90 134 -24 24 -19 40 13 40 12 0 31 7 41 15 18 14 18 16 3
33 -10 10 -14 22 -11 25 4 4 1 13 -6 22 -10 12 -10 18 0 30 17 20 4 35 -30 35
-19 0 -33 7 -40 19 -14 28 -13 33 9 26 57 -18 70 35 14 58 -39 16 -39 16 13
32 28 9 -2 32 -49 38 -23 2 -49 6 -57 8 -12 3 -14 -8 -12 -61 3 -67 0 -69 -34
-13 -11 17 -13 17 -32 -7 l-20 -24 -8 54 c-9 54 -28 67 -30 20 0 -18 -5 -24
-17 -22 -9 1 -24 -9 -33 -23 -15 -23 -19 -25 -32 -11 -13 12 -13 18 -2 30 10
13 9 19 -11 35 -52 43 -67 46 -92 23 -26 -25 -37 -20 -37 15 0 30 -17 29 -32
-2 -6 -14 -18 -25 -26 -25 -9 0 -12 -6 -9 -17 3 -10 9 -29 12 -43 6 -24 6 -24
-20 5 -18 20 -29 26 -32 18 -7 -19 -23 -15 -23 5 0 28 -87 27 -96 -1 -3 -10
-20 -32 -38 -47 -45 -42 -57 -20 -18 34 18 24 32 49 32 55 0 14 -47 14 -55 0
-4 -5 -12 -8 -18 -6 -7 2 -20 0 -30 -5 -24 -12 -34 -3 -18 16 10 12 8 16 -9
21 -12 4 -17 11 -13 18 4 7 6 22 4 35 -1 13 11 44 28 71 35 54 38 66 15 75
-28 11 -59 6 -89 -14 -28 -19 -101 -29 -93 -12 2 4 12 24 21 45 12 25 24 37
37 37 30 0 24 24 -15 59 -24 20 -46 31 -67 31 -27 0 -30 -2 -23 -22 13 -40 6
-81 -16 -102 l-21 -21 5 43 c4 30 1 42 -7 42 -20 0 -44 -32 -48 -65 l-4 -30
-13 27 c-13 26 -11 31 28 90 23 34 38 65 34 69 -5 4 -32 11 -60 15 -46 6 -54
4 -59 -12 -4 -11 -13 -26 -20 -34 -7 -8 -14 -26 -16 -40 -4 -22 -5 -23 -13 -7
-5 12 -2 31 8 53 23 47 -3 47 -28 0 -18 -33 -18 -48 0 -161 6 -38 5 -39 -9
-21 -9 11 -16 32 -16 48 0 15 -4 28 -10 28 -5 0 -10 -9 -10 -21 0 -24 -23 -21
-28 4 -2 10 8 41 23 70 25 52 26 74 2 105 -14 18 -37 -16 -31 -44 8 -33 -43
-86 -74 -78 -18 5 -22 12 -18 28 3 11 6 29 6 38 0 9 9 19 19 23 11 3 23 15 26
26 13 39 -44 75 -102 64 -29 -5 -34 -10 -39 -47 -7 -39 -8 -40 -41 -35 -30 5
-33 4 -28 -14 4 -10 2 -19 -4 -19 -14 0 -25 44 -18 70 6 23 -5 33 -27 24 -24
-9 -29 -40 -12 -73 9 -17 16 -40 15 -53 0 -15 -3 -18 -6 -8 -11 30 -44 70 -56
67 -19 -3 -8 36 14 55 12 10 19 27 17 40 -2 19 -9 23 -38 23 l-35 0 -5 -58
c-6 -65 -23 -81 -28 -24 -4 43 -7 45 -33 15 l-18 -23 -1 24 c0 14 14 36 37 57
36 33 36 34 17 55 -32 35 -53 43 -73 25 -11 -10 -21 -12 -31 -6 -39 25 -128 1
-150 -39 -17 -32 -1 -49 58 -66 32 -9 62 -18 67 -20 6 -2 -20 -4 -57 -4 -38
-1 -68 -5 -68 -10 0 -5 19 -20 43 -34 23 -14 50 -34 60 -45 18 -20 18 -20 -40
-18 -74 3 -83 9 -83 50 0 36 -26 70 -34 45 -14 -43 -15 -44 -21 -21 -13 42
-24 22 -27 -50 -2 -46 -7 -73 -15 -76 -7 -2 -13 3 -13 12 0 9 -5 16 -11 16 -6
0 -9 7 -6 15 4 8 2 17 -3 20 -7 4 -6 13 0 25 5 10 10 27 9 37 0 12 -6 6 -15
-14 -15 -34 -34 -44 -34 -18 0 8 8 37 19 64 l19 50 -24 22 c-12 12 -24 33 -26
47 -2 19 -11 28 -33 34 -22 5 -37 20 -55 55 -35 68 -67 70 -135 8z"/>
<path d="M1448 7227 c-128 -145 -299 -338 -380 -429 -110 -125 -633 -700 -920
-1012 -21 -23 -21 -26 -4 -121 l12 -69 47 -15 c51 -16 56 -25 30 -53 -13 -14
-13 -18 -2 -18 8 0 29 -9 47 -20 l33 -20 -20 -28 c-19 -25 -20 -34 -10 -137 5
-60 12 -117 14 -126 3 -9 -2 -35 -10 -59 -8 -23 -15 -43 -15 -44 0 0 33 -1 74
-1 51 0 80 5 92 15 44 35 58 38 114 26 48 -11 55 -16 62 -44 6 -22 4 -41 -5
-59 -10 -20 -11 -37 -5 -58 5 -16 10 -55 12 -85 1 -30 8 -81 15 -113 7 -33 10
-66 6 -75 -3 -9 -8 -80 -11 -157 -4 -91 -10 -147 -19 -161 -8 -12 -10 -26 -5
-34 5 -8 5 -19 0 -25 -14 -17 -5 -88 16 -123 10 -19 32 -50 47 -70 16 -20 31
-49 34 -65 3 -15 14 -32 24 -38 27 -14 23 -37 -11 -69 -17 -16 -37 -44 -45
-64 -14 -32 -14 -36 0 -36 8 0 15 -6 15 -12 0 -16 -94 -98 -112 -98 -7 0 -19
-9 -26 -20 -7 -11 -19 -20 -27 -20 -9 0 -16 -10 -16 -27 -2 -24 -2 -25 -6 -5
-5 26 -20 29 -27 5 -6 -21 -1 -67 9 -83 4 -6 -1 -20 -10 -30 -15 -16 -15 -27
-6 -91 7 -39 14 -76 17 -81 4 -5 20 4 36 21 18 18 41 31 55 31 13 0 33 5 43
10 35 19 35 -11 0 -40 -25 -21 -31 -31 -26 -48 4 -12 13 -22 20 -22 8 0 19 -7
26 -15 21 -26 -36 -19 -60 7 -18 19 -22 21 -30 8 -6 -8 -7 -22 -3 -30 4 -8 8
-40 8 -70 0 -41 4 -59 18 -70 17 -14 16 -17 -17 -49 -34 -33 -34 -34 -15 -54
10 -11 19 -26 19 -33 0 -7 8 -14 18 -17 15 -3 15 -5 -3 -11 -39 -14 -50 -23
-53 -44 -2 -11 -10 -26 -18 -32 -8 -7 -14 -24 -14 -37 0 -26 7 -27 53 -8 12 5
17 2 17 -9 0 -9 -17 -24 -37 -33 -50 -23 -48 -22 -35 -35 19 -19 14 -28 -18
-28 -16 0 -30 -4 -30 -10 0 -5 10 -10 23 -10 29 0 51 -15 43 -28 -3 -6 -2 -13
4 -17 5 -3 10 -11 10 -17 0 -6 -11 -3 -25 6 -34 22 -37 20 -17 -14 14 -25 21
-29 44 -24 21 4 34 -1 53 -20 14 -14 34 -30 45 -36 11 -6 20 -17 20 -25 0 -8
8 -18 17 -24 26 -14 7 -26 -22 -13 -15 7 -27 8 -30 2 -10 -16 2 -27 48 -48 72
-34 97 -42 125 -42 l27 0 -23 -18 c-28 -22 -20 -32 25 -32 18 0 33 -2 33 -5 0
-10 -60 -65 -70 -65 -19 0 -10 -36 18 -68 25 -30 30 -32 59 -23 18 5 35 6 37
2 10 -16 -7 -51 -25 -51 -26 0 -24 -23 4 -56 20 -23 26 -25 44 -15 12 6 29 8
37 5 19 -7 19 -9 4 -34 -11 -17 -10 -22 2 -30 12 -8 11 -11 -7 -16 -29 -8 -33
-54 -5 -54 10 0 22 -4 28 -9 13 -13 466 -160 689 -224 243 -70 565 -150 573
-143 3 3 10 2 16 -3 6 -5 90 -25 186 -45 96 -20 195 -41 220 -46 158 -34 636
-109 855 -134 560 -66 1105 -92 1685 -82 450 7 570 14 570 33 0 7 11 18 25 23
15 6 25 17 25 29 0 11 3 26 6 35 5 12 0 16 -20 16 -16 0 -26 6 -26 15 0 8 9
15 20 15 10 0 23 7 28 17 6 9 16 14 25 10 26 -10 29 8 6 37 -12 15 -18 34 -15
43 5 13 11 9 30 -18 13 -19 33 -43 45 -55 12 -12 21 -26 21 -32 0 -5 13 -15
29 -20 24 -8 28 -14 24 -36 -6 -32 -10 -32 -38 -2 -16 17 -30 23 -44 19 -34
-9 -19 -26 34 -44 55 -17 71 -39 30 -39 -32 0 -90 -51 -82 -73 4 -10 27 -17
69 -22 35 -4 71 -12 81 -17 46 -24 100 28 60 57 -17 13 -17 14 1 21 14 5 25 1
38 -17 18 -21 21 -22 29 -6 13 22 44 23 35 2 -4 -11 3 -20 22 -28 15 -6 41
-27 57 -46 27 -30 33 -33 53 -22 18 10 31 7 75 -14 74 -35 100 -32 154 18 22
20 24 20 62 2 29 -13 52 -16 81 -11 23 4 49 2 61 -4 45 -25 109 22 109 80 0
24 34 60 55 60 12 0 14 -7 9 -28 -4 -18 -3 -24 3 -17 14 14 33 73 33 101 0 15
6 24 15 24 18 0 21 -50 3 -68 -6 -6 -9 -15 -5 -18 9 -10 46 37 47 59 0 10 -5
28 -11 39 -17 32 1 37 91 22 66 -11 98 -11 142 -3 69 14 111 1 133 -40 7 -14
32 -45 54 -68 50 -51 97 -64 147 -39 19 9 46 16 59 16 21 0 24 -5 27 -42 3
-37 8 -44 43 -64 37 -20 40 -26 43 -69 3 -46 4 -46 35 -43 31 3 32 3 29 -38
-4 -49 4 -57 48 -44 28 8 35 6 50 -13 16 -19 28 -22 106 -23 58 0 112 6 155
18 48 13 97 18 182 17 104 -2 118 0 142 20 l28 21 41 -34 c23 -18 68 -47 101
-65 33 -18 74 -44 90 -59 17 -15 45 -38 63 -51 41 -28 42 -45 2 -36 -36 8 -38
0 -7 -33 l22 -24 -24 -19 c-24 -20 -51 -18 -103 6 -22 11 -29 10 -43 -4 -15
-15 -17 -15 -26 2 -6 9 -14 17 -19 17 -6 0 -18 7 -27 15 -53 46 -84 65 -107
65 -37 0 -32 -11 17 -42 24 -15 52 -43 62 -61 17 -32 17 -35 0 -71 -27 -57
-26 -103 6 -183 16 -39 29 -79 29 -88 0 -19 -43 -81 -77 -110 -22 -20 -23 -24
-13 -75 6 -30 18 -61 27 -67 27 -20 -9 -53 -59 -53 -36 0 -38 -2 -38 -30 0
-36 30 -55 68 -44 15 4 35 6 45 5 10 -1 17 4 17 14 0 9 21 35 46 58 25 23 62
66 81 95 20 29 43 56 52 61 9 5 61 14 116 21 96 11 133 20 87 20 -12 0 -22 4
-22 9 0 28 73 69 237 132 21 8 21 9 -13 44 -31 34 -35 35 -56 21 -30 -19 -114
-31 -122 -18 -9 15 29 92 66 134 19 22 80 62 147 97 107 57 119 61 182 61 62
0 67 2 71 23 4 22 2 24 -38 22 -23 0 -49 -7 -58 -14 -9 -8 -19 -11 -22 -9 -11
11 50 48 79 48 18 0 40 9 52 20 11 11 39 36 63 55 32 26 57 61 95 137 55 108
101 155 142 144 17 -5 179 54 240 87 11 6 26 12 34 13 7 2 38 12 67 25 45 17
53 25 49 40 -7 22 -2 24 24 7 15 -9 29 -7 72 12 62 26 71 36 64 70 -5 20 1 31
24 48 18 13 37 19 47 15 14 -5 16 -2 12 15 -4 12 -2 24 3 27 5 3 3 15 -4 25
-9 15 -9 24 0 39 17 27 9 84 -17 120 -16 23 -21 40 -16 61 3 16 -1 45 -9 64
-8 20 -15 54 -15 77 0 23 -9 74 -21 112 -29 97 -23 124 49 205 33 37 69 86 81
109 22 45 40 53 61 28 7 -8 20 -13 31 -12 22 4 59 36 59 52 0 55 110 37 169
-27 20 -23 43 -55 52 -72 44 -85 51 -96 60 -101 5 -4 16 -22 23 -40 14 -32 17
-34 50 -28 26 4 36 2 36 -8 0 -7 12 -26 27 -41 38 -40 88 -38 145 5 30 24 42
40 41 55 -2 17 3 22 21 22 30 0 63 44 95 125 14 33 32 70 42 83 10 13 16 29
13 36 -3 8 2 16 10 19 18 7 21 -9 7 -45 -4 -13 -11 -36 -15 -51 -6 -25 -4 -28
16 -25 14 2 24 12 28 28 3 14 14 26 25 28 11 2 43 22 71 43 28 21 59 39 70 39
15 0 12 -4 -11 -19 -47 -28 -68 -57 -60 -80 4 -13 2 -21 -5 -21 -7 0 -14 9
-17 19 -5 21 -33 18 -33 -4 0 -7 -36 -68 -81 -135 -104 -157 -114 -184 -98
-274 14 -75 42 -122 58 -97 10 15 8 16 78 -35 20 -15 23 -14 38 10 13 20 14
29 5 46 -10 18 -9 22 8 27 14 3 22 17 27 41 4 21 15 62 26 92 13 36 18 69 14
95 -4 31 -1 45 15 64 16 19 23 21 35 11 22 -19 58 -3 51 23 -8 32 39 93 96
124 39 21 50 33 58 64 6 21 15 41 20 44 6 3 10 15 10 26 0 10 7 19 15 19 8 0
15 8 15 19 0 10 7 24 15 31 8 6 13 15 12 18 -1 4 11 24 27 45 19 25 26 41 19
48 -7 7 -14 5 -23 -6 -13 -16 -40 -21 -40 -7 0 4 6 14 12 20 10 10 10 15 -2
22 -26 16 -58 11 -65 -10 -8 -26 -41 -26 -55 1 -9 16 -14 18 -26 8 -8 -6 -14
-22 -14 -34 0 -13 -12 -38 -27 -55 -26 -31 -27 -31 -34 -11 -6 14 -14 19 -26
14 -26 -9 -53 -34 -53 -50 0 -7 -4 -13 -9 -13 -5 0 -16 -3 -25 -6 -12 -4 -16
0 -16 15 0 22 -16 29 -22 9 -2 -6 -24 -13 -49 -14 l-44 -2 23 18 c12 10 22 21
22 24 0 13 -48 5 -54 -9 -3 -8 -12 -12 -21 -9 -8 4 -22 1 -30 -6 -11 -9 -22
-9 -46 -1 -17 6 -35 8 -40 5 -5 -3 -12 3 -16 13 -11 30 -25 45 -33 33 -13 -20
-40 1 -40 31 0 34 -26 50 -44 28 -6 -8 -21 -20 -34 -27 -27 -15 -29 -1 -7 38
22 39 19 91 -5 97 -12 3 -19 12 -18 22 2 12 -6 16 -37 16 -38 0 -40 -1 -43
-35 -5 -54 -20 -65 -49 -38 -22 20 -27 21 -68 10 -25 -7 -52 -12 -61 -12 -9 0
-24 -10 -35 -23 -14 -17 -18 -18 -19 -6 0 18 30 49 48 49 6 0 19 11 27 24 12
18 28 25 66 29 61 8 79 20 79 57 0 15 7 33 16 41 9 7 13 21 10 33 -3 11 2 28
11 38 33 37 -16 99 -64 81 -11 -4 -14 -3 -9 5 4 7 17 12 29 12 22 1 22 1 3 15
-12 9 -43 15 -79 15 -78 0 -161 -45 -235 -127 -61 -66 -232 -325 -232 -351 0
-9 -7 -26 -15 -36 -8 -11 -15 -34 -15 -51 0 -36 -36 -89 -122 -183 -32 -34
-60 -72 -63 -85 -5 -21 -25 -275 -29 -360 -1 -26 -8 -42 -20 -49 -17 -9 -18
-8 -12 8 18 43 18 169 2 233 -15 55 -15 65 -3 80 8 9 17 34 20 55 7 42 82 174
135 236 34 40 40 68 20 88 -10 10 -10 17 0 32 7 11 10 31 6 45 -4 15 0 33 10
47 9 12 16 37 16 54 0 19 6 34 15 38 8 3 15 17 15 32 0 20 14 40 50 73 28 25
50 52 50 59 0 7 -7 27 -16 45 -19 36 -23 119 -5 125 6 2 11 20 11 39 0 32 2
35 22 30 18 -5 38 8 94 61 100 93 139 122 161 122 11 0 28 9 38 20 10 11 35
25 56 30 24 7 48 23 64 44 30 39 158 118 179 110 9 -3 17 3 21 17 l7 22 18
-23 17 -23 28 57 c15 32 34 56 43 56 8 0 31 16 50 36 25 26 33 41 29 60 -3 17
1 28 15 35 18 10 19 20 15 141 -4 138 2 169 38 184 15 7 20 19 21 46 1 42 40
83 69 72 24 -9 46 25 33 50 -8 15 -7 22 7 32 9 7 14 18 10 24 -4 6 -1 17 5 25
6 8 11 29 9 47 -1 18 2 41 6 50 10 24 -15 47 -40 37 -26 -10 -65 -11 -65 -1 0
4 15 14 33 22 30 14 39 31 20 37 -5 2 -26 -8 -46 -21 -42 -29 -48 -24 -52 43
-2 25 -4 48 -4 50 -1 2 -10 -4 -21 -14 -21 -19 -42 -13 -22 7 31 31 -6 86 -48
73 -11 -3 -28 -1 -40 5 -16 8 -21 8 -25 -3 -4 -8 -18 -12 -38 -11 -18 1 -40
-4 -49 -13 -16 -14 -16 -18 -1 -54 17 -43 10 -65 -12 -35 -8 10 -18 15 -24 12
-16 -10 -21 10 -7 30 16 21 10 44 -11 44 -8 0 -28 7 -45 16 -18 9 -33 12 -37
6 -3 -5 -19 -13 -36 -19 -33 -10 -59 -51 -45 -68 5 -6 -1 -19 -16 -34 -19 -18
-24 -33 -24 -71 0 -30 -9 -68 -25 -103 -16 -33 -25 -70 -23 -91 1 -19 -1 -39
-6 -43 -11 -12 -23 16 -18 43 5 25 -1 28 -58 25 -24 -1 -24 -1 -3 8 12 6 31
29 42 53 12 24 32 58 46 77 14 19 25 43 25 54 0 12 10 31 22 44 12 13 18 26
14 30 -4 5 -21 -8 -37 -27 -40 -49 -36 -30 6 25 19 25 32 52 29 59 -3 8 9 25
28 40 28 22 31 28 18 36 -13 9 -13 12 3 21 9 5 17 14 17 19 0 16 -40 11 -46
-5 -4 -10 -14 -13 -29 -9 -15 4 -24 0 -29 -11 -9 -26 -27 -7 -20 22 5 17 3 24
-4 19 -6 -3 -13 -20 -17 -36 -8 -37 -65 -66 -96 -50 -10 6 -19 15 -19 20 0 6
-7 10 -15 10 -8 0 -15 -9 -15 -19 0 -10 -7 -22 -16 -25 -11 -4 -14 -13 -10
-29 3 -12 1 -29 -4 -37 -8 -12 -10 -12 -11 5 -1 11 -1 32 0 48 3 34 -3 34 -41
-3 -23 -23 -27 -34 -19 -44 6 -7 8 -16 4 -19 -12 -12 -21 -7 -28 16 -7 22 -7
22 -18 -6 -13 -32 -28 -36 -19 -5 3 13 1 19 -6 15 -14 -10 -20 11 -15 53 3 25
2 31 -5 21 -8 -11 -14 -10 -34 10 -29 29 -85 37 -95 13 -4 -10 -13 -14 -28
-10 -12 3 -31 -1 -43 -10 -23 -16 -30 -6 -10 14 9 9 8 12 -5 12 -10 0 -20 8
-24 18 -9 26 -124 132 -144 132 -9 0 -19 9 -22 20 -4 16 -11 19 -30 15 -14 -4
-28 -2 -31 4 -4 6 -18 11 -31 11 -29 0 -42 17 -18 23 12 3 8 5 -9 6 -16 1 -31
-6 -37 -16 -9 -17 -11 -16 -33 4 -22 21 -26 22 -46 7 -17 -12 -22 -12 -23 -2
-3 56 -6 69 -17 80 -10 10 -20 5 -47 -27 -19 -21 -35 -34 -35 -28 0 6 7 16 15
23 19 16 19 49 0 56 -8 4 -15 12 -15 20 0 8 -7 14 -15 14 -8 0 -15 -4 -15 -10
0 -5 -4 -10 -10 -10 -5 0 -10 6 -10 13 0 7 -9 18 -20 25 -17 10 -21 10 -26 -3
-4 -8 -10 -15 -16 -15 -5 0 -7 4 -3 10 7 11 -40 44 -53 36 -5 -3 -16 4 -25 15
-9 10 -28 19 -41 19 -14 0 -29 6 -33 13 -14 21 -57 41 -61 28 -5 -14 -22 -15
-22 0 0 16 -29 41 -40 34 -5 -3 -10 -16 -10 -27 0 -11 -8 -27 -17 -34 -11 -8
-13 -13 -5 -14 6 0 12 -9 12 -19 0 -11 8 -22 18 -24 14 -4 13 -6 -6 -12 -38
-12 -22 -38 32 -53 43 -12 47 -16 30 -25 -29 -15 -30 -17 -14 -28 12 -7 12
-11 2 -17 -9 -7 -8 -13 8 -27 15 -14 19 -26 15 -43 -3 -13 -1 -30 6 -38 6 -8
8 -14 3 -14 -5 0 -16 -5 -24 -10 -13 -9 -12 -13 8 -28 l23 -18 -35 4 c-44 5
-57 -18 -34 -59 15 -26 15 -27 -8 -40 -13 -7 -24 -22 -24 -33 0 -12 -7 -30
-15 -40 -8 -11 -15 -31 -15 -45 -1 -25 -1 -25 -15 -7 -8 11 -18 16 -22 13 -3
-4 -17 3 -30 15 -18 17 -26 19 -35 10 -17 -17 -26 -15 -53 14 -29 31 -52 28
-112 -15 -29 -21 -43 -39 -45 -58 -2 -23 -7 -28 -26 -26 -13 2 -32 -2 -44 -8
-30 -16 -34 -2 -8 26 21 23 23 28 11 47 -12 20 -11 21 18 15 36 -7 40 5 15 41
-9 13 -13 29 -10 37 6 18 -15 20 -32 3 -8 -8 -16 -5 -31 13 -11 13 -18 30 -16
37 3 7 -5 26 -17 43 -16 21 -30 29 -52 29 -23 0 -27 3 -18 12 27 27 0 81 -27
55 -11 -10 -13 -9 -9 3 3 8 0 26 -8 40 -19 37 -27 63 -25 77 1 9 -7 11 -28 7
-23 -5 -32 -2 -40 15 -13 24 -36 28 -44 7 -3 -8 -26 -16 -54 -20 -26 -3 -60
-7 -74 -9 -15 -2 -43 3 -62 10 -33 14 -35 16 -26 46 12 42 2 48 -25 15 -12
-16 -26 -28 -30 -28 -5 0 -3 7 4 15 19 23 -1 38 -52 41 -30 1 -44 7 -46 18 -2
10 -14 16 -30 16 -15 0 -45 7 -67 15 -61 22 -71 19 -95 -27 -12 -24 -28 -47
-36 -51 -8 -5 -12 -12 -9 -18 4 -5 -14 -9 -39 -9 -33 0 -49 -5 -57 -18 -10
-15 -23 -18 -88 -15 -42 2 -96 0 -121 -4 -40 -8 -48 -14 -68 -53 -26 -50 -24
-75 14 -133 33 -50 67 -64 94 -37 11 11 30 20 43 20 21 -1 21 -1 -5 -21 -29
-21 -39 -69 -15 -69 7 -1 6 -5 -5 -13 -12 -10 -14 -17 -6 -31 10 -18 7 -59 -7
-104 -7 -22 -5 -23 26 -20 29 3 34 0 37 -20 3 -18 8 -23 23 -19 16 4 18 1 13
-18 -4 -16 1 -30 14 -43 11 -11 25 -28 31 -38 11 -18 12 -18 25 -1 18 24 29 6
16 -27 -6 -17 -6 -27 1 -31 5 -4 7 -15 4 -24 -3 -11 2 -24 11 -32 15 -12 15
-14 -7 -19 -27 -7 -33 -38 -10 -56 11 -9 11 -15 -3 -42 -9 -17 -16 -45 -16
-62 0 -17 -5 -41 -11 -52 -9 -17 -8 -23 5 -30 9 -5 16 -15 16 -23 0 -16 35
-33 150 -71 67 -23 82 -33 147 -100 51 -53 82 -96 107 -150 20 -41 36 -80 36
-85 0 -6 7 -8 16 -5 9 3 24 -4 38 -19 12 -13 35 -29 51 -35 l29 -11 -30 -19
c-16 -11 -36 -20 -45 -20 -21 0 -27 -15 -34 -82 -4 -29 -18 -79 -32 -111 -13
-32 -22 -64 -19 -72 2 -7 -2 -19 -10 -26 -9 -7 -22 -25 -30 -40 -7 -15 -22
-30 -33 -34 -11 -3 -43 -38 -73 -78 l-54 -72 24 -47 c17 -35 30 -48 52 -53 21
-5 36 -19 54 -51 13 -24 20 -46 15 -50 -5 -3 -1 -18 10 -33 15 -21 17 -31 9
-39 -8 -8 -4 -14 18 -22 42 -16 84 -60 84 -87 0 -18 8 -27 30 -35 31 -10 43
-35 43 -87 0 -39 -8 -85 -18 -101 -5 -8 -4 -15 2 -17 27 -9 45 -32 53 -68 12
-51 -3 -67 -24 -26 -9 17 -24 31 -34 31 -10 0 -23 5 -30 12 -22 22 -26 -3 -8
-53 9 -28 15 -53 13 -56 -3 -2 -22 3 -43 12 -22 9 -60 17 -86 17 -29 0 -48 5
-48 12 -2 36 -122 126 -169 126 -8 0 -29 5 -48 12 -30 11 -35 10 -63 -17 -37
-35 -40 -18 -4 25 33 38 30 42 -75 96 -74 39 -95 63 -85 101 3 12 -5 36 -20
58 -14 21 -26 49 -26 62 0 22 -19 45 -80 96 -12 10 -19 36 -24 84 -5 55 -13
77 -34 102 -25 30 -29 32 -56 21 -16 -6 -35 -9 -42 -6 -19 7 -176 -20 -219
-38 -21 -9 -47 -16 -59 -16 -12 0 -27 -5 -34 -12 -9 -9 -12 -8 -12 4 0 9 -10
20 -22 24 -13 4 -34 15 -48 24 -30 21 -220 54 -273 48 -20 -2 -37 0 -37 6 0
30 -58 79 -144 121 -78 38 -103 45 -152 45 -41 0 -71 6 -97 20 -61 33 -115 29
-178 -14 -30 -20 -57 -36 -62 -36 -5 0 -23 -11 -41 -25 -55 -42 -67 -34 -40
30 17 42 10 74 -31 137 -13 20 -42 93 -65 161 -23 72 -47 127 -55 131 -9 3
-28 4 -43 1 -107 -17 -107 -17 -144 19 -32 31 -34 37 -31 86 1 29 7 58 13 64
13 17 28 154 17 165 -5 5 -4 11 2 15 14 9 14 59 0 73 -11 11 23 75 55 102 15
13 15 15 1 31 -15 16 -14 20 14 51 17 18 29 35 26 37 -2 3 7 19 20 37 14 17
25 37 25 43 0 5 10 8 23 5 l22 -5 -22 16 c-31 23 -29 36 5 36 42 0 47 12 12
26 -16 7 -30 18 -30 24 0 15 48 31 75 24 12 -3 26 -1 29 5 4 6 1 11 -6 11 -7
0 -20 4 -28 10 -21 13 15 50 51 50 15 0 46 12 69 27 41 27 41 28 35 73 -4 25
-9 48 -11 52 -2 3 -26 14 -53 23 -27 9 -55 23 -62 31 -11 13 -15 12 -35 -10
-28 -30 -62 -42 -77 -27 -8 8 -2 14 21 22 18 6 32 14 32 18 0 14 -103 39 -119
29 -11 -6 -29 -4 -56 5 l-39 14 27 17 c26 17 29 17 89 -3 34 -12 77 -21 95
-21 19 0 59 -9 90 -20 51 -18 58 -18 74 -4 9 8 25 14 36 12 16 -3 18 5 18 84
0 50 4 89 10 90 6 2 11 -9 13 -24 4 -34 28 -56 44 -40 7 7 26 12 43 12 25 0
36 8 58 42 15 23 29 58 32 77 3 20 14 54 25 76 10 22 24 59 31 82 19 66 8 73
-106 66 l-95 -6 -44 41 c-24 22 -62 46 -85 53 -44 13 -55 29 -20 29 15 0 19 5
15 15 -11 29 23 27 65 -3 32 -24 48 -30 70 -25 22 4 29 2 29 -9 0 -18 72 -68
97 -68 10 0 23 4 30 8 15 10 41 71 60 141 7 30 19 61 24 68 18 21 3 41 -41 54
-58 17 -71 36 -41 60 13 11 36 19 52 19 15 0 31 5 34 10 13 21 35 9 43 -22 6
-26 14 -34 36 -36 42 -5 61 5 46 23 -21 25 -2 30 35 10 83 -44 47 27 -52 103
-37 29 -69 57 -71 63 -7 18 31 9 63 -16 32 -24 33 -24 38 -4 7 27 23 17 30
-19 7 -33 43 -82 61 -82 7 0 20 15 29 33 20 39 65 115 90 150 15 21 17 34 10
69 -7 37 -16 48 -58 76 -28 18 -55 46 -62 62 -7 15 -28 45 -48 67 -32 35 -34
39 -18 51 10 7 23 10 30 7 15 -5 53 50 53 78 0 13 -8 17 -35 17 -19 0 -35 2
-35 5 0 3 9 22 20 42 10 20 17 40 14 45 -9 15 -45 9 -76 -13 -24 -17 -34 -19
-51 -11 l-22 11 23 7 c32 9 27 21 -13 28 -40 8 -43 13 -17 32 13 9 14 16 5 24
-8 9 -19 9 -47 -1 -26 -9 -44 -10 -70 -2 -39 12 -107 -4 -114 -27 -3 -7 4 -39
14 -71 17 -52 23 -61 57 -74 31 -12 37 -19 31 -33 -4 -9 -7 -29 -6 -44 1 -21
-3 -28 -18 -28 -29 0 -31 -11 -21 -105 7 -70 6 -95 -6 -123 -10 -25 -13 -52
-8 -94 6 -48 4 -59 -9 -64 -9 -3 -16 -16 -16 -28 0 -12 -6 -31 -14 -41 -13
-18 -14 -18 -26 6 -7 13 -37 53 -67 89 -35 43 -59 83 -69 118 -16 55 -12 101
6 72 6 -11 12 -12 20 -4 17 17 -20 103 -65 147 -90 88 -109 85 -111 -21 -1
-126 -4 -148 -18 -168 -15 -19 -15 -19 -30 1 -8 11 -22 54 -32 95 -14 64 -22
81 -56 113 -33 32 -36 37 -18 37 12 0 30 -5 41 -10 27 -15 23 0 -7 29 -42 40
-71 52 -85 35 -15 -19 -28 -18 -67 6 l-33 21 21 35 c23 36 21 64 -5 64 -17 0
-19 9 -5 30 8 13 13 13 30 2 11 -7 25 -10 30 -7 14 9 -7 45 -23 40 -7 -3 -19
13 -30 38 l-18 42 -17 -23 c-22 -28 -34 -19 -21 15 5 14 5 31 0 41 -5 9 -11
38 -15 64 -5 33 -17 58 -45 90 -20 23 -40 51 -44 61 -4 10 -17 17 -32 17 -20
0 -25 5 -25 25 0 26 -21 42 -40 30 -7 -5 -8 -11 -1 -19 7 -9 2 -23 -20 -50
-29 -34 -30 -38 -15 -55 9 -10 16 -26 16 -35 0 -14 -5 -17 -25 -12 -21 5 -27
2 -36 -21 -5 -15 -9 -50 -7 -77 3 -47 5 -51 31 -54 33 -4 33 -6 2 -57 -14 -22
-25 -54 -25 -70 0 -37 47 -113 75 -121 11 -4 28 -13 37 -21 10 -9 26 -13 37
-10 12 3 27 -3 37 -14 13 -15 25 -18 46 -14 23 6 28 3 28 -13 0 -11 -12 -29
-26 -39 -22 -17 -25 -23 -15 -40 8 -16 7 -28 -5 -53 -12 -22 -13 -35 -6 -42
14 -14 42 7 42 33 0 22 16 34 25 19 14 -23 -7 -79 -49 -133 -23 -30 -49 -70
-56 -87 -8 -19 -25 -36 -45 -44 -44 -19 -54 -69 -26 -123 11 -21 23 -47 26
-58 5 -18 8 -17 30 10 16 21 27 27 34 20 7 -7 1 -24 -19 -55 -17 -25 -30 -55
-30 -66 0 -27 -22 -46 -44 -38 -20 8 -20 0 -1 -30 14 -21 13 -29 -5 -89 -21
-68 -54 -107 -91 -107 -12 0 -19 -7 -19 -20 0 -11 -7 -20 -15 -20 -18 0 -21
50 -4 67 7 7 25 9 40 6 26 -5 31 -2 45 33 30 72 29 105 -5 148 -37 46 -39 61
-8 52 80 -23 90 -19 61 22 -9 13 -13 29 -10 37 6 17 -9 21 -19 5 -11 -18 -35
-10 -35 12 0 12 -7 29 -16 39 -15 16 -14 20 2 48 14 25 16 35 6 55 -12 27 -6
82 9 92 5 3 9 10 9 16 0 6 -11 1 -25 -12 -14 -13 -25 -32 -25 -43 0 -10 -5
-17 -12 -14 -7 2 -13 12 -13 23 0 11 -14 37 -31 58 l-32 38 -46 -27 c-25 -15
-48 -30 -50 -34 -3 -4 4 -22 15 -40 15 -25 25 -32 41 -28 27 8 75 -17 83 -43
12 -37 -3 -60 -39 -60 -34 0 -59 20 -70 56 -7 22 -46 64 -46 49 0 -5 8 -17 17
-28 17 -18 17 -20 -2 -34 -20 -14 -29 -14 -137 3 -24 4 -53 0 -82 -11 -30 -12
-54 -15 -73 -10 -15 5 -34 7 -41 6 -20 -3 -91 58 -98 83 -5 21 -11 23 -62 22
-49 -1 -57 2 -60 19 -2 11 -21 36 -41 56 -37 34 -38 38 -34 86 5 47 3 52 -22
69 -26 17 -28 17 -71 -4 -28 -14 -64 -22 -95 -22 -40 0 -55 -5 -74 -25 -14
-13 -25 -31 -25 -38 0 -23 32 -54 63 -61 25 -6 27 -5 15 13 -10 16 -10 23 -1
32 9 9 17 7 31 -12 18 -21 22 -22 37 -9 10 8 23 15 30 15 7 0 23 12 35 28 28
35 60 36 60 2 0 -16 -10 -31 -27 -42 -16 -10 -31 -22 -35 -28 -4 -5 -11 -10
-15 -10 -4 -1 -17 -6 -28 -12 -11 -6 -33 -14 -50 -17 -16 -4 -38 -18 -48 -32
-15 -21 -17 -30 -8 -56 6 -17 11 -50 11 -74 0 -23 6 -49 13 -56 16 -15 29 -98
17 -98 -5 0 -10 5 -12 11 -6 18 -38 -2 -38 -25 0 -11 9 -34 20 -51 22 -34 27
-69 8 -63 -7 3 -18 15 -25 29 -59 118 -92 193 -88 198 3 3 15 -1 27 -8 30 -19
43 0 24 35 -27 49 -43 65 -60 58 -13 -5 -16 0 -16 24 0 22 -9 36 -35 56 -23
18 -35 35 -35 52 0 28 -10 30 -50 9 -23 -12 -43 -13 -112 -5 -116 15 -215 39
-268 67 -25 12 -50 23 -56 23 -5 0 -21 10 -33 22 -20 18 -22 23 -9 32 8 6 20
21 27 33 10 21 17 22 72 18 l61 -6 -7 38 c-9 50 -41 111 -78 151 -30 31 -67
43 -67 22 0 -17 -26 -11 -45 10 -10 11 -24 20 -30 20 -21 0 -104 70 -120 101
-9 16 -40 46 -70 65 -53 34 -95 93 -95 134 0 23 -37 56 -93 80 -50 22 -77 21
-77 -4 0 -18 -47 -56 -70 -56 -31 0 -79 30 -73 45 3 8 8 15 12 15 3 0 17 9 31
19 20 16 22 21 11 35 -11 13 -11 20 3 41 9 14 21 25 27 25 6 0 9 10 7 23 -2
12 -10 22 -18 22 -9 0 -14 -7 -12 -18 3 -16 1 -16 -18 -5 -27 17 -46 4 -76
-52 -18 -33 -29 -44 -44 -42 -27 4 -25 -14 3 -23 14 -4 17 -8 9 -12 -21 -8
-40 4 -58 39 -15 29 -16 42 -4 124 12 88 8 154 -10 184 -15 24 -43 -8 -36 -42
5 -26 3 -28 -24 -28 -19 0 -33 -7 -40 -19 -5 -11 -23 -22 -39 -26 -17 -3 -32
-14 -34 -23 -3 -15 -5 -15 -12 2 -6 14 -2 24 15 38 26 21 21 35 -8 19 -11 -6
-41 -8 -69 -4 -48 5 -52 4 -93 -33 -36 -33 -42 -35 -36 -16 7 21 5 22 -18 16
-20 -5 -26 -2 -26 10 0 18 -26 22 -32 5 -2 -5 -24 -12 -49 -13 -59 -4 -70 -12
-63 -40 5 -21 2 -23 -33 -22 -30 1 -39 6 -41 22 -2 17 8 27 50 47 32 16 62 24
75 21 14 -4 36 3 59 17 33 20 41 21 80 11 33 -9 56 -9 91 -1 27 6 62 14 78 18
21 5 31 13 33 30 3 21 1 23 -20 18 -12 -4 -37 -1 -54 5 -27 10 -36 8 -62 -10
l-30 -22 -5 21 c-5 19 -7 20 -37 4 -17 -9 -35 -13 -40 -10 -5 3 -25 8 -45 10
-27 4 -38 0 -47 -15 -14 -23 -30 -25 -56 -9 -30 19 -75 -2 -83 -37 -8 -43 -38
-84 -60 -84 -24 0 -36 27 -20 43 16 16 14 62 -4 77 -21 17 -50 8 -53 -18 -2
-12 -10 -22 -17 -22 -10 0 -15 16 -17 53 -3 49 -4 52 -33 55 -35 4 -47 18 -85
96 -23 46 -27 63 -19 83 24 63 4 142 -47 182 -53 42 -57 39 -306 -242z m8678
-5393 c-4 -9 -9 -15 -11 -12 -3 3 -3 13 1 22 4 9 9 15 11 12 3 -3 3 -13 -1
-22z m-256 -419 c0 -8 -7 -15 -16 -15 -14 0 -14 3 -4 15 7 8 14 15 16 15 2 0
4 -7 4 -15z m-47 -51 c-4 -10 0 -22 9 -28 13 -10 13 -13 -7 -28 -20 -15 -22
-15 -33 3 -7 10 -8 19 -4 19 5 0 14 11 20 25 13 28 25 35 15 9z"/>
<path d="M5156 7441 c-4 -6 -17 -11 -30 -11 -12 0 -33 -11 -45 -24 -22 -23
-22 -25 -4 -34 38 -21 123 42 95 70 -6 6 -12 6 -16 -1z"/>
<path d="M5450 7420 c-8 -5 -24 -10 -36 -10 -11 0 -33 -13 -48 -29 l-29 -30
32 -31 c17 -17 31 -36 31 -41 0 -14 -26 -11 -40 6 -26 31 -31 13 -26 -92 3
-60 5 -115 6 -124 0 -9 12 -34 26 -55 17 -24 27 -51 26 -71 -1 -29 4 -36 38
-53 48 -24 50 -25 50 -2 0 10 9 35 20 57 25 50 26 48 -10 89 -37 42 -27 48 64
39 60 -5 65 -4 77 18 7 13 13 49 14 79 0 30 4 62 7 70 21 53 47 153 43 161
-11 17 -81 10 -108 -11 -31 -25 -37 -25 -37 -1 0 12 -11 23 -31 30 -39 13 -50
14 -69 1z"/>
<path d="M5016 7356 c6 -26 5 -28 -12 -22 -52 20 -73 -3 -34 -37 11 -9 20 -21
20 -27 0 -15 -21 -12 -41 6 -20 18 -39 11 -39 -15 0 -21 30 -51 51 -51 8 0 21
6 28 13 10 10 15 8 27 -7 20 -27 18 -39 -6 -33 -21 5 -28 -7 -10 -18 6 -3 10
-18 10 -32 0 -21 -2 -24 -15 -13 -13 11 -14 8 -9 -17 5 -24 2 -31 -21 -41 -29
-14 -45 -9 -45 14 0 21 -49 84 -65 84 -14 0 -35 -50 -35 -85 0 -12 11 -32 25
-45 14 -13 25 -31 25 -41 0 -22 26 -43 41 -33 7 4 17 0 23 -8 6 -8 19 -17 29
-21 9 -4 21 -17 26 -30 5 -12 16 -29 26 -37 19 -16 55 -83 55 -103 0 -15 41
-57 57 -57 5 0 18 9 28 20 17 19 17 23 2 54 -15 33 -13 76 4 76 5 0 9 -8 9
-18 0 -48 49 -55 92 -12 23 24 29 37 25 58 -3 15 -1 35 5 45 6 13 6 23 -3 33
-9 11 -9 17 0 28 17 20 4 89 -15 82 -8 -3 -20 -9 -28 -12 -10 -4 -15 7 -20 40
-8 54 -30 66 -63 35 -21 -21 -23 -21 -23 -4 0 27 49 105 65 105 20 0 19 19 0
26 -22 9 -18 23 10 34 32 12 32 30 1 59 l-25 23 -28 -20 c-54 -38 -80 -39
-119 -1 l-35 34 7 -29z"/>
<path d="M3913 7327 c-55 -50 -85 -60 -135 -45 -39 12 -42 11 -65 -18 -14 -16
-44 -58 -67 -94 -50 -75 -70 -95 -108 -104 -16 -3 -28 -11 -28 -17 0 -12 77
-48 103 -49 27 0 20 -18 -14 -35 -19 -10 -29 -22 -27 -33 5 -26 37 -26 64 -1
22 20 25 21 41 6 10 -8 36 -17 58 -19 l40 -3 -28 -19 c-21 -14 -48 -20 -107
-21 -131 -3 -165 -44 -102 -119 49 -57 98 -89 126 -82 12 3 34 -1 50 -9 37
-20 53 -19 65 3 9 16 11 16 43 0 18 -10 51 -19 73 -20 33 -2 41 -7 43 -25 2
-12 25 -41 53 -64 63 -53 65 -73 7 -64 -94 14 -167 37 -244 76 -82 40 -82 40
-130 26 -34 -10 -59 -11 -83 -5 -18 5 -35 7 -38 4 -3 -3 4 -24 14 -48 11 -24
27 -68 37 -99 9 -31 26 -69 37 -83 20 -25 25 -27 75 -20 55 6 149 -10 160 -28
4 -6 -4 -19 -17 -28 -19 -15 -21 -21 -10 -34 16 -19 8 -46 -14 -46 -12 0 -14
-4 -5 -19 5 -11 10 -36 10 -55 0 -36 0 -36 43 -36 23 0 53 7 65 16 20 14 24
14 47 -4 22 -17 39 -20 137 -18 137 3 186 21 259 96 27 27 55 50 63 50 21 0
39 -37 32 -66 -6 -22 -4 -24 36 -25 74 -2 102 -12 116 -42 11 -22 16 -26 27
-17 11 9 20 8 37 -4 13 -9 40 -21 61 -27 34 -9 40 -8 55 11 10 12 33 25 52 29
26 5 36 13 38 29 2 14 -2 22 -11 22 -18 0 -27 32 -15 54 7 12 5 18 -8 23 -19
7 -74 -46 -74 -72 0 -8 -4 -15 -10 -15 -13 0 -13 23 2 55 10 22 8 28 -10 48
-12 13 -22 26 -22 30 0 14 28 7 34 -9 3 -9 15 -14 28 -12 18 2 22 9 20 26 -2
14 4 29 15 38 26 20 41 17 45 -8 5 -32 28 -35 28 -4 0 36 19 33 27 -4 6 -31
30 -41 39 -16 3 7 -1 36 -9 62 -12 41 -18 50 -41 52 -21 3 -26 7 -21 22 5 14
2 17 -13 13 -13 -3 -24 4 -36 21 -11 18 -25 26 -46 26 -21 0 -36 8 -52 30 -12
17 -28 30 -35 30 -8 0 -13 12 -13 30 0 20 -5 30 -15 30 -23 0 -30 46 -11 75
21 32 16 106 -11 161 -19 39 -19 44 -4 68 13 21 13 32 3 70 -6 25 -9 59 -5 76
5 28 0 37 -46 81 -40 38 -59 49 -84 49 -18 0 -43 7 -56 16 -19 14 -25 14 -32
3 -5 -8 -7 -23 -4 -34 15 -56 17 -117 5 -141 -12 -21 -11 -32 2 -73 14 -43 14
-51 1 -64 -12 -12 -13 -19 -3 -37 10 -18 9 -25 -5 -39 -15 -15 -18 -14 -36 8
-10 13 -19 33 -19 45 0 12 -5 27 -12 34 -9 9 -8 21 2 52 18 55 1 114 -40 135
-17 9 -37 27 -46 41 -14 21 -15 29 -4 49 11 20 11 27 0 40 -20 24 -53 14 -64
-17 -13 -37 15 -98 44 -98 16 0 20 -7 20 -34 0 -42 -28 -71 -37 -38 -6 26 -16
28 -33 7 -23 -27 -42 -19 -35 16 5 22 0 44 -20 85 -15 31 -33 58 -41 61 -7 3
-33 -9 -56 -26 -46 -34 -85 -40 -95 -15 -7 19 13 34 45 34 21 0 23 3 17 30 -5
22 -1 38 15 60 26 37 18 53 -21 45 -24 -5 -30 -3 -37 16 -8 22 -9 22 -49 -14z"/>
<path d="M4557 7320 c-20 -17 -20 -18 26 -67 26 -28 47 -56 47 -62 0 -8 12
-11 33 -9 30 3 32 5 35 47 3 41 -12 100 -27 102 -47 7 -97 3 -114 -11z"/>
<path d="M4412 7303 c2 -23 8 -28 32 -28 16 0 31 6 34 13 2 6 -3 12 -11 12 -8
0 -20 7 -27 15 -19 23 -32 18 -28 -12z"/>
<path d="M6596 7233 c-3 -3 -3 -10 0 -14 7 -12 34 -11 34 0 0 11 -26 22 -34
14z"/>
<path d="M2270 7213 c-34 -14 -120 -87 -112 -95 5 -5 36 -8 68 -6 59 3 59 3
62 36 2 17 9 32 15 32 7 0 19 5 27 10 29 19 -21 38 -60 23z"/>
<path d="M5233 7174 c-3 -8 1 -23 10 -32 15 -14 17 -14 23 1 8 21 -1 47 -16
47 -6 0 -13 -7 -17 -16z"/>
<path d="M2078 7168 c-31 -11 -34 -24 -16 -63 11 -24 32 -33 41 -17 10 16 18
92 10 91 -4 0 -20 -5 -35 -11z"/>
<path d="M8460 6874 c-15 -40 -7 -51 19 -25 23 23 24 42 3 49 -7 2 -17 -9 -22
-24z"/>
<path d="M8290 6865 c0 -14 29 -35 49 -35 17 0 13 37 -5 44 -26 10 -44 7 -44
-9z"/>
<path d="M6983 6649 c-8 -8 -9 -18 0 -36 15 -34 41 -25 45 15 3 26 0 32 -15
32 -11 0 -24 -5 -30 -11z"/>
<path d="M6875 6583 c-4 -15 -14 -45 -22 -66 -15 -34 -15 -40 -2 -53 14 -13
17 -13 31 3 20 23 29 134 11 140 -7 3 -15 -8 -18 -24z"/>
<path d="M6705 6554 c-19 -46 -19 -44 5 -44 23 0 46 40 37 64 -10 26 -26 18
-42 -20z"/>
<path d="M6117 6553 c-10 -3 -16 -10 -14 -16 5 -17 52 -15 52 2 0 16 -12 21
-38 14z"/>
<path d="M4955 6491 c-9 -15 14 -63 29 -58 18 6 17 24 -2 47 -14 17 -21 20
-27 11z"/>
<path d="M7176 6429 c-14 -17 -29 -42 -32 -55 -11 -44 6 -127 33 -167 38 -55
55 -61 103 -37 42 22 65 49 75 92 9 35 -61 184 -90 192 -41 12 -64 5 -89 -25z"/>
<path d="M7342 6444 c-9 -10 -10 -19 -2 -33 16 -30 48 -35 91 -15 40 20 48 35
27 51 -19 15 -101 13 -116 -3z"/>
<path d="M6925 6420 c-3 -5 -1 -10 5 -10 7 0 9 -8 5 -22 -7 -22 -6 -22 10 -6
10 9 15 23 12 32 -7 18 -23 21 -32 6z"/>
<path d="M5170 6325 c-9 -28 -8 -38 6 -59 13 -21 14 -26 2 -26 -8 0 -19 5 -26
12 -19 19 -27 0 -8 -20 15 -18 15 -20 -8 -45 -14 -15 -36 -27 -50 -27 -16 0
-27 -7 -31 -20 -8 -26 13 -56 29 -40 16 16 33 12 39 -9 3 -14 11 -18 26 -14
14 3 23 0 27 -11 3 -9 14 -16 24 -16 10 0 23 -7 30 -15 7 -9 22 -12 39 -9 18
4 32 0 40 -10 21 -25 39 -19 67 24 16 24 34 40 46 40 26 0 18 24 -10 28 -27 4
-72 64 -72 97 0 19 -9 31 -34 46 -19 11 -37 27 -40 35 -3 8 -10 13 -16 9 -5
-3 -16 7 -24 23 -23 45 -43 47 -56 7z"/>
<path d="M6920 6331 c0 -5 6 -14 14 -20 16 -13 32 2 21 19 -8 12 -35 13 -35 1z"/>
<path d="M4947 6163 c-13 -12 -7 -63 7 -63 22 0 35 23 25 48 -8 22 -20 28 -32
15z"/>
<path d="M6211 6123 c-10 -24 -8 -35 9 -71 22 -45 31 -50 48 -29 9 10 7 26 -6
60 -25 66 -36 74 -51 40z"/>
<path d="M8850 6070 c0 -5 5 -10 10 -10 6 0 10 5 10 10 0 6 -4 10 -10 10 -5 0
-10 -4 -10 -10z"/>
<path d="M4826 6045 c-20 -15 -20 -15 0 -30 32 -24 47 -15 37 23 -6 26 -11 26
-37 7z"/>
<path d="M8790 6040 c0 -19 11 -26 23 -14 8 8 -3 34 -14 34 -5 0 -9 -9 -9 -20z"/>
<path d="M4615 6010 c-6 -11 23 -60 36 -60 17 0 19 21 3 45 -17 27 -29 31 -39
15z"/>
<path d="M8870 5991 c0 -12 58 -61 73 -61 6 0 -4 16 -23 35 -34 35 -50 43 -50
26z"/>
<path d="M8650 5750 c0 -5 5 -10 10 -10 6 0 10 5 10 10 0 6 -4 10 -10 10 -5 0
-10 -4 -10 -10z"/>
<path d="M8860 5729 c0 -11 5 -17 10 -14 6 3 10 13 10 21 0 8 -4 14 -10 14 -5
0 -10 -9 -10 -21z"/>
<path d="M8933 5733 c-21 -7 -15 -33 7 -33 11 0 20 6 20 14 0 18 -11 25 -27
19z"/>
<path d="M8055 5600 c3 -5 10 -10 16 -10 5 0 9 5 9 10 0 6 -7 10 -16 10 -8 0
-12 -4 -9 -10z"/>
<path d="M6616 5563 c-13 -13 -4 -21 59 -52 75 -36 75 -35 75 -18 0 22 -55 68
-73 62 -8 -4 -24 -2 -35 4 -11 6 -22 7 -26 4z"/>
<path d="M8980 5561 c0 -11 26 -22 34 -14 3 3 3 10 0 14 -7 12 -34 11 -34 0z"/>
<path d="M6516 5532 c-3 -5 4 -23 14 -40 14 -22 27 -32 45 -32 30 0 30 0 4 44
-20 34 -51 47 -63 28z"/>
<path d="M9009 5511 c-27 -22 -22 -25 44 -35 30 -4 37 -2 37 13 0 41 -43 53
-81 22z"/>
<path d="M6487 5453 c-14 -25 -16 -71 -7 -126 6 -34 14 -106 19 -160 7 -79 13
-102 30 -121 11 -12 21 -25 21 -28 0 -4 -18 -24 -40 -45 -45 -43 -59 -88 -36
-118 14 -20 15 -20 38 3 14 12 29 22 36 22 6 0 27 8 47 17 42 20 55 10 55 -44
0 -19 10 -43 23 -59 l23 -27 35 31 c49 43 66 77 49 97 -12 14 -10 20 17 40 45
36 59 75 39 113 -10 20 -12 33 -6 37 6 3 15 26 21 51 11 43 29 60 29 28 0 -11
8 -15 28 -14 46 3 51 1 54 -26 3 -24 7 -26 63 -28 33 -2 68 -7 77 -10 12 -6
21 0 34 21 9 15 25 40 35 54 20 30 16 39 -18 39 -16 0 -23 6 -23 20 0 21 -24
28 -35 10 -3 -5 -16 -10 -28 -10 -12 0 -28 -10 -35 -21 -10 -16 -17 -18 -25
-10 -8 8 -6 15 8 25 16 11 16 14 3 22 -8 5 -21 22 -29 39 -17 37 -61 55 -90
36 -17 -10 -24 -10 -37 2 -25 22 -90 30 -123 17 -27 -11 -31 -10 -61 21 l-33
34 -3 -28 c-5 -38 -28 -45 -57 -17 -18 17 -23 30 -19 47 9 36 -62 95 -79 66z"/>
<path d="M8270 5431 c0 -6 5 -11 12 -11 6 0 22 -9 34 -21 15 -14 29 -19 43
-14 42 13 18 39 -46 50 -29 4 -43 3 -43 -4z"/>
<path d="M7435 5380 c-3 -5 1 -10 9 -10 9 0 16 5 16 10 0 6 -4 10 -9 10 -6 0
-13 -4 -16 -10z"/>
<path d="M7520 5316 c0 -17 60 -40 72 -28 5 5 6 16 2 25 -8 22 -74 24 -74 3z"/>
<path d="M9235 5320 c-8 -12 17 -23 41 -18 10 1 19 9 22 16 5 15 -54 17 -63 2z"/>
<path d="M7432 5228 c-7 -7 -12 -15 -12 -19 0 -14 68 -49 83 -43 22 8 31 42
17 59 -15 18 -71 20 -88 3z"/>
<path d="M9970 4990 c0 -12 40 -34 47 -26 9 8 -17 36 -33 36 -8 0 -14 -4 -14
-10z"/>
<path d="M6997 4915 c-20 -14 -37 -30 -37 -35 0 -6 -11 -10 -24 -10 -28 0 -44
-43 -25 -66 8 -10 8 -22 0 -45 -10 -29 -8 -34 16 -57 23 -21 28 -22 38 -9 6 8
22 17 35 19 21 2 28 13 44 63 10 33 23 70 28 81 14 30 1 84 -20 84 -10 0 -34
-11 -55 -25z"/>
<path d="M10200 4840 c0 -5 5 -10 10 -10 6 0 10 5 10 10 0 6 -4 10 -10 10 -5
0 -10 -4 -10 -10z"/>
<path d="M10235 4801 c-3 -5 -1 -12 5 -16 5 -3 10 1 10 9 0 18 -6 21 -15 7z"/>
<path d="M11784 4329 c-9 -15 26 -63 38 -51 5 5 7 19 4 30 -8 23 -32 36 -42
21z"/>
<path d="M11615 4318 c-2 -7 -13 -42 -24 -78 -17 -54 -19 -73 -10 -110 5 -24
15 -50 21 -57 8 -10 8 -20 0 -39 -7 -15 -8 -31 -3 -42 22 -44 75 -231 76 -267
0 -34 4 -41 23 -43 27 -4 29 -28 2 -37 -16 -5 -19 -12 -14 -33 4 -15 11 -35
15 -44 13 -24 11 -38 -5 -38 -14 0 -26 -21 -26 -46 0 -21 28 -17 47 6 10 11
21 20 25 20 5 0 8 -37 8 -83 0 -76 2 -86 25 -107 23 -22 25 -22 50 -6 14 9 25
21 25 26 0 20 73 91 114 110 68 33 114 64 135 91 33 43 128 86 190 87 29 1 55
3 57 5 2 2 0 17 -5 35 -11 37 -2 47 52 57 44 8 46 1 11 -36 -25 -26 -25 -26
-7 -63 l17 -37 -27 -25 c-29 -27 -31 -32 -18 -52 14 -23 44 -9 74 34 l29 41
-16 53 -16 54 33 27 32 27 -29 31 c-23 24 -27 33 -17 45 6 7 10 19 9 26 -5 19
52 18 65 -1 7 -9 18 -18 26 -20 17 -6 44 -75 44 -116 0 -19 6 -33 13 -33 22 0
38 31 36 71 -2 21 0 39 3 39 14 0 65 -31 66 -40 1 -6 2 -16 3 -22 2 -17 36
-11 59 9 26 24 20 62 -18 123 -19 30 -35 63 -35 75 0 28 -25 61 -51 68 -20 5
-21 3 -15 -31 3 -20 1 -44 -4 -52 -9 -13 -14 -11 -35 13 -14 16 -23 32 -21 35
2 4 -2 32 -9 62 l-13 55 -12 -30 c-7 -17 -10 -59 -8 -97 3 -51 0 -69 -10 -73
-20 -7 -42 13 -42 38 0 12 -12 30 -26 42 -24 19 -25 22 -14 65 22 86 22 96 5
110 -15 12 -19 12 -32 -5 -8 -11 -12 -30 -10 -42 6 -31 -8 -52 -25 -35 -6 6
-24 12 -40 12 -34 0 -48 24 -48 84 0 66 -21 73 -96 36 -32 -16 -65 -30 -73
-30 -9 0 -11 -8 -7 -23 4 -16 -1 -28 -14 -40 -11 -9 -20 -27 -20 -39 -1 -22
-1 -22 -23 5 -25 29 -37 34 -37 14 0 -13 -50 -47 -69 -47 -6 0 -19 7 -30 16
-15 14 -17 21 -8 45 13 35 3 48 -20 27 -10 -9 -32 -19 -49 -22 -41 -9 -74 -73
-74 -145 0 -28 -4 -51 -9 -51 -15 0 -53 113 -58 175 -3 33 -14 77 -25 98 -11
21 -20 61 -20 89 -1 43 -5 51 -25 59 -33 12 -43 11 -48 -3z"/>
<path d="M12145 4230 c-7 -12 2 -30 16 -30 5 0 9 9 9 20 0 21 -15 27 -25 10z"/>
<path d="M12102 4160 c-17 -28 -4 -50 15 -25 14 21 17 45 5 45 -4 0 -13 -9
-20 -20z"/>
<path d="M47 3738 c-33 -51 -44 -102 -27 -123 10 -13 10 -19 -4 -34 -15 -17
-15 -20 2 -40 28 -35 86 -21 121 30 14 21 38 43 53 49 14 6 36 22 47 34 l22
23 -38 6 c-28 5 -40 3 -46 -9 -18 -32 -48 -54 -72 -54 -16 0 -25 6 -25 15 0
10 10 15 30 15 20 0 35 8 46 25 18 28 12 45 -17 45 -12 0 -19 7 -19 18 0 20
-18 42 -35 42 -6 0 -23 -19 -38 -42z"/>
<path d="M515 3739 c-11 -17 1 -21 15 -4 8 9 8 15 2 15 -6 0 -14 -5 -17 -11z"/>
<path d="M354 3579 c-4 -7 4 -20 17 -30 21 -15 26 -16 38 -4 12 11 12 17 1 29
-15 19 -46 21 -56 5z"/>
<path d="M7845 3540 c3 -5 8 -10 11 -10 2 0 4 5 4 10 0 6 -5 10 -11 10 -5 0
-7 -4 -4 -10z"/>
<path d="M410 3443 c0 -81 10 -107 33 -84 8 8 8 29 0 77 -18 101 -33 104 -33
7z"/>
<path d="M12 3496 c16 -12 16 -14 1 -29 -12 -12 -13 -19 -6 -29 6 -7 11 -24
11 -38 -1 -57 19 -162 33 -170 19 -12 35 5 21 22 -6 8 -14 47 -17 88 -7 88 7
127 43 122 14 -2 22 2 22 12 0 22 -18 30 -75 33 -43 2 -48 1 -33 -11z"/>
<path d="M375 3500 c-4 -6 -3 -16 3 -22 13 -13 23 4 13 21 -7 10 -10 10 -16 1z"/>
<path d="M335 3479 c-12 -19 24 -126 41 -122 15 3 17 35 3 75 -14 45 -34 65
-44 47z"/>
<path d="M7964 3458 c3 -13 6 -51 6 -85 0 -88 16 -79 24 14 5 58 4 78 -6 84
-22 15 -31 10 -24 -13z"/>
<path d="M8040 3451 c0 -17 5 -31 10 -31 6 0 10 11 10 24 0 14 -4 28 -10 31
-6 4 -10 -7 -10 -24z"/>
<path d="M70 3435 c0 -8 5 -15 10 -15 6 0 10 7 10 15 0 8 -4 15 -10 15 -5 0
-10 -7 -10 -15z"/>
<path d="M7892 3398 c-7 -7 -12 -19 -12 -27 0 -11 4 -10 20 4 21 19 26 35 12
35 -4 0 -13 -5 -20 -12z"/>
<path d="M527 3394 c-14 -14 -7 -25 13 -22 12 2 21 8 21 13 0 12 -24 18 -34 9z"/>
<path d="M60 3365 c0 -9 5 -15 11 -13 14 5 14 21 0 26 -6 2 -11 -4 -11 -13z"/>
<path d="M7930 3351 c0 -10 -3 -28 -7 -38 -6 -16 -5 -16 10 -4 19 15 23 46 7
56 -5 3 -10 -3 -10 -14z"/>
<path d="M495 3341 c-6 -11 9 -23 19 -14 9 9 7 23 -3 23 -6 0 -12 -4 -16 -9z"/>
<path d="M11105 3330 c-145 -16 -245 -53 -254 -95 -3 -16 3 -17 50 -12 30 4
79 2 109 -5 45 -9 68 -8 129 6 133 30 188 76 126 104 -28 13 -53 13 -160 2z"/>
<path d="M454 3315 c-9 -22 1 -29 15 -11 8 10 9 16 1 21 -5 3 -13 -1 -16 -10z"/>
<path d="M410 3295 c0 -14 5 -25 10 -25 6 0 10 11 10 25 0 14 -4 25 -10 25 -5
0 -10 -11 -10 -25z"/>
<path d="M472 3287 c-12 -13 -27 -38 -33 -56 -11 -30 -9 -35 15 -59 l27 -27
19 25 c11 14 23 34 26 44 6 20 -14 96 -26 96 -4 0 -16 -10 -28 -23z"/>
<path d="M400 3180 c0 -22 5 -40 10 -40 6 0 10 18 10 40 0 22 -4 40 -10 40 -5
0 -10 -18 -10 -40z"/>
<path d="M45 3191 c-6 -11 9 -23 19 -14 9 9 7 23 -3 23 -6 0 -12 -4 -16 -9z"/>
<path d="M506 3144 c-8 -21 -8 -24 3 -24 12 0 22 28 12 35 -5 3 -12 -2 -15
-11z"/>
<path d="M445 3130 c-3 -6 1 -13 10 -16 19 -8 30 0 20 15 -8 14 -22 14 -30 1z"/>
<path d="M11470 3070 c-6 -12 -10 -42 -8 -68 2 -36 7 -48 21 -50 16 -3 18 0
10 20 -4 12 -8 44 -7 71 1 26 0 47 -2 47 -2 0 -8 -9 -14 -20z"/>
<path d="M11754 3034 c-4 -14 -3 -46 1 -72 4 -26 8 -77 10 -115 3 -76 17 -99
72 -118 28 -9 37 -8 52 5 10 9 22 16 28 16 17 0 65 88 61 113 -1 12 1 28 6 36
6 9 0 22 -18 39 -26 26 -26 26 -56 8 -41 -24 -57 -16 -65 33 -5 32 -14 44 -41
60 -44 26 -42 26 -50 -5z"/>
<path d="M454 2965 c-3 -8 -3 -19 1 -25 9 -14 35 6 35 26 0 19 -29 18 -36 -1z"/>
<path d="M420 2864 c0 -22 2 -25 15 -14 8 7 15 19 15 26 0 8 -7 14 -15 14 -10
0 -15 -10 -15 -26z"/>
<path d="M11545 2781 c-49 -51 -93 -73 -118 -60 -13 7 -23 7 -33 -2 -8 -6 -14
-8 -14 -4 0 4 -11 0 -25 -9 -24 -16 -25 -16 -45 16 -11 18 -20 36 -20 41 0 4
-7 7 -15 7 -12 0 -15 -13 -15 -55 0 -52 1 -55 24 -55 14 0 28 -4 31 -10 3 -5
44 -10 91 -10 77 0 85 2 92 21 7 19 9 19 21 5 27 -32 92 -10 71 24 -14 22 -12
67 5 100 23 44 -2 39 -50 -9z"/>
<path d="M283 2683 c7 -43 22 -55 60 -49 22 5 27 2 27 -14 0 -16 -5 -18 -35
-13 -32 5 -35 4 -35 -19 0 -13 -5 -29 -12 -36 -9 -9 -4 -13 20 -18 18 -4 32
-11 32 -15 0 -5 12 -14 26 -20 26 -9 26 -10 9 -29 -21 -23 -12 -40 20 -40 43
0 65 -78 30 -104 -16 -12 -18 -18 -9 -33 6 -10 22 -20 35 -23 16 -4 23 -13 22
-26 -1 -10 5 -23 13 -27 19 -11 18 -38 -1 -31 -19 8 -19 0 0 -36 13 -24 23
-30 69 -35 30 -4 64 -4 77 0 24 6 24 6 4 -10 -11 -9 -32 -19 -48 -22 -15 -3
-29 -9 -32 -13 -7 -11 75 -111 134 -164 48 -43 58 -47 89 -42 19 3 37 7 39 10
3 3 -3 27 -12 55 -9 28 -16 66 -14 83 4 58 0 67 -51 123 -27 30 -51 61 -52 68
-1 6 -2 30 -4 52 -4 88 -21 165 -39 185 -11 12 -49 43 -85 70 -37 27 -99 85
-139 130 -65 71 -76 80 -108 80 -35 0 -36 0 -30 -37z"/>
<path d="M7882 2664 c-24 -16 -27 -31 -13 -53 11 -16 156 -28 165 -13 11 18
-21 44 -74 63 -30 10 -55 19 -55 19 0 0 -11 -7 -23 -16z"/>
<path d="M550 2580 c0 -5 4 -10 9 -10 5 0 16 -3 25 -6 11 -4 16 -1 16 10 0 10
-9 16 -25 16 -14 0 -25 -4 -25 -10z"/>
<path d="M550 2540 c0 -5 5 -10 10 -10 6 0 10 5 10 10 0 6 -4 10 -10 10 -5 0
-10 -4 -10 -10z"/>
<path d="M8300 2455 c-7 -9 -10 -18 -7 -21 10 -11 37 5 37 21 0 19 -14 19 -30
0z"/>
<path d="M700 2420 c0 -5 5 -10 10 -10 6 0 10 5 10 10 0 6 -4 10 -10 10 -5 0
-10 -4 -10 -10z"/>
<path d="M387 2404 c-11 -11 -8 -52 4 -60 14 -8 30 15 27 40 -3 21 -20 31 -31
20z"/>
<path d="M680 2385 c0 -8 5 -15 10 -15 6 0 10 7 10 15 0 8 -4 15 -10 15 -5 0
-10 -7 -10 -15z"/>
<path d="M740 2365 c0 -9 5 -15 11 -13 6 2 11 8 11 13 0 5 -5 11 -11 13 -6 2
-11 -4 -11 -13z"/>
<path d="M740 2250 c0 -16 41 -83 47 -77 2 3 1 16 -2 30 -8 29 -45 68 -45 47z"/>
<path d="M826 1991 c-12 -14 -16 -26 -10 -38 7 -16 8 -16 11 4 3 14 9 20 19
16 15 -6 18 5 6 25 -7 9 -13 8 -26 -7z"/>
<path d="M7043 1415 c-3 -9 -3 -18 -1 -21 9 -9 38 8 38 22 0 19 -29 18 -37 -1z"/>
<path d="M7490 1230 c0 -5 6 -10 14 -10 8 0 18 5 21 10 3 6 -3 10 -14 10 -12
0 -21 -4 -21 -10z"/>
<path d="M8320 960 c0 -8 -10 -9 -28 -5 -21 4 -33 0 -47 -15 -15 -17 -26 -20
-53 -15 -36 7 -72 -1 -72 -15 0 -13 48 -19 173 -25 106 -4 108 -4 119 20 14
32 4 55 -24 54 -13 0 -33 2 -45 6 -15 5 -23 3 -23 -5z"/>
<path d="M7929 946 c16 -19 44 -21 39 -3 -3 6 -15 14 -28 15 -21 3 -22 2 -11
-12z"/>
<path d="M8065 911 c-6 -11 9 -23 19 -14 9 9 7 23 -3 23 -6 0 -12 -4 -16 -9z"/>
<path d="M9515 870 c-3 -5 -1 -10 4 -10 6 0 11 5 11 10 0 6 -2 10 -4 10 -3 0
-8 -4 -11 -10z"/>
</g>
</svg>
