<?xml version="1.0" standalone="no"?>
<!DOCTYPE svg PUBLIC "-//W3C//DTD SVG 20010904//EN"
 "http://www.w3.org/TR/2001/REC-SVG-20010904/DTD/svg10.dtd">
<svg version="1.0" xmlns="http://www.w3.org/2000/svg"
 width="1280.000000pt" height="944.000000pt" fill-opacity="20%" viewBox="0 0 1280.000000 944.000000"
 preserveAspectRatio="xMidYMid meet">
<metadata>
Created by potrace 1.15, written by Peter Selinger 2001-2017
</metadata>
<g transform="translate(0.000000,944.000000) scale(0.100000,-0.100000)"
fill="#000000" stroke="none">
<path d="M10330 9420 c-40 -10 -89 -16 -106 -13 -22 4 -61 -5 -119 -26 -87
-31 -152 -39 -184 -21 -22 11 -39 -6 -101 -100 -23 -36 -53 -74 -66 -85 -20
-17 -22 -25 -15 -50 6 -23 13 -29 30 -28 33 4 61 -15 61 -40 0 -12 11 -39 25
-59 14 -20 25 -45 25 -54 0 -21 -47 -104 -59 -104 -16 0 -102 -82 -117 -112
-8 -16 -19 -55 -24 -85 -5 -31 -21 -73 -35 -93 -14 -20 -25 -43 -25 -52 0 -9
-11 -29 -23 -45 -13 -15 -26 -37 -29 -48 -3 -11 -9 -28 -13 -37 -5 -14 -2 -18
14 -18 25 0 25 -3 5 -63 -14 -42 -20 -48 -57 -57 -87 -23 -109 -33 -140 -64
-18 -17 -49 -44 -69 -59 l-36 -28 -108 50 c-59 28 -112 51 -118 51 -42 0 -176
-330 -176 -433 0 -34 -4 -47 -17 -52 -30 -11 -75 -72 -69 -93 4 -11 29 -38 57
-62 l50 -42 47 20 c26 11 74 23 106 27 52 7 65 5 103 -16 l43 -24 46 48 c52
53 66 56 144 26 108 -41 118 -48 145 -105 24 -50 53 -77 130 -120 33 -18 33
-103 0 -170 -32 -65 -51 -69 -93 -19 -58 71 -177 75 -254 10 -33 -28 -58 -31
-88 -13 -10 7 -20 10 -22 8 -2 -3 -12 -23 -23 -45 -20 -40 -21 -40 -77 -40
-52 0 -60 -3 -103 -42 -46 -41 -47 -44 -43 -88 5 -38 2 -48 -15 -60 -12 -8
-30 -15 -40 -15 -11 0 -31 -13 -46 -29 -16 -17 -51 -36 -84 -47 -57 -18 -57
-18 -88 5 -46 34 -68 25 -119 -52 -36 -54 -57 -75 -107 -103 -108 -60 -190
-58 -273 7 -68 54 -108 60 -159 25 -21 -15 -44 -39 -51 -54 -20 -42 -50 -125
-50 -138 0 -6 29 -43 64 -81 l65 -69 -37 -49 c-25 -33 -47 -51 -67 -55 -55
-12 -93 -39 -162 -117 -115 -130 -115 -129 -167 -137 -27 -4 -60 -14 -72 -23
-19 -12 -66 -15 -241 -17 l-218 -2 -160 -60 c-172 -65 -212 -84 -289 -139 -45
-33 -53 -35 -95 -29 -52 8 -64 19 -56 52 6 26 8 26 -45 7 -75 -26 -136 -20
-227 24 -45 22 -103 43 -130 47 -71 10 -94 21 -139 65 -33 32 -56 44 -120 61
-70 19 -107 22 -319 23 -188 1 -261 5 -335 20 -63 12 -144 18 -242 19 l-147 1
-55 62 c-35 38 -59 74 -63 95 -3 18 -16 51 -28 73 -13 22 -26 53 -29 68 -4 16
-19 40 -33 53 -23 21 -25 27 -15 49 11 25 11 25 -37 25 -42 0 -57 6 -112 46
-35 26 -81 62 -101 80 -90 80 -110 88 -263 96 -244 13 -360 25 -389 39 -18 9
-40 36 -58 70 l-29 56 46 91 c40 77 45 93 35 112 -7 14 -9 43 -5 83 6 56 4 68
-24 126 -16 35 -41 76 -55 90 -13 14 -40 64 -59 111 l-35 85 -47 3 c-40 3 -49
8 -63 33 -18 31 -25 34 -107 44 -44 6 -56 13 -100 59 -28 29 -66 61 -85 71
-40 20 -50 33 -43 51 2 7 -7 20 -20 29 -36 23 -39 39 -17 91 l20 46 -42 -4
c-24 -3 -63 -10 -88 -16 -25 -7 -57 -14 -72 -17 -38 -7 -58 -31 -58 -72 0 -40
-42 -106 -78 -122 -13 -6 -40 -11 -62 -11 -39 0 -60 -14 -82 -53 -15 -28 -14
-198 1 -255 11 -40 10 -45 -16 -85 -24 -35 -35 -43 -71 -48 -23 -3 -52 -15
-65 -27 -29 -28 -35 -28 -39 1 -3 21 -9 22 -108 28 -113 7 -134 12 -194 54
-38 26 -41 26 -53 9 -7 -10 -13 -30 -13 -44 0 -35 -50 -184 -99 -296 -22 -50
-43 -107 -46 -127 -6 -33 -4 -39 24 -63 25 -21 31 -33 31 -65 0 -41 -9 -49
-30 -24 -9 11 -25 13 -65 9 -47 -6 -54 -4 -64 15 -15 27 -41 27 -135 -4 -42
-14 -87 -25 -99 -25 -12 -1 -40 -9 -62 -20 -22 -11 -47 -19 -56 -20 -16 0 -29
-19 -29 -41 0 -5 18 -9 39 -9 22 0 42 -4 45 -8 3 -5 0 -38 -7 -75 -12 -75 -1
-160 33 -232 60 -130 73 -188 45 -191 -41 -6 -56 -18 -51 -40 5 -19 0 -25 -35
-41 l-41 -18 8 -55 c11 -77 11 -123 1 -137 -5 -7 -24 -15 -42 -19 -18 -3 -46
-19 -61 -35 -15 -16 -46 -34 -69 -40 -54 -15 -95 -41 -188 -121 -63 -54 -86
-68 -112 -68 -18 0 -52 -7 -76 -16 -24 -9 -70 -19 -103 -23 l-58 -6 -20 -50
c-24 -63 -42 -78 -113 -95 -57 -14 -58 -14 -79 12 -11 14 -26 33 -31 43 -10
16 -18 14 -104 -29 -51 -26 -106 -60 -121 -76 -16 -17 -38 -30 -52 -30 -12 0
-28 -4 -34 -8 -16 -10 -46 -83 -40 -98 6 -16 -29 -61 -54 -69 -24 -8 -25 -30
-5 -68 9 -17 11 -35 6 -49 -9 -25 26 -118 45 -118 6 0 27 6 46 14 32 14 38 13
86 -12 50 -26 66 -52 41 -68 -14 -8 -3 -52 21 -85 16 -23 17 -32 8 -57 -10
-25 -8 -33 10 -57 26 -32 27 -43 8 -64 -7 -9 -16 -33 -19 -53 -5 -35 -4 -37
34 -52 22 -9 50 -16 63 -16 13 0 26 -7 30 -15 3 -8 14 -15 25 -15 11 0 36 -19
56 -45 29 -35 36 -50 31 -70 -3 -14 -2 -33 4 -42 5 -10 15 -31 20 -47 10 -27
13 -28 50 -22 35 5 41 3 56 -20 24 -36 82 -62 167 -75 83 -12 70 2 162 -189
35 -73 57 -106 97 -141 50 -44 52 -48 40 -73 -22 -48 -19 -58 62 -216 47 -90
53 -123 27 -149 -29 -29 -47 -26 -85 15 -33 36 -33 36 -65 20 -17 -9 -31 -20
-31 -24 1 -16 37 -112 47 -124 15 -18 21 -42 32 -122 10 -73 20 -86 63 -86 14
0 40 -11 56 -25 18 -15 42 -25 61 -25 24 0 44 -13 93 -60 35 -33 79 -65 98
-71 19 -6 40 -16 45 -23 16 -18 83 -66 92 -66 4 0 23 23 41 51 32 49 35 51 70
45 60 -11 86 -25 103 -55 9 -16 52 -56 95 -89 130 -100 142 -112 149 -142 4
-16 10 -32 13 -34 4 -2 30 6 57 19 71 34 85 32 85 -7 1 -48 55 -104 127 -133
39 -16 62 -32 71 -50 9 -18 21 -26 35 -24 12 1 39 -6 59 -15 21 -9 44 -16 52
-16 8 0 36 -11 62 -25 26 -14 61 -25 78 -25 17 0 64 -9 104 -20 39 -11 86 -20
104 -20 55 0 174 26 199 44 40 27 68 21 85 -21 14 -33 14 -40 -2 -75 -13 -29
-15 -46 -8 -66 12 -35 26 -34 35 1 4 16 23 47 42 70 19 23 38 56 44 72 7 22
25 38 69 62 86 46 107 49 137 19 26 -26 83 -46 132 -46 17 0 46 -3 67 -6 33
-6 37 -9 42 -48 9 -58 17 -67 67 -73 24 -3 47 -11 51 -17 4 -6 10 -36 14 -68
7 -64 13 -68 100 -68 69 0 182 40 251 89 37 28 67 41 88 41 33 0 100 41 126
77 20 28 61 53 85 53 11 0 29 9 39 20 10 11 30 20 45 20 15 0 46 14 69 31 24
17 44 29 46 27 1 -2 10 -18 19 -35 9 -18 20 -33 24 -33 5 0 23 16 42 35 19 19
39 35 45 35 6 0 26 -16 45 -35 45 -46 64 -45 80 5 19 56 29 63 78 46 68 -24
92 -45 92 -80 1 -39 24 -127 33 -126 4 0 14 3 22 7 9 3 26 -4 39 -16 33 -31
42 -170 16 -251 -10 -30 -26 -84 -36 -119 -15 -55 -26 -72 -88 -135 -53 -53
-75 -84 -89 -122 -19 -59 -22 -90 -7 -99 7 -4 8 -31 4 -73 l-7 -67 24 21 c40
36 65 44 137 44 l70 0 6 -42 c3 -24 9 -67 12 -96 7 -60 31 -85 95 -102 47 -13
56 -26 34 -49 -10 -12 -14 -27 -10 -44 4 -15 0 -37 -9 -55 -29 -57 -23 -69 40
-75 63 -6 63 -7 68 -34 2 -10 11 -35 19 -55 13 -30 22 -38 50 -43 47 -9 87 1
127 30 40 29 50 24 85 -46 18 -35 30 -47 47 -47 13 0 32 -3 43 -6 19 -7 20 -3
20 61 0 37 -5 75 -10 83 -5 8 -10 41 -10 72 l0 57 60 3 c57 3 61 5 84 40 l23
36 37 -15 c20 -8 45 -23 57 -34 29 -27 40 -24 79 18 l34 37 36 -17 c32 -15 39
-16 65 -2 16 8 45 15 63 15 40 0 111 37 133 69 9 12 33 33 55 47 l39 25 25
-28 c13 -16 25 -31 25 -35 0 -8 43 -21 145 -43 113 -25 123 -38 73 -107 -10
-13 -6 -23 22 -55 18 -21 45 -45 59 -54 15 -9 39 -29 55 -46 26 -28 31 -29 58
-19 24 9 35 7 66 -10 44 -25 81 -19 123 22 27 26 30 26 47 11 10 -9 30 -17 43
-17 15 0 35 -12 51 -30 34 -39 53 -38 74 3 9 17 18 34 20 36 1 1 15 -9 31 -23
15 -14 31 -26 35 -26 14 0 8 -21 -12 -47 -24 -31 -25 -59 -4 -115 18 -45 79
-118 100 -118 7 0 22 12 33 26 20 25 20 25 0 45 -10 10 -19 28 -19 39 0 11 -6
20 -14 20 -8 0 -18 5 -21 10 -7 12 34 120 45 120 4 0 20 -10 35 -22 26 -20 29
-20 40 -5 13 18 107 47 150 47 13 0 32 10 42 23 15 19 25 22 65 19 37 -3 50 0
68 18 20 20 22 21 35 4 11 -16 16 -15 58 22 26 21 46 45 47 53 0 7 6 11 15 7
12 -4 15 4 15 44 0 63 14 71 40 20 11 -22 25 -40 30 -40 17 0 22 43 10 81 -14
42 -7 89 14 89 7 0 24 -21 38 -47 18 -35 33 -51 59 -61 34 -13 38 -12 95 22
32 20 62 36 66 36 4 0 8 -9 10 -21 3 -19 5 -19 43 10 48 37 53 37 57 9 4 -31
24 -33 49 -4 18 21 25 23 42 15 21 -12 87 2 141 28 26 14 28 18 23 57 -3 23
-9 50 -13 59 -4 13 -1 17 15 17 12 0 21 6 21 15 0 21 18 19 32 -4 12 -19 13
-19 47 8 20 16 46 31 58 35 11 4 24 13 27 21 3 8 14 15 24 15 11 0 25 6 32 14
6 8 18 12 26 9 8 -3 14 0 14 7 0 7 8 24 19 38 10 15 20 36 23 47 2 13 11 19
25 18 12 -1 26 4 33 12 8 9 22 12 40 9 22 -5 31 -1 39 15 7 12 11 28 9 36 -3
16 22 51 104 141 60 66 81 110 58 124 -10 6 -9 12 5 26 14 14 16 28 11 70 -3
29 -1 65 5 83 11 30 12 31 30 15 17 -15 20 -14 53 18 20 20 36 45 36 58 0 15
5 20 14 17 18 -7 42 20 51 56 4 15 11 30 16 33 5 3 9 14 9 25 0 10 7 19 15 19
8 0 21 15 29 34 11 27 23 37 56 47 51 15 67 38 76 106 3 29 12 54 20 57 10 4
12 18 7 56 -6 56 1 61 44 33 l26 -17 -7 37 c-4 22 -2 45 4 58 11 19 10 20 -12
14 -12 -4 -33 -13 -45 -21 -36 -22 -27 -1 17 45 l41 42 -32 27 c-18 15 -52 38
-76 51 -43 24 -44 24 -95 8 -46 -14 -54 -15 -68 -2 -9 8 -29 15 -43 15 -15 0
-27 4 -27 10 0 10 63 30 99 30 15 0 38 15 60 39 27 28 52 43 96 56 82 23 87
28 68 73 -17 40 -33 56 -79 76 -36 16 -74 61 -74 87 0 16 4 17 26 9 14 -6 41
-22 60 -36 43 -33 45 -14 2 21 l-33 27 43 -5 c23 -3 42 -3 42 -1 0 20 -36 66
-65 84 -21 13 -35 30 -35 41 0 11 -22 44 -49 72 -41 43 -54 68 -80 146 -17 51
-31 102 -31 112 0 20 -83 181 -109 213 -20 23 -108 66 -137 66 -14 0 -24 8
-28 23 -10 39 -7 56 23 97 15 21 34 53 41 70 7 16 19 30 27 30 7 0 44 28 81
63 37 34 81 69 99 76 30 12 52 45 39 59 -3 3 3 15 13 26 11 12 21 26 22 31 2
6 23 15 48 22 63 16 134 47 149 66 7 8 35 18 63 22 27 4 56 14 64 22 17 16 38
54 33 57 -27 15 -108 42 -108 35 0 -12 -64 -12 -129 1 -57 11 -109 44 -122 78
-8 20 -12 21 -31 11 -13 -7 -45 -31 -73 -54 -27 -24 -60 -46 -73 -50 -17 -5
-20 -10 -12 -20 15 -18 -6 -32 -68 -46 -47 -11 -55 -10 -102 12 l-52 24 7 50
c4 30 16 63 32 83 l25 33 -21 23 c-19 20 -35 24 -115 29 -51 4 -105 11 -119
18 -27 12 -77 94 -77 125 0 44 23 96 58 129 l37 35 25 -29 25 -29 45 24 c25
12 58 23 73 24 38 0 91 52 84 81 -3 12 -2 31 3 44 9 23 120 105 142 105 15 0
78 22 95 33 6 4 14 21 18 37 4 16 18 39 32 50 14 11 43 47 65 80 21 33 42 60
46 60 5 0 23 -11 41 -25 19 -13 54 -27 79 -31 48 -7 102 -52 102 -85 0 -23
-90 -159 -126 -189 -17 -15 -29 -36 -30 -50 -1 -14 -4 -32 -8 -42 -6 -12 0
-18 24 -23 25 -5 29 -10 20 -20 -6 -8 -10 -24 -8 -35 2 -18 -7 -27 -44 -47
-27 -14 -48 -29 -48 -34 0 -18 37 -8 59 15 14 14 39 26 65 30 36 6 46 13 74
56 23 35 39 50 55 50 12 0 31 6 42 14 11 7 37 19 57 25 21 7 44 21 51 30 6 10
30 21 52 24 22 4 69 10 105 15 85 13 96 18 111 53 7 18 42 53 83 84 39 30 94
72 123 94 28 23 60 41 70 41 44 0 120 86 188 213 14 26 27 47 30 47 2 0 28
-21 56 -46 l53 -47 74 7 c63 5 162 35 162 49 0 3 -11 30 -25 62 -14 32 -24 60
-21 62 2 2 18 -3 35 -11 16 -9 40 -16 51 -16 30 0 141 66 168 101 14 17 33 29
47 29 21 0 24 6 30 53 8 65 11 70 52 91 42 21 43 21 43 -9 0 -30 36 -105 50
-105 6 0 10 13 10 30 0 26 6 32 49 51 83 35 91 50 101 180 9 119 1 222 -26
338 -17 75 -15 77 59 87 52 7 60 16 71 77 7 37 9 38 38 32 16 -4 55 -18 85
-32 69 -32 141 -42 154 -22 5 8 9 31 9 51 0 30 6 42 34 63 26 20 39 42 56 96
13 39 33 83 45 98 33 39 45 66 45 103 1 18 7 44 15 58 8 14 14 44 15 66 0 24
6 47 15 54 8 7 15 34 17 63 3 49 5 53 41 71 49 24 65 56 49 100 -15 39 -16
111 -2 136 17 31 -11 43 -88 38 -59 -4 -84 -13 -187 -67 -65 -33 -124 -61
-131 -61 -7 0 -20 -13 -28 -29 -21 -39 -113 -60 -181 -41 -26 7 -64 10 -90 7
-38 -6 -45 -4 -45 11 0 9 -14 29 -32 44 -31 25 -33 30 -36 110 -3 56 -9 89
-19 100 -11 12 -14 29 -10 51 5 34 5 34 -33 34 -47 0 -79 24 -129 95 -20 28
-50 60 -68 71 -28 16 -37 17 -66 6 -32 -11 -38 -10 -81 19 -58 39 -91 48 -121
32 -34 -18 -83 9 -123 71 -33 49 -33 51 -21 99 11 43 10 51 -8 83 -12 19 -28
59 -37 89 -8 30 -27 64 -40 77 -31 29 -60 111 -54 152 3 20 -1 34 -14 46 -10
9 -18 29 -18 45 0 15 -13 56 -30 91 -17 37 -27 71 -24 84 4 15 0 23 -15 28
-16 5 -20 12 -15 31 3 13 2 30 -4 37 -5 6 -12 24 -16 39 -3 15 -15 32 -26 38
-11 6 -20 17 -20 25 0 7 -13 28 -29 46 -17 18 -31 44 -33 58 -3 27 -32 45
-110 72 -33 11 -40 10 -58 -6 -20 -18 -21 -17 -73 18 -30 21 -62 37 -73 37
-10 0 -30 6 -44 14 -78 43 -142 76 -148 75 -4 -1 -41 -9 -82 -19z"/>
<path d="M7627 379 c-10 -6 -29 -8 -43 -5 -14 4 -34 0 -48 -10 -20 -12 -29
-13 -46 -4 -20 10 -21 10 -16 -8 5 -15 1 -22 -14 -27 -11 -4 -28 -17 -36 -31
-9 -13 -32 -33 -50 -45 -34 -20 -35 -23 -29 -68 14 -110 12 -106 73 -146 52
-34 60 -36 87 -26 17 7 70 26 120 42 49 17 93 36 97 42 4 6 10 34 14 62 6 50
30 106 65 157 23 32 24 51 4 68 -13 11 -22 10 -51 -3 -31 -15 -38 -16 -71 -2
-19 8 -36 15 -37 15 0 0 -9 -5 -19 -11z"/>
</g>
</svg>
