<?xml version="1.0" standalone="no"?>
<!DOCTYPE svg PUBLIC "-//W3C//DTD SVG 20010904//EN"
 "http://www.w3.org/TR/2001/REC-SVG-20010904/DTD/svg10.dtd">
<svg version="1.0" xmlns="http://www.w3.org/2000/svg"
 width="823.000000pt" height="1280.000000pt" fill-opacity="40%" viewBox="0 0 823.000000 1280.000000"
 preserveAspectRatio="xMidYMid meet">
<metadata>
Created by potrace 1.15, written by Peter Selinger 2001-2017
</metadata>
<g transform="translate(0.000000,1280.000000) scale(0.100000,-0.100000)"
fill="#000000" stroke="none">
<path d="M4036 12784 c-9 -8 -23 -41 -32 -72 -62 -226 -75 -249 -151 -270 -39
-12 -93 -60 -93 -83 0 -22 31 -67 64 -92 19 -15 86 -51 148 -81 63 -30 122
-64 133 -76 20 -22 20 -22 0 -37 -35 -26 -198 -3 -281 40 -16 8 -60 40 -97 71
-89 72 -102 73 -94 4 3 -29 9 -93 13 -142 l7 -89 -82 56 c-46 31 -84 57 -87
57 -12 0 -34 -66 -34 -105 0 -44 4 -50 64 -108 78 -76 84 -91 49 -123 -44 -41
-74 -33 -152 42 -96 90 -121 81 -121 -42 0 -28 7 -71 15 -94 43 -122 -22 -103
-115 35 -56 83 -77 96 -102 65 -51 -62 8 -282 126 -478 50 -83 60 -140 53
-306 -8 -202 1 -188 -121 -180 -109 7 -146 -2 -146 -35 0 -23 30 -50 125 -114
89 -59 105 -78 89 -104 -16 -27 -72 -62 -117 -74 -51 -13 -96 -5 -138 26 -19
13 -47 31 -62 40 -81 46 -213 -67 -192 -165 4 -17 26 -56 50 -88 53 -71 68
-105 52 -121 -18 -18 -42 -13 -140 25 -53 21 -118 38 -153 41 -57 5 -63 4 -78
-18 -12 -20 -13 -36 -6 -89 5 -36 10 -68 10 -72 0 -5 -22 -8 -50 -8 -86 0
-118 -28 -90 -80 11 -20 94 -50 137 -50 38 0 82 -28 89 -56 15 -59 -49 -168
-114 -192 -15 -6 -72 -12 -127 -15 -147 -6 -172 -25 -115 -91 73 -82 240 -96
423 -35 106 35 146 68 235 193 64 89 97 125 158 171 91 69 242 157 248 146 3
-4 8 -25 11 -47 l6 -39 -120 -80 -120 -80 -36 -80 c-29 -64 -53 -97 -120 -165
l-83 -85 -1 -100 c-2 -97 -16 -229 -26 -246 -3 -4 -56 -39 -118 -76 l-112 -68
62 -3 c35 -2 79 1 98 7 19 5 35 6 35 2 0 -3 -36 -42 -80 -86 l-80 -79 51 -52
51 -51 -35 -22 c-46 -28 -121 -109 -145 -157 -11 -22 -26 -69 -32 -104 -23
-118 -91 -244 -177 -326 -27 -25 -33 -39 -33 -71 0 -55 22 -73 91 -73 34 1 80
11 124 28 l70 27 52 150 c28 83 66 200 84 261 l32 110 72 47 c72 47 72 48 79
100 10 87 7 139 -14 207 -11 36 -16 66 -12 68 4 1 111 64 238 141 l231 138 6
-141 c7 -170 22 -228 74 -278 39 -37 111 -78 137 -78 8 0 18 -5 22 -12 4 -6 3
-9 -2 -6 -5 3 -52 11 -104 17 -52 6 -107 14 -122 17 -26 5 -27 4 -77 -150 -28
-85 -51 -166 -51 -180 0 -14 33 -91 74 -173 l74 -148 -122 -125 c-87 -90 -153
-171 -236 -289 l-114 -165 -12 -94 c-7 -51 -14 -95 -16 -98 -3 -2 -35 -10 -72
-17 -37 -6 -68 -16 -69 -22 -2 -9 230 -205 243 -205 4 0 21 21 39 46 l33 45
72 -104 c39 -57 94 -138 121 -180 28 -42 53 -76 56 -77 4 0 25 25 49 56 l42
55 -9 120 c-4 65 -6 119 -3 119 4 -1 215 -267 231 -291 3 -5 41 -2 90 8 65 13
92 23 121 48 98 83 195 110 241 67 13 -12 33 -22 45 -22 25 0 85 50 109 90
l16 28 66 -23 c36 -13 103 -26 149 -30 86 -8 91 -12 68 -54 -13 -23 -17 -23
-117 -22 -135 2 -162 -10 -205 -95 -33 -64 -131 -204 -222 -316 l-54 -68 31
-48 c48 -75 98 -191 110 -255 11 -63 2 -136 -23 -186 -14 -27 -14 -29 15 -57
l29 -28 57 28 56 27 -6 -115 -6 -116 57 -16 c31 -9 60 -18 64 -20 3 -2 43 39
88 91 45 52 85 95 89 95 4 0 15 -23 24 -52 l16 -51 -64 -82 -64 -82 25 -37
c23 -33 24 -39 13 -76 -7 -22 -15 -40 -18 -40 -3 0 -48 7 -100 15 -52 9 -100
14 -106 12 -16 -7 -51 -157 -39 -165 6 -4 41 -29 77 -56 62 -46 67 -53 67 -87
0 -36 -4 -40 -112 -119 -62 -45 -113 -85 -113 -88 0 -4 7 -46 14 -94 l14 -87
144 -102 c79 -57 142 -106 141 -110 -2 -4 -23 -28 -47 -55 l-44 -47 -33 39
c-19 21 -64 80 -101 131 -37 51 -71 91 -74 90 -4 -1 -25 -19 -48 -40 l-41 -37
40 -60 c22 -32 40 -62 40 -66 0 -4 -20 -29 -45 -55 -44 -47 -46 -48 -54 -26
-4 12 -20 57 -35 99 -30 82 -33 85 -125 108 -63 16 -100 6 -143 -39 -41 -44
-94 -61 -133 -43 -13 6 -52 47 -86 92 l-64 82 -55 -61 -55 -61 -87 0 c-49 0
-88 2 -88 5 0 3 13 35 30 71 l30 67 -109 116 c-60 64 -121 127 -135 140 l-27
25 -76 -75 c-43 -40 -79 -75 -81 -75 -2 -1 33 -75 78 -163 l80 -162 -109 -132
c-115 -139 -104 -131 -301 -238 -6 -3 6 -45 31 -106 l41 -101 149 109 c82 60
151 109 154 109 2 0 43 -49 90 -110 l86 -110 5 -212 5 -213 -236 -205 c-130
-113 -246 -212 -258 -221 -20 -15 -33 -15 -132 -3 -60 7 -114 13 -120 13 -5 1
-46 -44 -90 -99 -54 -67 -87 -100 -100 -100 -11 0 -112 16 -225 34 -113 18
-206 33 -207 32 -1 0 -9 -80 -17 -176 -9 -96 -18 -186 -21 -201 -3 -22 4 -29
54 -57 51 -28 62 -40 105 -117 26 -47 52 -87 57 -90 4 -3 59 -10 121 -15 l113
-9 70 75 70 75 125 -3 125 -3 17 -160 c9 -88 17 -171 17 -184 l1 -24 93 7 92
7 46 46 46 45 64 -20 c73 -22 63 -6 125 -204 l37 -117 109 -92 110 -92 91 12
92 12 102 109 103 108 63 -14 c64 -14 177 -62 177 -75 0 -4 -51 -48 -113 -98
l-113 -92 -39 -92 c-22 -51 -38 -97 -37 -104 1 -6 -5 -14 -15 -17 -34 -10
-258 -56 -275 -56 -10 0 -99 52 -198 115 l-181 115 -202 -5 -202 -5 -65 -109
c-36 -60 -73 -123 -82 -140 -16 -30 -20 -31 -81 -31 l-63 0 -40 75 -40 74 -71
-72 -71 -72 33 -108 33 -107 -154 -115 c-204 -152 -183 -141 -240 -123 -27 8
-54 14 -60 11 -6 -2 -31 -42 -55 -88 l-44 -84 -87 -41 -87 -42 -29 -76 -29
-77 -239 -7 c-132 -4 -259 -11 -284 -15 -50 -9 -46 0 -42 -113 2 -49 2 -49 39
-55 70 -12 184 -45 223 -65 89 -45 137 -107 149 -189 l6 -46 83 79 c61 58 91
96 117 149 19 38 35 76 35 83 0 7 12 22 27 34 37 29 106 22 178 -19 l54 -30
24 44 c14 24 37 70 51 100 23 50 28 56 48 49 56 -17 199 -84 545 -253 204
-101 379 -181 389 -179 24 4 105 144 244 420 l120 237 28 -9 c225 -74 1110
-324 1253 -354 40 -9 52 14 57 110 l5 84 36 0 c20 0 153 -7 296 -15 143 -8
267 -15 276 -15 15 0 13 16 -16 130 -18 71 -31 130 -29 130 1 0 125 -88 275
-196 l272 -197 322 22 323 22 159 -106 160 -105 302 130 c288 124 331 140 331
123 0 -5 13 -23 28 -41 l28 -33 86 99 87 98 152 17 c84 9 154 19 157 22 7 7
90 449 86 455 -3 2 -116 -13 -251 -34 -167 -25 -248 -34 -253 -27 -3 6 -19 65
-35 131 -33 138 -14 125 -190 135 -111 6 -183 21 -169 35 13 13 214 30 349 30
l110 0 68 128 67 129 -90 26 c-140 42 -129 51 53 44 l157 -7 74 48 c41 26 75
51 75 56 1 5 -24 42 -54 82 -30 40 -55 75 -55 78 0 2 49 -9 110 -24 l110 -28
73 82 c215 238 336 426 404 623 21 64 26 97 27 184 l1 106 -48 96 c-127 255
-453 477 -814 552 -100 21 -224 23 -287 5 -94 -26 -166 -126 -154 -212 5 -34
4 -34 -68 -7 -103 39 -183 135 -184 221 0 58 19 72 166 119 154 49 187 98 164
244 -20 126 -96 326 -187 491 -18 34 -34 78 -36 99 -2 42 -9 38 100 65 59 15
68 36 48 107 -20 70 -56 142 -147 297 -97 165 -121 220 -114 260 7 36 48 80
113 120 58 36 79 69 64 102 -18 41 -100 122 -207 205 l-100 78 -75 141 c-132
253 -236 345 -412 366 -116 13 -161 43 -208 136 -103 203 -109 790 -14 1265
19 93 22 128 14 145 -5 13 -40 41 -76 63 -78 48 -138 111 -180 191 -29 55 -44
99 -103 289 -45 146 -106 237 -183 277 -36 18 -52 20 -127 14 -202 -15 -282
-24 -389 -46 -149 -29 -258 -26 -294 8 -51 48 -42 102 21 129 39 16 145 20
258 8 81 -8 85 -5 119 79 14 36 26 52 41 54 11 2 72 -22 134 -53 62 -30 123
-55 136 -55 52 0 73 63 56 167 -19 115 -67 184 -147 210 l-30 10 251 254 c328
333 445 466 552 632 70 107 102 178 113 251 29 181 42 203 150 267 83 48 109
84 109 151 0 41 -5 54 -36 88 -67 74 -204 135 -424 190 -179 44 -283 61 -432
69 l-137 7 -123 62 c-72 37 -136 62 -153 62 -19 0 -61 -19 -110 -50 -117 -74
-179 -102 -222 -101 -133 4 -168 4 -258 1 -126 -5 -150 5 -140 58 13 73 88
155 153 168 23 5 39 0 64 -17 23 -17 47 -24 80 -24 46 0 50 3 123 75 105 104
101 117 -35 127 -87 7 -112 17 -108 43 2 12 138 113 373 276 521 362 508 353
566 442 67 105 110 192 116 239 5 37 3 41 -30 56 -99 47 -450 87 -766 87 -213
0 -239 -5 -260 -43 -22 -40 -90 -127 -99 -127 -4 0 -13 34 -20 76 -17 110 -50
174 -129 253 -98 98 -171 131 -207 95z"/>
<path d="M1497 7963 l-37 -37 -101 33 c-55 18 -102 31 -103 29 -2 -1 -26 -46
-54 -99 l-52 -97 -75 15 c-48 9 -93 25 -126 46 l-51 31 -22 -25 c-11 -13 -63
-102 -115 -197 -71 -132 -97 -171 -110 -168 -28 8 -251 19 -251 12 0 -3 18
-42 40 -86 22 -44 40 -83 40 -88 0 -4 -106 -39 -235 -77 -145 -42 -235 -73
-233 -80 2 -6 104 -141 228 -298 l225 -287 95 0 c52 0 111 3 131 6 l36 6 23
130 c13 71 26 131 30 133 7 4 229 54 231 51 0 0 8 -66 17 -146 l17 -145 92
-69 91 -70 -39 -78 -39 -77 73 -21 c39 -12 87 -26 105 -32 18 -5 34 -8 36 -6
1 1 15 24 30 51 15 26 29 47 32 47 2 0 48 -32 101 -71 91 -66 99 -70 138 -64
94 14 87 8 152 128 l60 112 174 13 c96 8 175 15 177 16 6 7 35 477 29 482 -4
4 -57 -1 -118 -11 -116 -19 -112 -19 -207 16 -21 8 -13 18 105 121 l128 112
-3 55 c-2 31 -8 61 -12 66 -5 6 -40 26 -78 44 l-69 33 -16 92 c-16 83 -16 100
-2 186 8 52 15 102 15 112 0 10 -50 47 -141 102 l-142 86 -91 0 -91 0 -38 -37z"/>
</g>
</svg>
