<?xml version="1.0" standalone="no"?>
<!DOCTYPE svg PUBLIC "-//W3C//DTD SVG 20010904//EN"
 "http://www.w3.org/TR/2001/REC-SVG-20010904/DTD/svg10.dtd">
<svg version="1.0" xmlns="http://www.w3.org/2000/svg"
 width="1239.000000pt" height="1280.000000pt" fill-opacity="20%" viewBox="0 0 1239.000000 1280.000000"
 preserveAspectRatio="xMidYMid meet">
<metadata>
Created by potrace 1.15, written by Peter Selinger 2001-2017
</metadata>
<g transform="translate(0.000000,1280.000000) scale(0.100000,-0.100000)"
fill="#000000" stroke="none">
<path d="M4415 12661 l-351 -139 -127 -97 c-126 -95 -129 -98 -170 -181 l-42
-85 -65 8 c-102 12 -134 8 -308 -45 -125 -39 -170 -48 -190 -42 -168 54 -509
140 -531 135 -14 -3 -49 -13 -78 -21 l-52 -15 -30 -92 c-17 -51 -31 -95 -31
-98 0 -3 18 -14 40 -24 45 -21 48 -28 21 -72 -23 -36 -24 -34 64 -83 33 -18
61 -34 63 -36 2 -1 -19 -23 -47 -49 -28 -26 -51 -52 -51 -58 0 -5 23 -36 51
-68 l51 -59 -38 -46 c-22 -26 -49 -58 -61 -73 -12 -14 -22 -30 -23 -36 0 -5
33 -46 74 -90 l73 -79 84 -21 84 -21 10 -75 10 -74 85 -8 c130 -13 127 -11
160 -77 16 -33 30 -62 30 -65 0 -3 -67 -38 -148 -79 l-149 -75 -32 -62 -31
-62 41 -53 c44 -58 44 -56 -8 -121 l-33 -42 65 -36 c36 -20 67 -40 70 -45 3
-5 -51 -32 -119 -60 l-125 -53 -84 -126 c-52 -78 -92 -151 -106 -192 l-22 -66
-67 -28 c-37 -15 -72 -33 -79 -39 -6 -6 -63 -104 -125 -218 l-114 -208 -100
-69 c-55 -39 -106 -77 -113 -85 -7 -9 -59 -93 -115 -187 l-101 -172 -205 -55
-205 -54 -82 88 -82 89 -23 -30 c-13 -16 -95 -123 -183 -237 l-161 -208 -20
-105 c-12 -58 -18 -107 -15 -109 3 -2 67 -16 141 -31 74 -16 138 -31 142 -34
4 -4 -2 -67 -13 -141 -12 -74 -17 -136 -13 -138 5 -1 54 -26 109 -55 l99 -52
103 -280 c57 -154 103 -284 103 -290 0 -11 -142 -85 -163 -85 -7 0 -34 22 -61
49 l-48 49 -97 -63 -96 -63 -225 48 c-124 27 -235 52 -246 54 -20 5 -22 1 -28
-62 -4 -37 -9 -79 -12 -95 l-6 -27 -101 0 -102 0 -67 -45 -68 -45 193 -215
192 -214 160 0 160 0 135 73 c74 41 137 72 138 71 4 -3 -36 -208 -41 -210 -1
0 -34 -28 -73 -62 l-70 -62 -199 -21 c-110 -12 -201 -23 -203 -25 -2 -2 -1
-26 3 -53 l6 -49 304 -281 304 -282 153 0 153 0 156 66 156 66 63 279 c60 262
65 280 85 275 11 -2 68 -12 127 -22 l107 -17 -27 -32 c-15 -18 -48 -57 -74
-87 l-47 -54 64 -322 64 -322 -30 -156 c-16 -86 -29 -169 -29 -184 0 -22 28
-161 55 -277 4 -18 13 -23 35 -23 36 0 36 5 10 -155 l-20 -125 99 -422 99
-423 84 -180 c46 -99 93 -200 103 -225 10 -25 20 -46 21 -48 1 -2 20 6 43 18
23 11 41 19 42 18 0 -2 6 -61 13 -133 l14 -130 159 -286 159 -286 53 -232 c29
-128 59 -254 66 -280 10 -37 46 -92 151 -228 l137 -180 192 -533 192 -533 149
-183 149 -184 65 0 65 0 86 75 86 74 17 108 c10 59 20 117 23 129 4 18 33 30
174 75 l169 53 0 63 c0 59 5 74 75 213 l75 150 103 0 c57 0 106 2 108 4 2 2
-1 127 -6 278 l-10 273 106 334 107 333 -43 97 -42 96 -12 364 -11 364 52 83
53 83 120 3 120 3 71 123 c40 68 75 126 78 129 3 3 90 29 193 57 l188 52 60
112 60 112 365 280 365 280 180 221 180 222 275 148 275 148 148 158 147 158
0 161 0 162 193 85 192 85 40 75 c22 41 43 78 46 81 4 4 16 -42 28 -101 13
-59 27 -125 32 -145 l9 -36 83 32 c81 31 82 32 87 71 l5 40 14 -43 c8 -24 18
-45 22 -48 16 -9 59 8 59 25 0 9 -42 219 -93 466 -91 437 -94 453 -86 535 4
47 8 113 8 147 l1 62 -124 103 c-69 57 -123 108 -122 113 2 6 34 54 72 107
l69 98 82 0 c45 0 84 3 86 8 3 4 0 39 -6 77 l-12 70 -84 10 -84 10 -18 50
c-10 28 -18 60 -18 73 -1 19 133 302 143 302 2 0 30 -40 62 -90 33 -49 62 -90
66 -90 3 0 23 29 43 65 20 36 40 63 44 61 4 -3 25 -43 45 -90 l39 -86 54 0
c59 0 54 -5 88 85 5 14 19 -24 51 -140 43 -159 43 -160 91 -202 26 -23 62 -49
78 -57 19 -9 183 -31 455 -61 234 -26 438 -50 454 -54 29 -7 27 -10 -222 -268
-139 -144 -252 -266 -252 -273 0 -11 79 -273 83 -275 1 -1 39 -30 85 -64 46
-35 85 -61 86 -59 2 1 49 72 105 156 57 85 105 152 107 149 5 -4 48 -172 164
-632 24 -93 46 -174 50 -178 9 -10 210 89 210 104 0 5 -13 63 -30 127 -39 158
-32 186 51 197 47 7 49 8 49 39 0 52 21 350 25 354 2 2 83 28 180 56 l177 53
108 278 108 279 106 138 106 139 10 137 c5 75 10 147 10 159 0 17 48 62 187
179 103 86 196 160 208 164 11 4 91 11 177 15 l158 7 5 32 c3 17 13 80 23 141
l17 109 52 31 53 30 0 55 c0 54 -2 57 -53 108 l-53 53 -160 32 c-154 32 -159
34 -158 58 1 13 5 60 9 104 l6 81 -33 16 c-30 14 -37 27 -72 127 -22 61 -44
111 -49 111 -5 0 -79 -28 -164 -61 l-155 -61 -86 6 c-48 4 -114 9 -147 12
l-60 6 -320 -246 -320 -246 -130 -51 c-71 -27 -196 -76 -277 -107 l-148 -57 0
-66 0 -66 94 -42 94 -43 -42 -94 c-37 -84 -44 -94 -71 -99 -16 -3 -237 -28
-490 -56 l-460 -50 -163 42 -163 42 -34 67 -34 67 40 39 c21 21 39 41 39 45 0
3 -18 14 -40 24 l-40 18 0 149 c0 81 -3 148 -7 147 -5 0 -62 -19 -128 -42
l-120 -42 -35 -180 c-20 -99 -44 -195 -54 -214 l-18 -34 53 -53 53 -53 -29
-71 c-16 -39 -32 -73 -35 -75 -4 -3 -81 -14 -172 -26 l-165 -21 -204 46 c-112
25 -325 73 -474 106 l-270 61 -130 129 -130 129 -320 11 -320 11 -550 316
c-302 173 -562 323 -576 332 l-26 16 63 234 c35 129 67 238 71 241 5 4 70 51
146 105 76 54 137 101 135 106 -2 5 -147 97 -323 204 l-320 197 -98 -7 c-54
-3 -103 -8 -110 -11 -8 -3 -33 37 -66 105 l-54 109 10 128 10 129 -64 139
c-35 77 -60 142 -56 146 4 4 28 23 53 43 l46 36 53 -85 53 -84 31 22 c133 92
228 171 223 185 -3 8 -17 52 -30 99 -14 46 -27 88 -31 93 -3 6 -48 33 -100 62
-92 51 -95 54 -95 88 0 20 -5 90 -10 156 -6 78 -6 122 1 126 5 3 63 14 129 24
l119 18 6 51 c15 129 10 119 111 208 l94 83 64 193 c35 105 61 192 57 192 -4
0 -33 -9 -63 -19 l-56 -19 -7 36 c-3 21 -8 45 -11 54 -4 14 -292 210 -305 207
-2 0 -162 -63 -354 -138z"/>
</g>
</svg>
