<?xml version="1.0" standalone="no"?>
<!DOCTYPE svg PUBLIC "-//W3C//DTD SVG 20010904//EN"
 "http://www.w3.org/TR/2001/REC-SVG-20010904/DTD/svg10.dtd">
<svg version="1.0" xmlns="http://www.w3.org/2000/svg"
 width="1280.000000pt" height="714.000000pt" fill-opacity="20%" viewBox="0 0 1280.000000 714.000000"
 preserveAspectRatio="xMidYMid meet">
<metadata>
Created by potrace 1.15, written by Peter Selinger 2001-2017
</metadata>
<g transform="translate(0.000000,714.000000) scale(0.100000,-0.100000)"
fill="#000000" stroke="none">
<path d="M1110 7126 c0 -7 4 -37 10 -65 8 -45 7 -58 -11 -93 -19 -36 -20 -48
-11 -107 10 -65 9 -66 -19 -96 -16 -17 -37 -55 -48 -85 -17 -50 -21 -55 -46
-53 -15 1 -29 4 -32 7 -11 11 13 82 43 126 l33 48 -19 39 c-20 42 -212 233
-234 233 -7 0 -25 -9 -38 -20 -29 -22 -34 -58 -44 -325 -6 -143 -9 -158 -56
-315 -65 -215 -218 -540 -336 -717 l-82 -122 0 -118 c0 -65 -5 -160 -10 -212
-9 -80 -16 -104 -49 -165 -24 -43 -52 -78 -70 -89 -30 -17 -31 -21 -31 -86 0
-55 4 -71 20 -86 29 -26 29 -124 0 -150 -18 -16 -20 -31 -20 -125 l0 -107 40
-51 c38 -48 40 -53 40 -120 0 -67 1 -72 30 -92 24 -17 39 -21 64 -16 30 6 34
4 40 -18 3 -13 2 -34 -2 -46 l-8 -21 -26 21 -27 20 -15 -22 c-11 -16 -16 -46
-16 -105 0 -46 3 -83 8 -83 4 0 27 -18 51 -38 39 -34 42 -41 32 -60 -6 -12
-20 -22 -30 -22 -10 0 -23 -11 -29 -25 -10 -21 -3 -43 49 -167 33 -79 78 -187
100 -242 l40 -99 -21 -22 c-34 -37 -26 -75 28 -126 26 -26 67 -54 92 -63 77
-30 124 -71 135 -119 l11 -42 59 -3 c96 -4 105 -8 105 -45 0 -25 6 -36 29 -50
18 -10 52 -56 89 -119 56 -96 61 -109 70 -191 5 -49 12 -90 14 -92 2 -3 112
-21 244 -40 297 -44 286 -41 280 -63 -5 -14 74 -65 407 -263 l412 -247 230
-37 c264 -44 427 -65 436 -56 4 3 14 27 24 53 24 64 47 68 213 33 l130 -28
194 -196 194 -196 28 -116 27 -117 163 -101 c90 -55 166 -101 170 -101 23 0
74 52 121 125 36 57 61 84 78 89 14 3 69 -3 122 -14 92 -19 100 -23 165 -77
63 -53 71 -64 99 -140 44 -119 123 -254 202 -343 63 -71 71 -85 82 -142 9 -46
29 -92 72 -165 l60 -101 83 -41 c72 -36 91 -41 151 -41 66 0 71 -2 91 -30 18
-25 28 -30 61 -30 l39 0 0 52 c0 29 -10 117 -22 195 l-22 142 24 68 c88 254
183 333 403 333 48 0 58 3 68 22 7 12 34 46 61 74 l49 52 -11 47 c-9 41 -8 49
7 61 26 20 32 18 50 -22 20 -42 29 -41 142 11 69 33 79 35 177 35 81 0 115 -4
156 -21 47 -18 59 -19 117 -9 35 6 74 18 85 26 11 8 25 14 31 14 6 0 35 -29
63 -65 42 -51 60 -66 94 -76 37 -9 48 -8 84 9 35 17 48 19 89 10 62 -13 125 3
125 32 0 27 3 26 59 -18 27 -21 63 -44 80 -52 29 -12 34 -11 56 10 18 17 25
34 25 61 l0 37 -65 17 c-36 10 -68 22 -72 27 -8 14 29 77 42 71 8 -2 14 11 18
37 6 44 17 63 24 43 2 -7 11 -9 18 -7 8 3 19 3 26 -1 7 -5 0 -13 -20 -21 -44
-18 -39 -49 8 -50 33 -1 33 -1 29 43 l-3 43 37 0 c30 0 40 5 55 30 16 28 21
30 76 30 48 0 70 6 113 31 70 39 269 76 324 60 19 -6 64 -15 99 -21 35 -5 65
-11 66 -12 1 -2 19 -33 39 -69 34 -62 40 -68 83 -78 l46 -12 82 81 82 82 57
-11 c49 -9 67 -20 129 -73 40 -35 105 -83 145 -107 l72 -43 0 -82 c0 -62 -4
-88 -19 -109 -16 -24 -17 -35 -8 -64 9 -28 14 -33 31 -28 50 16 78 17 87 4 5
-8 9 -42 9 -76 0 -53 5 -70 35 -120 28 -47 39 -57 62 -58 24 0 30 -6 41 -42 8
-23 22 -45 31 -48 12 -4 25 -30 40 -80 l21 -74 50 -7 c46 -6 54 -11 101 -69
61 -76 92 -88 183 -73 63 10 64 11 86 57 21 45 21 50 10 251 l-11 204 -120
168 c-109 152 -121 174 -131 231 -10 55 -20 74 -98 177 -48 64 -90 127 -94
140 -4 14 -11 34 -16 45 -5 11 -20 57 -35 103 -22 72 -25 101 -25 223 0 112 3
145 16 164 9 14 20 22 25 19 5 -3 9 11 9 30 0 31 3 36 25 38 14 0 30 1 37 2 6
1 13 -6 16 -14 3 -8 1 -12 -3 -8 -13 12 -45 -11 -45 -33 0 -16 6 -19 35 -17
35 2 36 3 33 38 -2 25 -9 38 -26 45 -18 8 -21 15 -17 40 15 72 25 85 68 85 31
0 48 7 69 26 26 26 28 26 53 10 36 -24 45 -12 12 15 -43 33 -36 69 24 123 28
25 55 46 60 46 5 0 10 21 11 48 1 36 2 39 5 15 5 -37 31 -45 54 -17 16 19 0
50 -25 48 -27 -3 -18 20 34 89 52 69 75 86 147 107 42 13 43 14 43 55 0 39 5
46 85 123 47 45 87 82 90 82 2 0 2 -7 -1 -15 -3 -8 -2 -20 3 -27 5 -9 10 -2
13 21 7 49 28 51 33 4 l4 -38 1 36 c1 20 9 42 17 49 8 7 15 29 15 48 0 28 -8
45 -37 74 -20 21 -34 40 -31 44 4 3 39 14 79 24 91 24 114 45 105 94 -6 29
-14 39 -43 51 -19 8 -61 15 -92 15 l-56 1 37 19 c40 22 78 68 78 97 0 10 -11
41 -24 70 -31 66 -37 159 -13 194 11 15 17 43 17 81 0 52 -3 59 -26 71 l-26
14 40 16 c40 16 43 16 98 -9 31 -14 59 -22 62 -19 7 7 3 10 -53 37 -46 21 -50
26 -53 62 -2 27 1 42 11 47 21 12 10 58 -22 94 -15 17 -35 40 -46 53 l-19 23
54 -21 c122 -48 154 -59 159 -55 2 3 0 9 -5 14 -15 14 -177 73 -201 73 -32 1
-47 22 -28 38 12 10 22 8 55 -14 l39 -26 45 83 c38 69 66 161 58 190 -4 13 18
7 69 -19 28 -14 54 -22 57 -18 4 4 3 9 -3 11 -30 12 -118 69 -119 77 0 6 15
10 34 10 34 1 35 2 32 36 -5 46 -8 50 -40 49 -21 -1 -22 -2 -7 -6 30 -7 43
-23 19 -23 -11 0 -25 -5 -31 -11 -9 -9 -13 -2 -18 24 -4 20 -16 43 -26 53 -25
23 -24 40 4 58 18 12 31 13 64 5 l41 -11 109 82 108 82 47 -54 c59 -66 63 -54
6 15 -27 32 -38 52 -30 55 22 7 13 20 -28 36 -58 23 -53 46 10 46 46 0 50 2
50 23 0 17 10 28 36 41 l37 17 57 -46 c32 -25 61 -45 64 -45 18 0 -1 22 -53
63 -54 43 -58 49 -58 87 0 29 3 38 10 31 6 -6 24 -11 40 -11 22 0 30 -6 38
-30 10 -28 15 -30 60 -30 52 0 55 3 39 44 -8 23 -5 28 30 53 22 15 42 36 46
46 3 9 10 15 15 12 5 -4 9 1 9 9 0 20 14 20 30 1 7 -8 17 -15 23 -15 6 0 0 11
-12 24 l-23 25 21 13 c12 7 21 17 21 21 0 5 -13 -1 -29 -13 l-30 -20 -4 37 -4
38 -1 -44 c-2 -37 -4 -42 -16 -31 -8 6 -12 18 -9 26 3 9 -2 14 -13 15 -63 3
-93 0 -113 -11 -27 -14 -39 -6 -21 15 15 18 -1 20 -18 3 -10 -10 -18 -7 -39
14 l-26 27 26 6 c15 4 27 13 27 21 0 10 -6 11 -26 4 -34 -13 -34 -14 -23 22 5
18 9 34 9 36 0 2 -14 8 -30 14 -21 7 -29 15 -26 27 3 9 8 28 11 43 6 21 14 28
44 33 39 6 69 21 60 29 -3 3 -22 1 -43 -5 -21 -6 -40 -8 -43 -6 -2 3 3 31 11
62 12 47 26 69 78 123 86 90 114 129 127 179 12 46 65 95 114 107 20 5 27 12
27 32 0 25 0 25 25 7 30 -22 32 -37 4 -30 -16 4 -19 3 -11 -5 6 -6 18 -8 26
-5 20 8 21 37 1 37 -21 0 -19 18 3 23 15 4 14 5 -3 6 -16 1 -13 7 20 41 28 28
41 36 47 27 5 -8 8 -5 8 9 0 12 7 27 15 34 13 11 15 8 15 -19 0 -44 18 -39 22
7 2 25 8 37 18 37 10 0 16 -12 18 -37 4 -47 22 -50 22 -4 0 39 -14 54 -54 54
-19 0 -36 8 -50 26 -11 14 -38 32 -59 39 -27 9 -44 24 -60 52 -16 29 -31 41
-57 47 -53 14 -77 51 -101 159 -12 54 -36 123 -53 155 -27 52 -36 60 -75 71
-44 13 -44 12 -93 -29 -44 -36 -52 -40 -74 -29 -14 6 -38 11 -54 11 -26 0 -30
-6 -59 -81 -29 -74 -31 -90 -30 -197 0 -65 4 -144 8 -177 7 -53 5 -66 -18
-112 -14 -29 -31 -53 -39 -53 -7 0 -11 -3 -8 -8 2 -4 -2 -16 -10 -26 -12 -17
-14 -17 -20 -3 -4 11 -17 16 -40 15 -33 -1 -34 -2 -34 -45 0 -52 18 -58 22 -6
2 20 9 38 15 41 19 6 28 -27 15 -49 -7 -10 -12 -30 -12 -43 0 -27 -20 -33
-134 -41 -33 -2 -63 -10 -67 -17 -6 -9 -13 -8 -28 7 -12 10 -24 15 -28 12 -3
-4 -12 -2 -19 4 -10 8 -12 3 -7 -25 3 -22 2 -36 -5 -36 -6 0 -13 12 -15 28 -4
25 -4 25 -6 -5 -2 -50 -19 -39 -24 15 l-3 47 -2 -52 c-2 -40 -6 -53 -19 -57
-156 -45 -231 -72 -243 -86 -8 -10 -69 -80 -134 -155 l-120 -137 32 -27 c30
-24 32 -30 32 -88 l0 -61 -88 -70 -89 -70 -139 -6 c-76 -4 -151 -9 -166 -12
l-26 -5 31 -92 30 -91 -59 -51 c-32 -27 -104 -93 -159 -146 -120 -116 -255
-213 -332 -240 -70 -24 -170 -25 -218 -2 -34 16 -35 18 -35 72 0 48 5 61 30
91 22 26 30 30 30 18 0 -10 5 -18 10 -18 6 0 10 11 10 25 0 34 28 32 33 -2 4
-26 4 -25 6 5 0 21 -4 35 -14 39 -14 5 -14 8 -2 22 10 10 17 50 20 116 3 55 2
87 -2 70 l-7 -30 -17 31 c-9 17 -26 70 -38 117 -15 60 -28 92 -46 109 l-25 23
-83 -89 c-87 -93 -106 -101 -119 -50 -6 23 2 41 43 102 47 68 51 79 51 131 0
45 -4 62 -19 76 -13 11 -21 33 -23 63 l-3 46 -72 22 c-40 12 -96 36 -126 53
-66 38 -82 38 -130 6 -32 -23 -37 -31 -37 -65 0 -22 -4 -48 -10 -58 -5 -9 -16
-43 -25 -74 l-16 -58 -39 0 c-33 0 -42 -4 -52 -25 -10 -22 -26 -30 -50 -26 -5
0 -7 -20 -6 -46 1 -43 2 -44 5 -11 2 20 11 39 19 42 22 9 18 -86 -6 -134 -14
-28 -20 -59 -20 -107 0 -60 5 -76 40 -141 39 -72 40 -75 40 -178 0 -83 -4
-113 -19 -142 -10 -20 -22 -53 -26 -72 -11 -55 -31 -70 -89 -70 l-51 0 -55
103 -55 102 -10 163 c-6 98 -6 167 -1 172 6 6 4 15 -3 24 -10 12 -8 24 8 62
12 26 24 66 27 88 3 23 8 52 11 66 5 23 6 24 13 5 5 -12 8 11 7 58 -1 42 -4
77 -8 77 -4 0 -24 -22 -45 -50 -41 -54 -51 -52 -49 13 2 35 14 62 64 135 42
63 69 94 87 98 13 4 36 22 51 40 21 29 32 34 66 34 26 0 55 10 86 29 38 23 51
26 71 19 23 -9 114 -5 179 8 39 8 54 57 36 116 -14 48 -4 45 -126 32 l-66 -7
-11 33 c-7 19 -17 30 -24 28 -7 -3 -51 -18 -98 -33 -53 -17 -97 -38 -115 -56
-28 -26 -38 -29 -97 -29 -62 0 -68 2 -117 41 -51 41 -51 41 -101 30 -28 -6
-53 -11 -55 -11 -16 0 0 53 25 86 16 21 30 42 30 45 0 3 -12 11 -26 18 -29 13
-23 16 -149 -95 -43 -38 -94 -70 -152 -96 -96 -43 -125 -44 -239 -12 -47 13
-56 12 -108 -6 l-57 -19 20 27 c27 37 166 182 174 182 4 0 7 -9 7 -20 0 -14 7
-20 23 -20 20 1 20 2 5 11 -47 27 -6 72 131 146 l96 53 -96 0 c-84 0 -98 3
-115 21 -16 18 -26 20 -69 15 -153 -19 -153 -19 -185 4 -22 16 -38 20 -60 15
-25 -6 -35 -2 -58 23 -23 24 -39 31 -91 37 -42 5 -67 3 -74 -4 -16 -16 -27
-14 -27 7 -1 16 -1 16 -11 0 -5 -10 -15 -18 -22 -18 -7 0 -52 27 -102 60 l-90
60 -190 0 c-281 0 -962 27 -1270 49 -659 49 -1588 198 -2280 366 -317 77 -880
245 -1055 315 -83 33 -152 60 -155 60 -3 0 -5 -6 -5 -14z m10070 -1066 c0 -5
-5 -10 -11 -10 -5 0 -7 5 -4 10 3 6 8 10 11 10 2 0 4 -4 4 -10z m-925 -100 c3
-5 1 -10 -4 -10 -6 0 -11 5 -11 10 0 6 2 10 4 10 3 0 8 -4 11 -10z m-2808
-696 c3 -8 -2 -23 -11 -32 -15 -15 -16 -14 -16 16 0 33 16 43 27 16z m3553 -4
c0 -23 -10 -26 -28 -8 -18 18 -15 28 8 28 13 0 20 -7 20 -20z m-356 -336 c4
-9 5 -18 4 -19 -32 -23 -161 -85 -178 -85 -16 0 4 18 66 59 49 33 92 60 95 60
4 1 10 -6 13 -15z m-184 -363 c0 -5 -6 -14 -14 -20 -16 -13 -32 2 -21 19 8 12
35 13 35 1z m-436 -510 c-10 -12 -34 26 -33 53 l0 31 18 -40 c10 -22 17 -42
15 -44z m32 -53 c3 -10 37 -43 75 -74 72 -59 74 -64 59 -129 -5 -22 -10 -77
-12 -122 -3 -81 -14 -110 -20 -55 -2 21 -9 28 -30 30 -21 3 -27 -1 -30 -20
l-3 -23 -13 22 c-11 19 -10 27 4 48 16 25 16 27 -9 62 -27 38 -23 53 16 53 9
0 17 3 17 8 -1 13 -88 72 -137 91 l-48 20 63 0 62 1 -25 50 c-33 65 -33 83 0
68 13 -6 27 -19 31 -30z m164 -338 c0 -5 -5 -10 -11 -10 -5 0 -7 5 -4 10 3 6
8 10 11 10 2 0 4 -4 4 -10z m-80 -45 c0 -16 -6 -25 -15 -25 -15 0 -21 31 -8
43 13 14 23 6 23 -18z m78 3 c-5 -32 -28 -35 -28 -4 0 17 5 26 16 26 10 0 14
-7 12 -22z m-448 -1153 c0 -26 -14 -33 -25 -15 -9 14 1 40 15 40 5 0 10 -11
10 -25z m-316 -470 c-7 -16 -30 -20 -38 -6 -7 11 4 21 25 21 12 0 16 -5 13
-15z m-1874 -824 c0 -6 -5 -13 -10 -16 -15 -9 -43 3 -35 15 8 13 45 13 45 1z"/>
<path d="M11462 6248 c-7 -7 -12 -21 -12 -33 0 -12 5 -26 12 -33 13 -13 68
-17 68 -4 0 4 -12 8 -27 7 -14 0 -28 6 -30 13 -3 8 6 12 26 12 19 0 31 5 31
13 0 18 -21 37 -40 37 -9 0 -21 -5 -28 -12z m46 -16 c2 -7 -6 -12 -17 -12 -21
0 -27 11 -14 24 9 9 26 2 31 -12z"/>
<path d="M9934 6126 c11 -45 34 -96 44 -96 4 0 17 23 28 52 10 29 21 56 22 60
2 4 -1 8 -6 8 -6 0 -16 -17 -22 -37 -18 -56 -26 -59 -40 -16 -16 48 -36 71
-26 29z"/>
<path d="M11278 6117 c-8 -22 7 -70 22 -75 12 -4 13 -2 3 9 -15 15 -17 46 -4
51 5 2 3 8 -4 15 -10 9 -14 9 -17 0z"/>
<path d="M10042 6108 c-29 -29 -7 -78 34 -78 13 0 26 5 29 10 4 7 -2 9 -17 5
-16 -4 -29 -1 -37 9 -12 14 -9 16 23 16 23 0 36 5 36 13 0 18 -21 37 -40 37
-9 0 -21 -5 -28 -12z m46 -16 c2 -7 -6 -12 -17 -12 -21 0 -27 11 -14 24 9 9
26 2 31 -12z"/>
<path d="M10130 6073 c0 -23 5 -43 10 -43 6 0 10 16 10 35 0 28 5 38 23 44 19
8 18 9 -10 9 -32 -1 -33 -2 -33 -45z"/>
<path d="M10201 6071 l2 -46 6 40 c4 27 12 41 24 43 14 3 17 -4 17 -37 0 -51
18 -54 22 -3 2 25 8 37 18 37 10 0 16 -12 18 -37 4 -46 22 -51 22 -5 0 48 -9
55 -72 54 l-58 -1 1 -45z"/>
<path d="M10360 6106 c-28 -35 11 -93 48 -70 35 22 22 84 -18 84 -10 0 -23 -7
-30 -14z m45 -31 c0 -35 -20 -43 -35 -15 -9 16 -8 25 1 36 18 21 34 11 34 -21z"/>
<path d="M11350 6101 c15 -6 18 -9 9 -10 -22 -1 -40 -24 -31 -38 4 -7 18 -11
30 -10 19 1 22 6 20 32 -2 24 -8 30 -28 32 l-25 2 25 -8z m20 -30 c0 -12 -20
-25 -27 -18 -7 7 6 27 18 27 5 0 9 -4 9 -9z"/>
<path d="M6875 6000 c-4 -6 5 -10 19 -10 14 0 26 -4 26 -10 0 -5 -11 -10 -25
-10 -20 0 -25 -5 -25 -25 0 -22 4 -25 35 -25 33 0 35 2 35 33 0 18 -5 38 -12
45 -15 15 -45 16 -53 2z m48 -55 c-6 -18 -34 -16 -41 3 -2 7 6 12 22 12 19 0
24 -4 19 -15z"/>
<path d="M9696 5993 c-11 -11 -7 -83 5 -83 7 0 9 10 7 25 -3 14 -1 25 3 25 12
0 12 27 0 34 -4 3 -11 3 -15 -1z"/>
<path d="M9748 5975 c-6 -13 -15 -22 -19 -19 -5 3 -9 -2 -9 -10 0 -28 19 -27
27 1 l7 28 7 -35 c6 -33 6 -33 8 13 1 53 -4 59 -21 22z"/>
<path d="M9947 5982 c-3 -4 -2 -22 0 -39 4 -22 11 -33 22 -32 10 0 11 2 4 6
-7 2 -13 16 -13 29 0 14 4 22 10 19 6 -3 10 -2 10 3 0 12 -28 24 -33 14z"/>
<path d="M9800 5965 c-19 -23 -8 -50 20 -50 19 0 26 6 28 24 5 35 -26 53 -48
26z m40 -26 c0 -10 -7 -19 -15 -19 -15 0 -21 31 -9 43 11 10 24 -3 24 -24z"/>
<path d="M9883 5973 c-7 -2 -12 -19 -12 -36 2 -31 2 -31 6 -4 5 34 33 36 33 2
0 -14 5 -25 10 -25 14 0 13 43 -2 58 -13 13 -16 13 -35 5z"/>
<path d="M10008 5973 c-13 -3 -18 -15 -18 -43 0 -21 5 -42 10 -45 6 -3 10 1
10 9 0 9 9 16 21 16 17 0 20 5 17 32 -3 33 -11 39 -40 31z m32 -34 c0 -10 -7
-19 -15 -19 -15 0 -21 31 -9 43 11 10 24 -3 24 -24z"/>
<path d="M10082 5971 c-8 -4 -12 -19 -10 -32 2 -18 10 -24 31 -25 25 -1 25 -1
2 3 -32 6 -33 23 0 23 27 0 32 9 13 28 -14 14 -19 15 -36 3z m23 -11 c3 -5 -1
-10 -10 -10 -9 0 -13 5 -10 10 3 6 8 10 10 10 2 0 7 -4 10 -10z"/>
<path d="M11330 5690 c0 -33 4 -60 10 -60 6 0 10 21 10 48 l1 47 25 -47 c13
-27 29 -48 34 -48 6 0 9 27 8 63 l-1 62 -6 -50 -7 -50 -24 48 c-34 66 -50 62
-50 -13z"/>
<path d="M11743 5690 c-1 -43 2 -55 6 -35 5 23 12 31 34 33 24 3 27 0 27 -27
0 -17 5 -31 10 -31 6 0 10 27 10 60 0 33 -4 60 -10 60 -5 0 -10 -11 -10 -25 0
-21 -5 -25 -29 -25 -25 0 -30 5 -34 28 -2 15 -4 -2 -4 -38z"/>
<path d="M12303 5690 c0 -36 2 -51 4 -33 5 35 29 62 43 47 5 -5 11 -25 13 -44
3 -27 4 -25 3 10 -1 42 -3 45 -28 43 -20 -1 -28 4 -31 20 -2 12 -4 -7 -4 -43z"/>
<path d="M12405 5740 c3 -5 8 -10 11 -10 2 0 4 5 4 10 0 6 -5 10 -11 10 -5 0
-7 -4 -4 -10z"/>
<path d="M11462 5708 c-29 -29 -7 -78 34 -78 13 0 26 5 29 10 4 7 -2 9 -17 5
-16 -4 -29 -1 -37 9 -12 14 -9 16 23 16 23 0 36 5 36 13 0 18 -21 37 -40 37
-9 0 -21 -5 -28 -12z m46 -16 c2 -7 -6 -12 -17 -12 -21 0 -27 11 -14 24 9 9
26 2 31 -12z"/>
<path d="M11555 5683 c12 -64 28 -72 40 -20 l7 32 11 -32 c13 -43 24 -42 36 5
13 46 14 55 1 47 -5 -3 -10 -18 -10 -33 0 -29 -16 -20 -22 12 -5 32 -25 29
-33 -6 l-7 -33 -9 33 c-13 44 -23 41 -14 -5z"/>
<path d="M11860 5710 c0 -5 7 -7 15 -4 31 12 37 -9 6 -22 -46 -19 -39 -48 12
-51 35 -1 37 0 37 31 0 18 -5 37 -12 44 -14 14 -58 16 -58 2z m48 -52 c-7 -19
-38 -22 -38 -4 0 10 9 16 21 16 12 0 19 -5 17 -12z"/>
<path d="M11962 5671 c1 -41 2 -42 5 -11 8 60 43 64 43 4 0 -46 18 -44 22 4 2
25 8 37 18 37 10 0 16 -12 18 -37 4 -44 22 -52 22 -10 0 46 -14 57 -75 58
l-55 1 2 -46z"/>
<path d="M12110 5659 c0 -33 4 -59 10 -59 6 0 10 8 10 19 0 14 6 17 25 14 20
-4 25 0 31 22 9 38 -7 60 -45 62 l-31 1 0 -59z m60 36 c16 -19 3 -57 -18 -53
-18 3 -27 30 -18 54 7 18 20 18 36 -1z"/>
<path d="M12217 5713 c-14 -14 -6 -34 18 -43 14 -5 25 -15 25 -21 0 -7 -10 -9
-25 -7 -14 3 -25 1 -25 -3 0 -5 13 -9 29 -9 39 0 47 25 16 46 -30 20 -33 38
-5 31 11 -3 20 -1 20 4 0 10 -43 12 -53 2z"/>
<path d="M12400 5675 c0 -25 5 -45 10 -45 6 0 10 20 10 45 0 25 -4 45 -10 45
-5 0 -10 -20 -10 -45z"/>
<path d="M12452 5670 c1 -36 2 -39 5 -13 3 19 14 39 26 48 22 15 22 15 -6 13
-25 -2 -27 -5 -25 -48z"/>
<path d="M12524 5712 c-17 -11 -22 -35 -13 -59 6 -17 16 -23 39 -23 16 0 30 4
30 8 0 4 -12 8 -27 7 -14 0 -28 6 -30 13 -3 8 7 12 31 12 39 0 41 2 26 31 -11
19 -36 25 -56 11z m44 -20 c2 -7 -7 -12 -22 -12 -27 0 -35 15 -13 23 17 7 30
3 35 -11z"/>
<path d="M11830 5595 c0 -8 -9 -15 -19 -15 -24 0 -37 -36 -21 -55 6 -7 20 -13
31 -12 16 1 19 9 19 49 0 26 -2 48 -5 48 -3 0 -5 -7 -5 -15z m-5 -50 c0 -10
-5 -20 -11 -22 -13 -4 -27 24 -18 38 9 15 29 4 29 -16z"/>
<path d="M11364 5573 c-12 -44 31 -83 60 -53 8 9 6 11 -10 6 -13 -4 -26 -1
-33 8 -20 24 -9 50 24 57 l30 7 -32 1 c-27 1 -34 -3 -39 -26z"/>
<path d="M11445 5559 c-9 -26 16 -55 40 -45 25 9 16 60 -12 64 -15 2 -23 -3
-28 -19z m42 -5 c8 -22 -15 -44 -26 -25 -10 16 -4 41 10 41 5 0 12 -7 16 -16z"/>
<path d="M11521 5543 c1 -35 2 -36 8 -9 8 38 31 47 31 12 0 -13 5 -28 11 -31
7 -5 9 5 7 26 -2 29 -7 35 -30 37 -26 3 -28 1 -27 -35z"/>
<path d="M11599 5564 c-16 -19 -1 -48 27 -52 18 -3 18 -2 2 8 -26 16 -23 48 5
53 21 4 21 4 1 6 -12 0 -27 -6 -35 -15z"/>
<path d="M11663 5564 c-8 -22 9 -49 33 -49 30 0 27 59 -4 63 -14 2 -25 -3 -29
-14z m44 -10 c8 -21 -13 -42 -28 -27 -13 13 -5 43 11 43 6 0 13 -7 17 -16z"/>
<path d="M11741 5543 c1 -27 3 -31 6 -13 2 14 12 31 21 38 14 11 13 12 -6 12
-19 0 -22 -5 -21 -37z"/>
<path d="M11310 5400 c0 -37 4 -60 11 -60 7 0 10 15 7 40 -4 47 7 54 17 10 9
-39 22 -38 40 3 l14 32 1 -42 c0 -24 5 -43 10 -43 13 0 13 107 0 115 -6 4 -19
-12 -29 -34 l-18 -41 -16 40 c-23 58 -37 50 -37 -20z"/>
<path d="M11900 5400 c0 -33 4 -60 10 -60 6 0 10 16 10 35 0 28 4 35 20 35 16
0 20 -7 20 -35 0 -19 5 -35 10 -35 16 0 12 66 -5 80 -8 7 -22 10 -30 6 -10 -4
-15 1 -15 14 0 11 -4 20 -10 20 -6 0 -10 -27 -10 -60z"/>
<path d="M12287 5437 c-2 -7 -2 -30 2 -52 5 -33 10 -40 31 -42 15 -1 18 0 8 3
-21 6 -25 60 -6 66 9 3 8 9 -4 21 -20 20 -24 21 -31 4z"/>
<path d="M12353 5418 c-2 -58 5 -78 30 -77 17 1 18 2 5 6 -23 6 -25 63 -3 63
8 0 15 5 15 10 0 6 -7 10 -15 10 -8 0 -15 5 -15 10 0 6 -4 10 -8 10 -5 0 -9
-15 -9 -32z"/>
<path d="M11450 5420 c0 -6 6 -10 13 -9 23 3 37 -1 37 -11 0 -5 -11 -10 -24
-10 -24 0 -41 -23 -30 -41 3 -5 21 -9 40 -9 32 0 34 2 34 33 0 18 -5 38 -12
45 -15 15 -58 16 -58 2z m48 -52 c-7 -19 -38 -22 -38 -4 0 10 9 16 21 16 12 0
19 -5 17 -12z"/>
<path d="M11549 5414 c-11 -14 -10 -18 6 -30 10 -8 22 -14 27 -14 21 0 5 -19
-19 -23 -21 -4 -19 -4 7 -3 44 1 55 32 15 42 -28 7 -29 31 -1 26 9 -2 16 2 16
8 0 16 -36 12 -51 -6z"/>
<path d="M11637 5423 c-16 -15 -6 -41 19 -47 30 -8 22 -22 -16 -29 -17 -3 -13
-5 10 -4 45 2 54 32 14 48 -21 8 -25 12 -15 19 8 4 20 6 28 3 7 -3 13 0 13 6
0 12 -42 15 -53 4z"/>
<path d="M11720 5420 c0 -6 6 -10 13 -9 23 3 37 -1 37 -10 0 -5 -12 -11 -27
-13 -20 -2 -28 -9 -28 -23 0 -16 7 -20 37 -21 37 -2 38 -2 33 32 -2 19 -7 39
-10 44 -8 13 -55 13 -55 0z m48 -52 c-7 -19 -38 -22 -38 -4 0 10 9 16 21 16
12 0 19 -5 17 -12z"/>
<path d="M11822 5418 c-13 -13 -15 -37 -6 -62 4 -10 17 -16 38 -15 21 1 25 3
11 6 -23 6 -45 22 -45 34 0 16 31 38 47 32 11 -4 14 -3 9 5 -9 15 -39 15 -54
0z"/>
<path d="M12007 5422 c-5 -7 -6 -29 -3 -48 6 -31 10 -34 41 -34 35 0 35 0 35
47 0 51 -16 50 -22 -2 -2 -18 -9 -31 -20 -33 -13 -3 -17 6 -20 40 -2 28 -6 38
-11 30z"/>
<path d="M12112 5418 c-18 -18 -15 -27 13 -38 33 -13 32 -28 -2 -33 -21 -4
-19 -4 7 -3 44 1 55 32 15 42 -28 7 -29 30 -1 28 9 -1 16 2 16 7 0 13 -34 11
-48 -3z"/>
<path d="M12201 5416 c-7 -8 -11 -27 -9 -43 3 -24 8 -28 38 -30 33 -1 33 -1 6
5 -44 10 -45 32 -2 32 37 0 47 15 24 38 -16 16 -43 15 -57 -2z m49 -16 c0 -5
-12 -10 -26 -10 -14 0 -23 4 -19 10 3 6 15 10 26 10 10 0 19 -4 19 -10z"/>
<path d="M12422 5418 c-18 -18 -15 -27 13 -38 33 -13 32 -28 -2 -33 -21 -4
-19 -4 7 -3 44 1 55 32 15 42 -28 7 -29 30 -1 28 9 -1 16 2 16 7 0 13 -34 11
-48 -3z"/>
<path d="M7670 5320 c0 -5 5 -10 10 -10 6 0 10 5 10 10 0 6 -4 10 -10 10 -5 0
-10 -4 -10 -10z"/>
<path d="M11440 5265 c0 -45 1 -46 28 -43 24 3 27 7 27 43 0 36 -3 40 -27 43
-27 3 -28 2 -28 -43z m50 25 c0 -5 -9 -10 -20 -10 -11 0 -20 5 -20 10 0 6 9
10 20 10 11 0 20 -4 20 -10z m0 -40 c0 -5 -5 -12 -11 -16 -14 -8 -33 11 -25
25 7 11 36 4 36 -9z"/>
<path d="M11658 5297 c-8 -22 7 -70 22 -75 12 -4 13 -2 3 9 -15 15 -17 46 -4
51 5 2 3 8 -4 15 -10 9 -14 9 -17 0z"/>
<path d="M7586 5284 c-9 -23 -8 -24 19 -34 14 -5 25 -15 25 -21 0 -7 -10 -9
-25 -7 -14 3 -25 1 -25 -4 0 -5 15 -8 32 -6 42 4 51 34 14 48 -31 11 -35 35
-6 27 11 -3 20 -1 20 4 0 16 -48 10 -54 -7z"/>
<path d="M7670 5255 c0 -25 5 -45 10 -45 6 0 10 20 10 45 0 25 -4 45 -10 45
-5 0 -10 -20 -10 -45z"/>
<path d="M11527 5284 c-11 -11 -8 -52 3 -59 6 -3 19 -3 31 0 28 9 23 59 -6 63
-12 2 -24 0 -28 -4z m40 -20 c8 -21 -13 -42 -28 -27 -13 13 -5 43 11 43 6 0
13 -7 17 -16z"/>
<path d="M11595 5280 c-3 -5 3 -15 15 -22 26 -17 26 -32 -1 -25 -16 4 -19 3
-11 -5 6 -6 18 -8 26 -5 20 8 21 37 1 37 -21 0 -19 18 3 23 13 4 12 5 -5 6
-12 0 -25 -3 -28 -9z"/>
<path d="M11711 5276 c-15 -18 2 -56 24 -56 21 0 35 32 24 53 -12 21 -32 22
-48 3z m37 -18 c-2 -13 -7 -23 -13 -23 -5 0 -11 10 -13 23 -2 15 2 22 13 22
11 0 15 -7 13 -22z"/>
<path d="M11781 5253 c1 -36 2 -37 8 -8 3 17 13 30 21 30 8 0 18 -13 22 -30 6
-29 6 -29 5 5 -2 30 -6 35 -29 38 -26 3 -28 1 -27 -35z"/>
<path d="M7527 5039 c-22 -13 -22 -46 1 -57 25 -13 42 -4 42 23 0 30 -20 46
-43 34z m33 -29 c0 -11 -6 -20 -14 -20 -18 0 -29 16 -21 30 11 18 35 11 35
-10z"/>
<path d="M7608 5042 c-13 -2 -18 -12 -17 -35 2 -30 2 -31 6 -4 5 34 33 36 33
2 0 -14 5 -25 10 -25 14 0 12 46 -2 57 -7 5 -21 8 -30 5z"/>
<path d="M8624 5012 c-17 -11 -22 -35 -13 -61 7 -18 15 -22 34 -18 16 3 24 0
22 -7 -2 -6 -17 -13 -33 -16 -24 -5 -26 -7 -11 -13 37 -14 57 9 57 66 0 47 -2
53 -22 54 -13 1 -28 -1 -34 -5z m41 -51 c-9 -29 -39 -23 -43 8 -2 13 2 27 10
32 19 12 41 -14 33 -40z"/>
<path d="M8714 5009 c-4 -7 0 -9 12 -5 23 7 52 -8 35 -18 -6 -4 -11 -5 -11 -1
0 3 -9 1 -20 -5 -11 -6 -20 -20 -20 -31 0 -16 6 -19 35 -17 32 2 35 5 35 33 0
17 -5 36 -12 43 -15 15 -45 16 -54 1z m50 -54 c-7 -16 -30 -20 -38 -6 -7 11 4
21 25 21 12 0 16 -5 13 -15z"/>
<path d="M8810 4973 c0 -24 5 -43 10 -43 6 0 10 15 10 34 0 20 6 36 14 39 20
8 26 -2 26 -40 0 -18 5 -33 10 -33 13 0 13 50 0 70 -5 8 -23 15 -40 15 -29 1
-30 -1 -30 -42z"/>
<path d="M11341 4948 c1 -35 4 -51 6 -35 5 34 27 35 49 2 9 -14 21 -25 26 -25
5 0 2 10 -6 22 -9 13 -13 31 -10 45 8 29 -11 53 -42 53 -23 0 -24 -3 -23 -62z
m49 22 c0 -13 -7 -20 -20 -20 -13 0 -20 7 -20 20 0 13 7 20 20 20 13 0 20 -7
20 -20z"/>
<path d="M11453 4950 c0 -36 2 -51 4 -33 8 64 46 62 56 -2 3 -19 4 -13 3 15
-1 42 -3 45 -28 43 -20 -1 -28 4 -31 20 -2 12 -4 -7 -4 -43z"/>
<path d="M11710 4990 c0 -17 -5 -19 -25 -14 -20 5 -27 1 -37 -21 -16 -36 0
-60 41 -61 l31 -1 0 59 c0 32 -2 58 -5 58 -3 0 -5 -9 -5 -20z m-5 -69 c-9 -29
-39 -23 -43 8 -2 13 2 27 10 32 19 12 41 -14 33 -40z"/>
<path d="M11900 4950 c0 -33 4 -60 10 -60 6 0 10 27 10 60 0 33 -4 60 -10 60
-6 0 -10 -27 -10 -60z"/>
<path d="M12030 4950 c0 -33 4 -60 10 -60 6 0 10 27 10 60 0 33 -4 60 -10 60
-6 0 -10 -27 -10 -60z"/>
<path d="M12340 4989 c0 -15 -5 -19 -19 -14 -19 6 -51 -17 -51 -36 0 -29 22
-49 50 -47 30 2 30 3 30 60 0 32 -2 58 -5 58 -3 0 -5 -9 -5 -21z m-5 -68 c-9
-29 -39 -23 -43 8 -2 13 2 27 10 32 19 12 41 -14 33 -40z"/>
<path d="M11564 4972 c-37 -25 -19 -85 24 -80 21 2 28 9 30 31 5 43 -24 70
-54 49z m44 -46 c-2 -13 -10 -21 -23 -21 -23 0 -32 30 -14 51 16 19 41 -1 37
-30z"/>
<path d="M11761 4966 c-7 -8 -11 -27 -9 -43 3 -24 8 -28 38 -30 33 -1 33 -1 6
5 -44 10 -45 32 -2 32 39 0 41 2 26 31 -13 22 -43 25 -59 5z m49 -17 c0 -5
-12 -9 -26 -9 -22 0 -24 2 -14 14 12 15 40 11 40 -5z"/>
<path d="M11952 4968 c-18 -18 -15 -27 13 -38 33 -13 32 -28 -2 -33 -21 -4
-19 -4 7 -3 44 1 55 32 15 42 -31 8 -27 30 4 27 13 -2 20 1 16 7 -8 14 -38 13
-53 -2z"/>
<path d="M12085 4970 c-4 -6 3 -9 16 -7 12 1 23 -3 26 -8 2 -6 -6 -11 -18 -12
-55 -4 -50 -53 6 -53 33 0 35 2 35 33 0 18 -5 38 -12 45 -15 15 -45 16 -53 2z
m43 -52 c-7 -19 -38 -22 -38 -4 0 10 9 16 21 16 12 0 19 -5 17 -12z"/>
<path d="M12182 4930 c1 -35 2 -38 5 -13 8 64 46 62 56 -2 3 -24 4 -22 6 13 0
23 -2 43 -6 43 -5 1 -20 2 -35 3 -27 2 -28 0 -26 -44z"/>
<path d="M11307 4873 c-4 -3 -6 -25 -6 -47 1 -23 3 -34 6 -24 2 9 15 19 29 22
29 8 32 31 5 46 -23 12 -26 12 -34 3z m33 -29 c0 -9 -5 -14 -12 -12 -18 6 -21
28 -4 28 9 0 16 -7 16 -16z"/>
<path d="M11642 4868 c-1 -10 -10 -18 -21 -18 -32 0 -38 -51 -7 -63 26 -10 37
9 33 54 -2 24 -4 36 -5 27z m-2 -48 c0 -11 -7 -20 -15 -20 -8 0 -15 9 -15 20
0 11 7 20 15 20 8 0 15 -9 15 -20z"/>
<path d="M11371 4818 c1 -21 3 -26 6 -13 3 11 12 26 21 33 14 11 13 12 -6 12
-18 0 -22 -5 -21 -32z"/>
<path d="M11416 4834 c-8 -21 -8 -20 9 -38 26 -26 62 3 49 39 -8 20 -50 19
-58 -1z m44 -14 c0 -11 -7 -20 -15 -20 -8 0 -15 9 -15 20 0 11 7 20 15 20 8 0
15 -9 15 -20z"/>
<path d="M11490 4842 c0 -18 19 -52 29 -52 5 0 14 14 20 30 5 17 6 30 2 30 -5
0 -12 -10 -15 -22 l-6 -23 -15 25 c-8 14 -14 19 -15 12z"/>
<path d="M11560 4820 c0 -16 5 -30 10 -30 6 0 10 14 10 30 0 17 -4 30 -10 30
-5 0 -10 -13 -10 -30z"/>
<path d="M11677 4844 c-25 -25 14 -72 44 -53 11 7 9 9 -8 9 -13 0 -23 5 -23
10 0 6 9 10 21 10 12 0 19 5 17 13 -5 14 -40 21 -51 11z m40 -10 c-3 -3 -12
-4 -19 -1 -8 3 -5 6 6 6 11 1 17 -2 13 -5z"/>
<path d="M11751 4818 c2 -31 2 -31 6 -5 5 34 33 36 33 2 0 -14 5 -25 10 -25 6
0 10 6 10 14 0 30 -13 46 -36 46 -21 0 -24 -4 -23 -32z"/>
<path d="M11827 4843 c-4 -3 -7 -14 -7 -24 0 -20 36 -44 44 -30 3 5 -3 11 -14
14 -27 7 -25 26 3 37 21 8 21 9 1 9 -11 1 -24 -2 -27 -6z"/>
<path d="M11897 4844 c-25 -25 14 -72 44 -53 10 6 7 9 -13 9 -16 0 -28 5 -28
10 0 6 12 10 26 10 16 0 24 5 22 13 -5 14 -40 21 -51 11z m36 -11 c-7 -2 -19
-2 -25 0 -7 3 -2 5 12 5 14 0 19 -2 13 -5z"/>
<path d="M8603 4783 c-21 -7 -16 -54 7 -60 11 -3 17 -9 14 -14 -3 -5 -10 -7
-15 -4 -5 4 -9 1 -9 -4 0 -15 23 -14 38 1 19 19 15 75 -5 80 -10 3 -24 3 -30
1z m27 -34 c0 -10 -7 -19 -15 -19 -15 0 -21 31 -9 43 11 10 24 -3 24 -24z"/>
<path d="M11126 4744 c-19 -18 -21 -75 -4 -92 14 -14 78 -16 78 -2 0 5 -13 7
-30 4 -25 -5 -31 -2 -42 21 -16 36 0 60 41 60 33 0 41 9 15 19 -25 10 -42 7
-58 -10z"/>
<path d="M11715 4710 c3 -67 4 -70 28 -69 16 1 18 2 5 6 -23 6 -25 63 -3 63 8
0 15 5 15 10 0 6 -7 10 -15 10 -8 0 -15 5 -15 10 0 6 -4 10 -8 10 -5 0 -8 -18
-7 -40z"/>
<path d="M12010 4711 c0 -54 8 -71 34 -70 16 1 17 2 4 6 -23 6 -25 63 -3 63 8
0 15 5 15 10 0 6 -7 10 -15 10 -8 0 -15 5 -15 10 0 6 -4 10 -10 10 -5 0 -10
-18 -10 -39z"/>
<path d="M11231 4716 c-7 -8 -11 -27 -9 -43 2 -23 8 -28 32 -28 38 0 54 25 38
59 -13 29 -43 34 -61 12z m47 -33 c-4 -34 -33 -43 -43 -14 -8 27 1 41 26 41
16 0 20 -6 17 -27z"/>
<path d="M11320 4683 c0 -24 5 -43 10 -43 6 0 10 16 10 35 0 28 4 35 20 35 16
0 20 -7 20 -35 0 -19 5 -35 10 -35 13 0 13 50 0 70 -5 8 -23 15 -40 15 -29 1
-30 -1 -30 -42z"/>
<path d="M11425 4721 c-10 -9 -5 -81 5 -81 6 0 10 16 10 35 0 28 4 35 20 35
16 0 20 -7 20 -35 0 -19 5 -35 10 -35 15 0 12 66 -3 78 -12 11 -53 13 -62 3z"/>
<path d="M11536 4714 c-19 -18 -21 -45 -4 -62 13 -13 68 -17 68 -4 0 4 -12 8
-27 7 -14 0 -28 6 -30 13 -3 8 6 12 26 12 32 0 41 16 19 38 -16 16 -33 15 -52
-4z m35 -22 c-28 -4 -40 6 -21 18 9 6 20 4 29 -3 12 -10 11 -13 -8 -15z"/>
<path d="M11636 4714 c-32 -32 -12 -75 34 -73 l25 1 -25 7 c-18 5 -26 15 -28
34 -3 26 4 32 36 28 6 -1 12 3 12 9 0 16 -37 12 -54 -6z"/>
<path d="M11783 4685 c0 -27 2 -38 4 -22 2 15 2 37 0 50 -2 12 -4 0 -4 -28z"/>
<path d="M11831 4716 c-7 -8 -11 -27 -9 -43 3 -24 7 -28 38 -29 25 -1 27 -1 8
3 -34 5 -48 41 -23 59 9 7 24 10 33 7 10 -4 13 -2 8 5 -10 16 -41 15 -55 -2z"/>
<path d="M11912 4688 c3 -42 4 -43 39 -44 34 -2 36 -1 37 33 2 51 -12 65 -18
18 -3 -27 -10 -41 -22 -43 -14 -3 -18 4 -18 32 0 19 -5 38 -11 41 -7 5 -9 -8
-7 -37z"/>
<path d="M11082 4565 c0 -27 3 -40 5 -27 6 29 43 31 43 2 0 -11 5 -20 10 -20
6 0 10 20 10 45 0 25 -4 45 -10 45 -5 0 -10 -9 -10 -20 0 -27 -28 -25 -40 3
-7 17 -9 11 -8 -28z"/>
<path d="M11292 4568 c2 -34 7 -43 23 -45 11 -2 14 0 8 3 -15 7 -17 51 -3 56
6 2 1 9 -10 16 -20 12 -21 11 -18 -30z"/>
<path d="M11347 4603 c-4 -3 -7 -24 -7 -47 0 -49 16 -37 23 17 5 35 -1 46 -16
30z"/>
<path d="M11550 4596 c0 -9 -7 -12 -19 -9 -13 3 -21 -2 -25 -15 -10 -29 3 -52
30 -52 22 0 24 4 24 45 0 25 -2 45 -5 45 -3 0 -5 -6 -5 -14z m-3 -32 c8 -21
-13 -42 -28 -27 -13 13 -5 43 11 43 6 0 13 -7 17 -16z"/>
<path d="M11190 4578 c25 -11 25 -11 3 -15 -34 -6 -31 -43 3 -43 23 0 25 3 22
33 -2 26 -8 32 -28 34 l-25 3 25 -12z m15 -38 c-3 -5 -10 -10 -16 -10 -5 0 -9
5 -9 10 0 6 7 10 16 10 8 0 12 -4 9 -10z"/>
<path d="M11240 4553 c0 -18 5 -33 10 -33 6 0 10 13 10 29 0 16 6 31 13 34 6
3 2 4 -10 4 -19 -1 -23 -7 -23 -34z"/>
<path d="M11384 4576 c-11 -29 0 -51 26 -51 21 0 25 5 25 30 0 24 -5 31 -23
33 -13 2 -24 -3 -28 -12z m43 -12 c8 -21 -13 -42 -28 -27 -13 13 -5 43 11 43
6 0 13 -7 17 -16z"/>
<path d="M11461 4550 c1 -27 3 -29 6 -10 2 14 11 30 20 37 13 10 13 12 -6 10
-17 -1 -21 -7 -20 -37z"/>
<path d="M10912 4418 l1 -63 6 48 6 48 25 -45 c34 -63 50 -60 50 8 0 30 -4 58
-10 61 -6 4 -10 -12 -10 -42 l0 -48 -27 48 c-14 26 -30 47 -35 47 -4 0 -7 -28
-6 -62z"/>
<path d="M11310 4417 c0 -36 -5 -68 -12 -75 -9 -9 -9 -12 0 -12 6 0 16 9 22
19 13 25 13 131 0 131 -6 0 -10 -28 -10 -63z"/>
<path d="M11032 4438 c-7 -7 -12 -21 -12 -33 0 -12 5 -26 12 -33 13 -13 68
-17 68 -4 0 4 -12 8 -27 7 -14 0 -28 6 -30 13 -3 8 6 12 26 12 19 0 31 5 31
13 0 18 -21 37 -40 37 -9 0 -21 -5 -28 -12z m48 -13 c11 -13 8 -15 -14 -15
-25 0 -33 10 -19 23 10 11 19 8 33 -8z"/>
<path d="M11120 4443 c0 -23 22 -83 30 -83 5 0 14 15 19 33 l9 32 7 -32 c4
-18 12 -33 16 -33 13 0 31 50 26 74 -3 17 -6 13 -14 -14 l-11 -35 -7 33 c-8
36 -28 38 -33 4 -4 -27 -22 -29 -22 -3 0 11 -4 23 -10 26 -5 3 -10 3 -10 -2z"/>
<path d="M11362 4438 c-7 -7 -12 -21 -12 -33 0 -12 5 -26 12 -33 13 -13 68
-17 68 -4 0 4 -12 8 -27 7 -14 0 -28 6 -30 13 -3 8 6 12 26 12 19 0 31 5 31
13 0 18 -21 37 -40 37 -9 0 -21 -5 -28 -12z m48 -13 c11 -13 8 -15 -14 -15
-25 0 -33 10 -19 23 10 11 19 8 33 -8z"/>
<path d="M11456 4440 c-8 -18 -6 -80 3 -80 6 0 11 15 11 33 0 25 6 37 23 45
21 10 21 11 -6 9 -16 -1 -30 -4 -31 -7z"/>
<path d="M11527 4443 c-15 -14 -6 -34 19 -43 28 -11 23 -35 -7 -27 -11 3 -19
1 -19 -5 0 -5 12 -8 27 -6 38 4 43 35 8 48 -29 11 -24 35 6 27 11 -3 19 -1 19
4 0 10 -43 12 -53 2z"/>
<path d="M11612 4438 c-7 -7 -12 -21 -12 -33 0 -12 5 -26 12 -33 13 -13 68
-17 68 -4 0 4 -12 8 -27 7 -14 0 -28 6 -30 13 -3 8 6 12 26 12 19 0 31 5 31
13 0 18 -21 37 -40 37 -9 0 -21 -5 -28 -12z m48 -13 c11 -13 8 -15 -14 -15
-25 0 -33 10 -19 23 10 11 19 8 33 -8z"/>
<path d="M11700 4445 c0 -2 7 -23 17 -46 16 -40 15 -42 -2 -55 -17 -13 -17
-14 -1 -14 11 0 25 19 42 55 27 62 28 65 15 65 -5 0 -12 -13 -16 -30 -4 -16
-10 -30 -15 -30 -4 0 -13 14 -19 30 -8 26 -21 40 -21 25z"/>
<path d="M10860 4340 c0 -5 6 -10 14 -10 10 0 16 -13 19 -37 l4 -38 1 38 c1
25 7 37 17 37 8 0 15 5 15 10 0 6 -16 10 -35 10 -19 0 -35 -4 -35 -10z"/>
<path d="M11122 4305 c2 -21 9 -40 16 -41 7 -1 8 0 2 3 -13 6 -13 40 1 45 7 2
5 9 -6 18 -15 12 -16 10 -13 -25z"/>
<path d="M10938 4322 c-19 -4 -26 -62 -8 -62 6 0 10 11 10 24 0 13 6 26 13 29
17 6 5 14 -15 9z"/>
<path d="M11063 4322 c-13 -9 -23 -62 -12 -62 5 0 9 11 9 25 0 34 28 32 33 -2
4 -27 4 -27 6 3 1 32 -16 49 -36 36z"/>
<path d="M11183 4323 c-18 -7 -16 -60 2 -67 14 -5 45 18 45 34 0 8 -29 41 -33
39 -1 0 -8 -3 -14 -6z m27 -33 c0 -11 -7 -20 -15 -20 -8 0 -15 9 -15 20 0 11
7 20 15 20 8 0 15 -9 15 -20z"/>
<path d="M11258 4322 c-19 -4 -26 -62 -8 -62 6 0 10 11 10 25 0 34 28 32 33
-2 l4 -28 2 26 c1 30 -16 47 -41 41z"/>
<path d="M10977 4314 c-25 -25 10 -73 40 -55 16 9 15 10 -9 11 -16 0 -28 5
-28 10 0 6 12 10 26 10 16 0 24 5 22 13 -5 14 -40 21 -51 11z m30 -10 c-3 -3
-12 -4 -19 -1 -8 3 -5 6 6 6 11 1 17 -2 13 -5z"/>
<path d="M11060 4106 c0 -37 4 -66 10 -66 6 0 10 26 10 59 0 33 -4 63 -10 66
-6 4 -10 -18 -10 -59z"/>
<path d="M10840 4100 c0 -65 8 -72 64 -50 59 22 36 110 -29 110 l-35 0 0 -60z
m61 40 c36 -20 21 -80 -20 -80 -24 0 -26 3 -24 42 1 24 2 44 2 46 2 5 24 1 42
-8z"/>
<path d="M10967 4123 c-11 -11 -8 -58 5 -71 15 -15 55 -16 63 -2 4 7 -2 9 -17
5 -16 -4 -29 -1 -37 9 -12 14 -9 16 23 16 37 0 47 15 24 38 -13 13 -50 16 -61
5z m53 -13 c0 -5 -12 -10 -26 -10 -14 0 -23 4 -19 10 3 6 15 10 26 10 10 0 19
-4 19 -10z"/>
<path d="M11125 4123 c30 -7 43 -23 18 -23 -11 0 -26 -7 -33 -15 -18 -22 5
-46 39 -42 50 7 35 88 -17 86 -21 -1 -22 -2 -7 -6z m35 -47 c0 -17 -27 -29
-35 -16 -4 6 -3 15 0 20 9 15 35 12 35 -4z"/>
<path d="M11200 4123 c0 -22 22 -83 30 -83 5 0 12 17 16 38 l7 37 12 -35 c6
-19 16 -35 20 -35 11 0 28 62 22 78 -3 7 -9 -4 -14 -23 l-10 -35 -7 33 c-9 36
-29 38 -34 4 -4 -27 -22 -29 -22 -3 0 11 -4 23 -10 26 -5 3 -10 3 -10 -2z"/>
<path d="M11363 4123 c30 -5 37 -23 8 -23 -10 0 -24 -7 -31 -15 -18 -21 3 -44
41 -43 25 1 29 5 29 29 0 47 -9 59 -44 58 -30 -2 -30 -2 -3 -6z m27 -47 c0
-17 -27 -29 -35 -16 -4 6 -3 15 0 20 9 15 35 12 35 -4z"/>
<path d="M11441 4080 l2 -45 6 39 c4 26 13 42 26 47 17 6 15 7 -7 6 -26 -1
-28 -4 -27 -47z"/>
<path d="M11498 4105 c-9 -21 -8 -28 7 -45 20 -22 50 -26 61 -9 4 7 0 9 -13 5
-12 -4 -25 -1 -33 9 -11 13 -8 15 17 15 37 0 45 8 32 31 -15 28 -57 24 -71 -6z
m57 5 c4 -6 -5 -10 -20 -10 -15 0 -24 4 -20 10 3 6 12 10 20 10 8 0 17 -4 20
-10z"/>
<path d="M10787 4003 c-4 -3 -7 -24 -7 -45 0 -35 2 -38 28 -38 52 0 70 46 30
74 -24 17 -41 20 -51 9z m53 -43 c0 -23 -4 -30 -20 -30 -16 0 -20 7 -20 30 0
23 4 30 20 30 16 0 20 -7 20 -30z"/>
<path d="M10887 3979 c-22 -13 -22 -46 1 -57 25 -13 42 -4 42 23 0 30 -20 46
-43 34z m33 -29 c0 -11 -6 -20 -14 -20 -18 0 -29 16 -21 30 11 18 35 11 35
-10z"/>
<path d="M11114 3982 c-14 -9 -24 -62 -13 -62 5 0 9 11 9 24 0 13 6 26 13 29
6 2 10 7 7 10 -3 3 -10 3 -16 -1z"/>
<path d="M10953 3950 c6 -16 16 -30 22 -30 6 0 16 14 22 30 6 17 7 30 3 30 -5
0 -12 -10 -16 -22 l-7 -23 -10 23 c-15 33 -27 27 -14 -8z"/>
<path d="M11027 3974 c-25 -25 10 -73 40 -55 16 9 15 10 -9 11 -16 0 -28 5
-28 10 0 6 12 10 26 10 16 0 24 5 22 13 -5 14 -40 21 -51 11z m30 -10 c-3 -3
-12 -4 -19 -1 -8 3 -5 6 6 6 11 1 17 -2 13 -5z"/>
<path d="M10806 3843 c-10 -10 -7 -113 4 -113 6 0 10 19 11 43 l1 42 10 -32
c6 -18 15 -33 20 -33 5 0 15 15 23 33 l14 32 1 -42 c0 -24 5 -43 10 -43 13 0
13 107 0 115 -6 4 -18 -13 -29 -37 l-18 -43 -12 37 c-13 39 -24 52 -35 41z"/>
<path d="M11200 3791 c0 -34 4 -61 10 -61 6 0 10 24 10 54 0 30 -4 58 -10 61
-6 4 -10 -17 -10 -54z"/>
<path d="M11505 3840 c-3 -5 -3 -15 1 -21 4 -7 0 -9 -14 -5 -12 4 -26 1 -36
-9 -34 -34 -8 -86 38 -78 24 5 26 9 26 64 0 58 -3 68 -15 49z m-5 -70 c0 -23
-4 -30 -20 -30 -16 0 -20 7 -20 30 0 23 4 30 20 30 16 0 20 -7 20 -30z"/>
<path d="M10945 3810 c-4 -6 5 -10 19 -10 14 0 26 -4 26 -10 0 -5 -8 -10 -19
-10 -10 0 -25 -7 -32 -16 -11 -14 -11 -18 4 -29 9 -7 28 -10 42 -7 21 4 25 10
25 38 0 23 -6 37 -19 44 -25 13 -38 13 -46 0z m45 -55 c0 -8 -9 -15 -20 -15
-11 0 -20 7 -20 15 0 8 9 15 20 15 11 0 20 -7 20 -15z"/>
<path d="M11042 3770 c1 -39 2 -40 5 -11 3 22 11 35 24 38 28 8 23 21 -6 19
-23 -1 -25 -5 -23 -46z"/>
<path d="M11101 3812 c-1 -7 6 -29 14 -49 14 -33 14 -38 -1 -55 -17 -18 -9
-25 11 -10 14 9 57 113 50 120 -3 3 -12 -12 -21 -33 l-16 -39 -18 40 c-10 21
-19 33 -19 26z"/>
<path d="M11255 3810 c-4 -6 5 -10 19 -10 14 0 26 -4 26 -10 0 -5 -11 -10 -25
-10 -14 0 -28 -7 -32 -16 -8 -22 18 -45 45 -38 18 5 22 13 22 44 0 25 -5 40
-16 44 -22 8 -32 8 -39 -4z m45 -49 c0 -6 -5 -13 -10 -16 -15 -9 -43 3 -35 15
8 13 45 13 45 1z"/>
<path d="M11363 3813 c-19 -4 -23 -11 -23 -44 0 -21 5 -39 10 -39 6 0 10 16
10 35 0 28 4 35 20 35 16 0 20 -7 20 -35 0 -19 5 -35 10 -35 14 0 12 64 -2 78
-7 7 -14 11 -17 11 -4 -1 -16 -4 -28 -6z"/>
<path d="M10842 3657 c-16 -45 -15 -49 9 -35 17 11 22 10 35 -6 18 -26 18 -8
-1 38 -19 45 -28 45 -43 3z m27 -16 c-15 -5 -22 6 -14 19 6 9 10 9 16 -1 5 -8
4 -15 -2 -18z"/>
<path d="M11290 3650 c0 -22 5 -40 10 -40 6 0 10 18 10 40 0 22 -4 40 -10 40
-5 0 -10 -18 -10 -40z"/>
<path d="M10910 3641 c0 -16 5 -33 10 -36 6 -4 10 7 10 25 0 40 22 36 32 -6 6
-27 6 -27 5 6 -2 30 -6 35 -29 38 -25 3 -28 0 -28 -27z"/>
<path d="M10991 3633 c1 -35 2 -36 8 -9 9 41 28 43 40 4 l10 -33 -2 35 c-2 30
-6 35 -29 38 -26 3 -28 1 -27 -35z"/>
<path d="M11090 3661 c15 -6 18 -9 9 -10 -22 -1 -40 -24 -31 -38 4 -7 18 -11
30 -10 19 1 22 6 20 32 -2 24 -8 30 -28 32 l-25 2 25 -8z m12 -43 c-6 -6 -15
-8 -19 -4 -4 4 -1 11 7 16 19 12 27 3 12 -12z"/>
<path d="M11141 3623 c0 -26 3 -41 7 -33 4 8 16 15 27 15 16 0 20 7 20 30 0
25 -4 30 -27 33 -27 3 -28 2 -27 -45z m46 21 c8 -22 -15 -44 -26 -25 -10 16
-4 41 10 41 5 0 12 -7 16 -16z"/>
<path d="M11227 3664 c-13 -13 -7 -55 9 -61 24 -9 51 23 38 45 -12 19 -36 27
-47 16z m31 -26 c-2 -13 -7 -23 -13 -23 -5 0 -11 10 -13 23 -2 15 2 22 13 22
11 0 15 -7 13 -22z"/>
<path d="M11333 3635 c0 -22 2 -30 4 -17 2 12 2 30 0 40 -3 9 -5 -1 -4 -23z"/>
<path d="M11360 3655 c0 -9 7 -18 15 -21 8 -4 15 -11 15 -16 0 -6 -7 -8 -15
-4 -8 3 -15 1 -15 -4 0 -14 37 -12 46 1 4 7 -3 20 -16 29 -22 17 -23 18 -4 23
16 4 16 5 -3 6 -15 1 -23 -5 -23 -14z"/>
<path d="M10240 2949 c0 -50 18 -60 22 -12 2 27 8 39 21 41 13 3 17 -4 17 -32
0 -19 5 -38 10 -41 12 -7 14 54 2 72 -4 6 -22 11 -40 11 -30 -1 -32 -3 -32
-39z"/>
<path d="M10365 2983 c30 -7 43 -23 18 -23 -11 0 -26 -7 -33 -15 -18 -22 5
-46 39 -42 50 7 35 88 -17 86 -21 -1 -22 -2 -7 -6z m35 -47 c0 -17 -27 -29
-35 -16 -4 6 -3 15 0 20 9 15 35 12 35 -4z"/>
<path d="M643 2490 c0 -30 2 -43 4 -27 2 15 2 39 0 55 -2 15 -4 2 -4 -28z"/>
<path d="M753 2490 c0 -30 2 -43 4 -27 2 15 2 39 0 55 -2 15 -4 2 -4 -28z"/>
<path d="M320 2491 c0 -22 5 -43 10 -46 6 -3 10 5 10 18 0 20 4 24 19 20 11
-3 22 -15 24 -27 2 -11 4 2 4 29 1 28 -1 42 -4 33 -5 -22 -43 -24 -43 -3 0 8
-4 15 -10 15 -5 0 -10 -18 -10 -39z"/>
<path d="M413 2494 c-8 -22 9 -49 33 -49 30 0 27 59 -4 63 -14 2 -25 -3 -29
-14z m44 -10 c8 -21 -13 -42 -28 -27 -13 13 -5 43 11 43 6 0 13 -7 17 -16z"/>
<path d="M491 2473 c1 -36 2 -36 8 -9 9 42 31 46 31 5 0 -25 3 -30 11 -22 7 7
9 23 5 37 -5 19 -13 26 -31 26 -22 0 -25 -4 -24 -37z"/>
<path d="M563 2494 c-8 -22 9 -49 33 -49 30 0 27 59 -4 63 -14 2 -25 -3 -29
-14z m42 -19 c0 -10 -5 -20 -11 -22 -13 -4 -27 24 -18 38 9 15 29 4 29 -16z"/>
<path d="M673 2480 c2 -31 5 -35 30 -36 25 -1 27 2 26 35 l-1 36 -9 -32 c-5
-18 -14 -33 -19 -33 -5 0 -14 15 -19 33 l-10 32 2 -35z"/>
<path d="M783 2480 c2 -31 5 -35 30 -36 25 -1 27 2 26 35 -1 35 -2 35 -8 7 -9
-41 -28 -43 -40 -4 l-10 33 2 -35z"/>
<path d="M9807 2493 c-11 -10 -8 -51 3 -58 6 -4 10 8 10 29 0 37 -2 41 -13 29z"/>
<path d="M9860 2489 l25 -12 -25 -6 c-35 -9 -32 -36 3 -37 26 -1 28 2 25 30
-2 25 -8 31 -28 33 l-25 3 25 -11z m15 -39 c-3 -5 -10 -10 -16 -10 -5 0 -9 5
-9 10 0 6 7 10 16 10 8 0 12 -4 9 -10z"/>
<path d="M62 2382 c18 -41 25 -47 43 -32 22 18 19 24 -20 43 l-34 16 11 -27z"/>
<path d="M263 2355 c-3 -8 -12 -15 -20 -15 -8 0 -21 -6 -29 -14 -22 -22 2 -70
30 -61 12 4 29 7 39 8 9 1 17 8 17 17 0 9 4 20 9 26 6 5 1 17 -15 31 -20 18
-26 20 -31 8z"/>
<path d="M10101 2319 c-30 -12 -24 -38 13 -58 34 -19 31 -36 -6 -36 -35 0 -36
-13 -3 -21 54 -14 78 49 25 67 -40 14 -39 37 3 41 25 2 28 4 12 9 -12 3 -31 2
-44 -2z"/>
<path d="M10450 2270 c0 -33 4 -60 10 -60 6 0 10 16 10 35 0 28 4 35 20 35 17
0 20 -7 20 -42 0 -31 3 -39 11 -31 14 14 3 83 -14 84 -7 1 -18 1 -24 0 -7 -1
-13 7 -13 19 0 11 -4 20 -10 20 -6 0 -10 -27 -10 -60z"/>
<path d="M10938 2316 c-35 -17 -38 -79 -4 -101 15 -10 33 -14 46 -10 31 10 24
22 -10 17 -24 -3 -31 0 -39 19 -14 38 2 64 38 64 17 0 31 3 31 6 0 13 -39 16
-62 5z"/>
<path d="M11293 2265 c0 -38 2 -53 4 -32 2 20 2 52 0 70 -2 17 -4 1 -4 -38z"/>
<path d="M11330 2320 c0 -5 5 -10 10 -10 6 0 10 5 10 10 0 6 -4 10 -10 10 -5
0 -10 -4 -10 -10z"/>
<path d="M10390 2305 c-4 -41 2 -90 13 -97 17 -11 27 -10 27 2 0 6 -7 10 -15
10 -22 0 -20 57 3 63 15 4 15 5 0 6 -9 0 -19 9 -21 19 -4 15 -5 14 -7 -3z"/>
<path d="M10208 2293 c-20 -5 -32 -35 -23 -62 14 -46 75 -30 75 19 0 31 -22
49 -52 43z m36 -28 c8 -23 -4 -45 -25 -45 -14 0 -19 7 -19 30 0 23 5 30 19 30
10 0 21 -7 25 -15z"/>
<path d="M11039 2289 c-10 -6 -6 -9 14 -9 15 0 27 -4 27 -10 0 -5 -11 -10 -25
-10 -14 0 -28 -7 -32 -16 -9 -23 18 -43 48 -37 26 5 28 14 21 69 -3 16 -36 24
-53 13z m39 -51 c-7 -19 -38 -22 -38 -4 0 10 9 16 21 16 12 0 19 -5 17 -12z"/>
<path d="M11145 2291 c-15 -4 -21 -16 -23 -42 -2 -21 1 -40 7 -44 7 -4 11 7
11 30 0 27 5 37 22 44 26 9 11 20 -17 12z"/>
<path d="M11199 2282 c-17 -14 -20 -25 -15 -45 13 -53 76 -42 76 14 0 40 -30
55 -61 31z m46 -32 c0 -18 -6 -26 -22 -28 -18 -3 -23 1 -23 21 0 28 9 39 30
35 9 -2 15 -14 15 -28z"/>
<path d="M11490 2290 c-12 -8 -9 -10 13 -10 15 0 27 -4 27 -10 0 -5 -8 -10
-19 -10 -10 0 -24 -7 -31 -16 -20 -23 8 -47 43 -38 21 5 27 12 27 34 0 26 -22
60 -38 60 -4 0 -14 -5 -22 -10z m40 -55 c0 -8 -9 -15 -20 -15 -20 0 -26 11
-13 23 12 13 33 7 33 -8z"/>
<path d="M10280 2262 c0 -43 20 -65 53 -57 24 6 27 12 27 46 0 21 -4 39 -10
39 -5 0 -10 -16 -10 -35 0 -28 -4 -35 -20 -35 -16 0 -20 7 -20 35 0 19 -4 35
-10 35 -5 0 -10 -13 -10 -28z"/>
<path d="M11330 2250 c0 -22 5 -40 10 -40 6 0 10 18 10 40 0 22 -4 40 -10 40
-5 0 -10 -18 -10 -40z"/>
<path d="M11377 2248 c2 -58 5 -60 12 -13 4 27 12 41 24 43 13 3 17 -4 17 -32
0 -19 5 -38 11 -41 7 -5 9 8 7 37 -3 41 -4 43 -38 46 l-35 3 2 -43z"/>
<path d="M403 2248 c-13 -6 -23 -19 -23 -30 0 -21 1 -21 51 -6 37 11 38 12 23
30 -19 20 -21 21 -51 6z"/>
<path d="M440 2154 c0 -15 5 -55 12 -90 l11 -64 38 0 c48 0 79 39 79 98 0 35
-4 43 -34 61 -18 12 -50 21 -70 21 -32 0 -36 -3 -36 -26z"/>
<path d="M870 1930 c0 -5 5 -10 11 -10 5 0 7 5 4 10 -3 6 -8 10 -11 10 -2 0
-4 -4 -4 -10z"/>
<path d="M376 1874 c2 -58 14 -90 14 -36 0 29 3 32 30 32 27 0 30 -3 30 -31 0
-17 4 -28 10 -24 6 3 10 31 10 61 0 30 -4 54 -10 54 -5 0 -10 -8 -10 -19 0
-12 -9 -20 -25 -23 -29 -6 -35 -2 -35 24 0 10 -3 18 -7 18 -5 0 -7 -25 -7 -56z"/>
<path d="M510 1900 c-12 -8 -9 -10 13 -10 15 0 27 -4 27 -9 0 -5 -12 -11 -27
-13 -20 -2 -29 -9 -31 -24 -4 -25 14 -34 52 -27 26 5 28 9 22 41 -7 46 -27 61
-56 42z m38 -52 c-7 -19 -38 -22 -38 -4 0 10 9 16 21 16 12 0 19 -5 17 -12z"/>
<path d="M740 1900 c-12 -8 -9 -10 13 -10 15 0 27 -4 27 -10 0 -5 -11 -10 -24
-10 -29 0 -42 -28 -23 -47 9 -9 23 -12 42 -7 25 6 27 10 21 42 -7 46 -27 61
-56 42z m38 -52 c-7 -19 -38 -22 -38 -4 0 10 9 16 21 16 12 0 19 -5 17 -12z"/>
<path d="M590 1893 c0 -4 5 -26 11 -48 10 -37 12 -38 25 -20 8 10 14 28 15 39
0 15 2 17 6 6 3 -8 10 -26 16 -40 l9 -25 14 30 c7 17 13 39 13 50 -1 15 -4 13
-14 -10 l-13 -30 -7 28 c-9 34 -35 36 -35 2 0 -14 -4 -25 -10 -25 -5 0 -10 9
-10 19 0 11 -4 23 -10 26 -5 3 -10 3 -10 -2z"/>
<path d="M833 1855 c0 -27 2 -38 4 -22 2 15 2 37 0 50 -2 12 -4 0 -4 -28z"/>
<path d="M870 1854 c0 -27 4 -43 10 -39 6 3 10 24 10 46 0 21 -4 39 -10 39 -5
0 -10 -21 -10 -46z"/>
<path d="M1546 1491 c-64 -54 -72 -58 -100 -50 -47 14 -53 12 -76 -26 l-22
-35 71 -100 c63 -89 69 -103 59 -120 -17 -26 -18 -26 -58 15 -31 32 -39 35
-91 35 -55 0 -58 -2 -79 -35 -20 -32 -20 -40 -10 -90 l12 -56 71 -35 c93 -47
100 -53 86 -70 -7 -9 -31 -14 -61 -14 -45 0 -55 -5 -113 -52 -57 -48 -65 -59
-75 -106 -10 -46 -9 -60 7 -104 11 -32 30 -60 51 -76 20 -15 31 -31 28 -41 -3
-9 -8 -32 -11 -51 l-6 -35 69 -22 c41 -14 95 -23 131 -23 57 0 61 -2 61 -23 0
-18 -26 -39 -132 -106 -133 -85 -207 -119 -391 -180 -54 -18 -95 -37 -90 -42
4 -4 102 6 217 22 208 30 210 31 270 71 34 23 88 63 120 90 33 27 80 60 105
73 35 17 51 33 65 65 18 40 18 44 2 71 -17 29 -17 29 10 39 15 6 31 13 37 17
8 5 4 -31 -9 -79 -5 -16 2 -18 56 -18 59 0 61 1 72 30 8 25 14 29 32 24 11 -3
25 -7 30 -8 5 0 9 20 10 46 0 26 4 48 9 48 61 1 62 0 97 -60 39 -67 52 -76
243 -175 102 -54 133 -76 237 -174 l119 -112 36 56 c19 30 35 59 35 64 0 5
-55 44 -122 87 -68 42 -127 82 -133 89 -5 6 -18 14 -27 18 -10 3 -18 14 -18
24 0 13 -3 14 -11 6 -9 -9 -21 -7 -50 8 -36 18 -40 25 -69 118 -27 89 -30 111
-30 235 0 91 4 143 13 157 10 17 9 22 -5 33 -10 7 -18 18 -18 24 0 6 8 13 18
15 16 4 16 5 0 6 -17 1 -18 19 -18 225 l0 224 -37 6 c-21 3 -69 8 -108 12 -59
6 -85 15 -176 65 -105 58 -108 59 -185 59 l-79 0 -69 -59z"/>
<path d="M9414 1449 c-4 -7 3 -20 17 -29 l23 -18 -25 -5 c-23 -4 -23 -4 4 -6
30 -1 39 25 12 35 -8 4 -15 11 -15 16 0 6 7 8 15 4 8 -3 15 -1 15 4 0 14 -37
12 -46 -1z"/>
<path d="M9484 1446 c-11 -28 1 -51 26 -53 l25 -3 -25 12 -25 12 28 4 c29 4
33 12 15 30 -16 16 -37 15 -44 -2z m36 -6 c0 -5 -7 -10 -16 -10 -8 0 -12 5 -9
10 3 6 10 10 16 10 5 0 9 -4 9 -10z"/>
<path d="M9561 1446 c-21 -25 -9 -51 24 -53 18 -1 22 1 10 4 -34 9 -41 23 -11
23 21 0 27 4 24 17 -4 23 -31 28 -47 9z m34 -6 c3 -5 -1 -10 -9 -10 -9 0 -16
5 -16 10 0 6 4 10 9 10 6 0 13 -4 16 -10z"/>
<path d="M2250 930 c0 -33 4 -60 10 -60 6 0 10 10 10 22 l0 21 23 -21 c32 -30
46 -28 17 3 -23 24 -23 25 -5 45 22 24 9 27 -17 3 -17 -15 -18 -14 -18 15 0
18 -4 32 -10 32 -6 0 -10 -27 -10 -60z"/>
<path d="M2365 953 c35 -9 37 -20 5 -27 -26 -5 -31 -10 -28 -28 2 -18 10 -23
36 -24 33 -1 33 0 30 40 -3 38 -5 41 -33 43 -18 1 -22 -1 -10 -4z m22 -60
c-15 -15 -37 -11 -37 7 0 10 31 19 43 12 5 -2 2 -11 -6 -19z"/>
<path d="M2732 464 c-1 -27 -7 -55 -14 -62 -9 -9 -9 -12 0 -12 18 0 24 21 19
76 l-3 49 -2 -51z"/>
<path d="M2858 483 c-13 -3 -18 -13 -17 -36 2 -30 2 -31 6 -4 5 34 33 36 33 2
0 -14 5 -25 10 -25 14 0 12 33 -2 51 -7 9 -21 14 -30 12z"/>
<path d="M2927 478 c-24 -13 -21 -45 4 -59 15 -8 24 -8 32 0 8 8 5 11 -11 11
-12 0 -22 5 -22 10 0 6 9 10 20 10 22 0 27 25 7 33 -7 3 -21 1 -30 -5z m30
-14 c-3 -3 -12 -4 -19 -1 -8 3 -5 6 6 6 11 1 17 -2 13 -5z"/>
<path d="M2999 479 c-10 -6 -8 -9 11 -9 25 -1 25 -1 3 -10 -23 -9 -31 -34 -14
-44 19 -12 41 7 41 34 0 30 -18 43 -41 29z m31 -39 c0 -5 -7 -10 -15 -10 -8 0
-15 5 -15 10 0 6 7 10 15 10 8 0 15 -4 15 -10z"/>
<path d="M2761 460 c-1 -32 15 -49 40 -43 14 4 19 14 18 37 -1 29 -1 30 -8 6
-4 -14 -13 -25 -21 -25 -8 0 -17 11 -21 25 l-7 25 -1 -25z"/>
<path d="M3060 457 c0 -30 17 -46 41 -40 14 4 19 13 18 37 -2 30 -2 30 -6 4
-5 -35 -33 -37 -33 -3 0 14 -4 25 -10 25 -5 0 -10 -10 -10 -23z"/>
</g>
</svg>
